<?xml version="1.0" encoding="utf-8"?>
<!-- Generator: Adobe Illustrator 19.1.0, SVG Export Plug-In . SVG Version: 6.00 Build 0)  -->
<svg version="1.1" id="Layer_1" xmlns="http://www.w3.org/2000/svg" xmlns:xlink="http://www.w3.org/1999/xlink" x="0px" y="0px"
	 viewBox="0 0 18 13" style="enable-background:new 0 0 18 13;" xml:space="preserve">
<style type="text/css">
	.st0{fill:#060507;}
</style>
<g>
	<path class="st0" d="M16,0H2C0.9,0,0,0.9,0,2v9c0,1.1,0.9,2,2,2h14c1.1,0,2-0.9,2-2V2C18,0.9,17.1,0,16,0z M6.3,7.3l1.6,1.4
		C8.2,9,8.6,9.1,9,9.1S9.8,9,10.1,8.7l1.6-1.4l0,0l3.6,3.6H2.7L6.3,7.3L6.3,7.3z M2,10.3V3.5l3.6,3.2L2,10.3z M12.4,6.7L16,3.5v6.8
		L12.4,6.7z M16,2v0.2L9.4,8C9.2,8.2,8.8,8.2,8.6,8L2,2.2V2H16z"/>
</g>
</svg>
