<?xml version="1.0" encoding="utf-8"?>
<!-- Generator: Adobe Illustrator 19.1.0, SVG Export Plug-In . SVG Version: 6.00 Build 0)  -->
<svg version="1.1" id="Layer_1" xmlns="http://www.w3.org/2000/svg" xmlns:xlink="http://www.w3.org/1999/xlink" x="0px" y="0px"
	 viewBox="-113 179.3 339.8 209.6" style="enable-background:new -113 179.3 339.8 209.6;" xml:space="preserve">
<style type="text/css">
	.st0{fill:none;stroke:#939598;stroke-width:0.226;stroke-miterlimit:10;}
	.st1{fill:none;stroke:#939598;stroke-width:0.25;stroke-miterlimit:10;}
	.st2{fill:none;stroke:#ED2124;}
	.st3{fill:none;stroke:#75C044;}
	.st4{enable-background:new    ;}
	.st5{fill:none;stroke:#000000;}
	.st6{fill:#FFFFFF;}
	.st7{fill:none;stroke:#000000;stroke-width:0.477;}
	.st8{fill:#004483;}
	.st9{fill:#75C044;}
	.st10{fill:none;stroke:#FFFFFF;stroke-width:0.226;stroke-miterlimit:10;}
	.st11{fill:none;stroke:#000000;stroke-width:0.449;}
	.st12{fill:#41AD49;}
	.st13{fill:none;stroke:#000000;stroke-width:0.5;}
</style>
<line class="st0" x1="-36.8" y1="197.7" x2="-36.8" y2="182.7"/>
<line class="st0" x1="13.1" y1="197.7" x2="13.1" y2="182.7"/>
<line class="st0" x1="62.6" y1="197.7" x2="62.6" y2="182.7"/>
<line class="st0" x1="112.5" y1="197.7" x2="112.5" y2="182.7"/>
<line class="st0" x1="162.1" y1="197.7" x2="162.1" y2="182.7"/>
<line class="st0" x1="-36.8" y1="213" x2="-36.8" y2="197.9"/>
<line class="st0" x1="13.1" y1="213" x2="13.1" y2="197.9"/>
<line class="st0" x1="62.6" y1="213" x2="62.6" y2="197.9"/>
<line class="st0" x1="112.5" y1="213" x2="112.5" y2="197.9"/>
<line class="st0" x1="162.1" y1="213" x2="162.1" y2="197.9"/>
<line class="st0" x1="-36.8" y1="227.6" x2="-36.8" y2="213.2"/>
<line class="st0" x1="13.1" y1="227.6" x2="13.1" y2="213.2"/>
<line class="st0" x1="62.6" y1="227.6" x2="62.6" y2="213.2"/>
<line class="st0" x1="112.5" y1="227.6" x2="112.5" y2="213.2"/>
<line class="st0" x1="162.1" y1="227.6" x2="162.1" y2="213.2"/>
<line class="st0" x1="-36.8" y1="242" x2="-36.8" y2="227.9"/>
<line class="st0" x1="13.1" y1="242" x2="13.1" y2="227.9"/>
<line class="st0" x1="62.6" y1="242" x2="62.6" y2="227.9"/>
<line class="st0" x1="112.5" y1="242" x2="112.5" y2="227.9"/>
<line class="st0" x1="162.1" y1="242" x2="162.1" y2="227.9"/>
<line class="st0" x1="-36.8" y1="256.8" x2="-36.8" y2="242.2"/>
<line class="st0" x1="13.1" y1="256.8" x2="13.1" y2="242.2"/>
<line class="st0" x1="62.6" y1="256.8" x2="62.6" y2="242.2"/>
<line class="st0" x1="112.5" y1="256.8" x2="112.5" y2="242.2"/>
<line class="st0" x1="162.1" y1="256.8" x2="162.1" y2="242.2"/>
<line class="st1" x1="-87" y1="197.8" x2="-36.8" y2="197.8"/>
<line class="st1" x1="-36.8" y1="197.8" x2="13.1" y2="197.8"/>
<line class="st1" x1="13.1" y1="197.8" x2="62.6" y2="197.8"/>
<line class="st1" x1="62.6" y1="197.8" x2="112.5" y2="197.8"/>
<line class="st1" x1="112.5" y1="197.8" x2="162.1" y2="197.8"/>
<line class="st1" x1="162.1" y1="197.8" x2="201.3" y2="197.8"/>
<line class="st1" x1="-87" y1="213.1" x2="-36.8" y2="213.1"/>
<line class="st1" x1="-36.8" y1="213.1" x2="13.1" y2="213.1"/>
<line class="st1" x1="13.1" y1="213.1" x2="62.6" y2="213.1"/>
<line class="st1" x1="62.6" y1="213.1" x2="112.5" y2="213.1"/>
<line class="st1" x1="112.5" y1="213.1" x2="162.1" y2="213.1"/>
<line class="st1" x1="162.1" y1="213.1" x2="201.3" y2="213.1"/>
<line class="st1" x1="-87" y1="227.8" x2="-36.8" y2="227.8"/>
<line class="st1" x1="-36.8" y1="227.8" x2="13.1" y2="227.8"/>
<line class="st1" x1="13.1" y1="227.8" x2="62.6" y2="227.8"/>
<line class="st1" x1="62.6" y1="227.8" x2="112.5" y2="227.8"/>
<line class="st1" x1="112.5" y1="227.8" x2="162.1" y2="227.8"/>
<line class="st1" x1="162.1" y1="227.8" x2="201.3" y2="227.8"/>
<line class="st1" x1="-87" y1="242.1" x2="-36.8" y2="242.1"/>
<line class="st1" x1="-36.8" y1="242.1" x2="13.1" y2="242.1"/>
<line class="st1" x1="13.1" y1="242.1" x2="62.6" y2="242.1"/>
<line class="st1" x1="62.6" y1="242.1" x2="112.5" y2="242.1"/>
<line class="st1" x1="112.5" y1="242.1" x2="162.1" y2="242.1"/>
<line class="st1" x1="162.1" y1="242.1" x2="201.3" y2="242.1"/>
<polyline class="st2" points="-87,246.2 -84.4,243.8 -82.4,243.3 -80,241.2 -76.8,238.7 -74.4,239.1 -72.5,236 -70.1,236.8 
	-64.4,232.7 -62.1,230.5 -59.8,231.5 -56.4,229.9 -54.1,229 -51.8,228.3 -49.7,229.1 -46,226.9 -43.9,227.9 -39.3,224.9 
	-35.9,225.7 -33.6,225.7 -31.6,224.7 -25.5,224.7 -23.5,223.8 -21.3,224.9 -19.1,223.2 -13.1,223.2 -11.1,222.5 -3.4,222.5 
	-2.4,221.9 0.3,216.9 1.6,213.6 5,222.4 6.1,223.2 8,217.8 10.3,214.2 12.7,214.2 16.1,210.6 18.4,208.3 20.4,207.8 26.3,205.6 
	28.3,203.3 30.7,202.7 33.2,201.7 35.5,200.9 39.1,200.2 41.4,199.2 43.4,198.7 45.9,198.9 49.2,197 51.8,197 53.6,196.6 
	55.8,198.1 59.6,197.2 61.8,196.6 64,195 66.2,195.9 69.6,195.1 71.9,196.7 74,195.1 76.2,195.1 79.9,191.4 82.1,194.4 86.5,193.6 
	91.4,193.6 93.6,194.7 95.8,193.4 98.1,194.5 106.1,194.5 108.3,195.5 111.8,194.4 115.4,194.4 117.4,193.6 119.8,193.6 
	121.4,195.5 134.3,195.9 135.5,195.1 137.8,195.9 140,195.1 142.1,195.9 144.1,195.9 148,196.6 152.6,196.6 155.4,196.1 
	164.8,196.1 174.5,196.1 176.8,196.7 178,195.9 181.5,195 184.1,195 186,196.6 189.1,196.6 "/>
<g>
	<path class="st3" d="M-87,238.8l1,1.1h1.3l1.3-5.5l0.9,6.9l3.3-0.5l2.8-4.6l1.8,4.4l1-1.7l1.4,0.9l1.3-1.9l2.2,0.2l2.5,3.5l0.9-4.4
		l1.2,1.7l1-8l0.9,10.4l1.2-1.3l1.4,3.6l1-4.7l2.3,0.8l1.4,1.9l1.9,0.5l2.4-1.7l2,1.7l2.8-2.5l0.9,2.2l2.3-0.5l1.2-6.7l1,1.1
		l1.2-0.3l0.8,3l2.4-4.7l2.3,1.9l1.3-2.2l0.9,2.4l1.2-3.5l1.1,4.4l1.1-3.1l2.5,0.5l1.2,2.5l2.2-2.2l1.2-5.5l1.2,5.6l0.9,1.1l1.4-5.5
		l2.1,4.4l2.3,1.1l1.3-0.2l2.3-0.2l2.1-3l2.3-5.2l1,7.4l1.4-4.6l0.8,8.9l2.5,4.6L2,243l3.3-6.4l1.2-3.1l2,8.5l1.5-2.2l0.8,1.3
		l0.9-2.4l1.4,1.3l0.7-1.1h2.6l1.2-1.1l0.9,2l4.8-4.6l3.3,3.6l2.3-1.7l1.2,1.1h4l0.5-1.1h5.1l1.2-0.9h1l1.2-0.6l1.4,0.9h0.7l1.3-0.9
		H51l1.4,1.3l2.3-2.2l0.6,1.9l1.2-2l1.2,1.9h4.7l1.1,2.5l1-0.8h2.3l1.3,1.1h5.7l1.4-0.9l1.1,0.8h0.9l1-0.8l2.6-3l0.2,2.9l1.1,3.8
		l1.1-4.4l1.1-1.1l0.8,1.1h2.6l1.2,1.4l2.5-1.7h1l1.3-3.9l0.6,4.2l1.4,1.3l0.9-2.4l2.5,1.6h6.9l1.2-1.6l0.8,0.7l1.1-0.9h2.8l1.1,1.9
		l1.8-1.9l1.4,0.5h2.6l1,2.4l1.8-1.3h8.2l4.5-0.5l0.7,0.2l0.4,1.9l2.1-1.6l1.4,1.3l2.3-1.9l2,1.9l0.7-0.9l4,1.4l2-0.9l1.5-0.9
		l2.2,1.1l1.9,0.3l1,1.9l2.4-2.2c0,0,2.4,0.8,2.2,0.8h1.3l1.9-1.4l1.5,8l8.9-8.8l2.1-1.1l1.1,0.5l3.9,5.2l3.3-7.8l1.3,1.3l1,2.4
		l1.7,1.7l1.4-2.8"/>
</g>
<g class="st4">
	<path d="M-105,244c-0.2,0-0.4,0.1-0.6,0.1c-0.3,0-0.5,0-0.8,0c-1,0-1.4,0-1.4,1v0.7h2.7v0.7h-5.9v-1.6c0-1,0.3-1.6,1.4-1.6
		c0.7,0,1.2,0.2,1.4,0.9c0.1-0.6,0.4-0.8,0.9-0.8c0.3,0,0.6,0,1,0c0.3,0,0.5,0,0.7,0c0.1,0,0.2,0,0.4,0V244z M-110.3,244.9v0.8h2
		v-0.6c0-0.9-0.2-1.2-1.1-1.2C-110.1,244-110.3,244.3-110.3,244.9z"/>
	<path d="M-107,241.8h0.3c0.7,0,1.3-0.1,1.3-0.7c0-0.6-0.4-0.7-0.9-0.7v-0.6c0.8,0,1.4,0.4,1.4,1.4c0,1.3-0.9,1.4-2,1.4
		c-1.1,0-2.3-0.1-2.3-1.5c0-1.3,1-1.4,2-1.4h0.2V241.8z M-107.9,240.3c-0.4,0-0.8,0.2-0.8,0.7c0,0.5,0.3,0.7,0.8,0.8
		c0.2,0,0.3,0,0.5,0v-1.5C-107.6,240.3-107.7,240.3-107.9,240.3z"/>
	<path d="M-104.9,237.7c0,0.8-0.3,1.2-1,1.2c-0.1,0-0.2,0-0.3,0v-0.6c0.1,0,0.2,0,0.2,0c0.4,0,0.6-0.2,0.6-0.6
		c0-0.4-0.2-0.6-0.6-0.6c-0.5,0-0.6,0.3-0.9,0.7l-0.1,0.2c-0.3,0.5-0.5,0.8-1.1,0.8c-0.7,0-1.1-0.5-1.1-1.2c0-0.7,0.3-1.1,0.9-1.2
		c0.1,0,0.2,0,0.3,0v0.6c-0.1,0-0.2,0-0.3,0c-0.3,0-0.5,0.2-0.5,0.6c0,0.3,0.2,0.5,0.6,0.5c0.3,0,0.5-0.3,0.7-0.6l0.1-0.2
		c0.3-0.5,0.5-1,1.2-1C-105.3,236.4-104.9,236.9-104.9,237.7z"/>
	<path d="M-110.1,235.6h-0.7v-0.7h0.7V235.6z M-105,235.6h-4.1v-0.6h4.1V235.6z"/>
	<path d="M-104.9,232.9c0,0.8-0.3,1.2-1,1.2c-0.1,0-0.2,0-0.3,0v-0.6c0.1,0,0.2,0,0.2,0c0.4,0,0.6-0.2,0.6-0.6
		c0-0.4-0.2-0.6-0.6-0.6c-0.5,0-0.6,0.3-0.9,0.7l-0.1,0.2c-0.3,0.5-0.5,0.8-1.1,0.8c-0.7,0-1.1-0.5-1.1-1.2c0-0.7,0.3-1.1,0.9-1.2
		c0.1,0,0.2,0,0.3,0v0.6c-0.1,0-0.2,0-0.3,0c-0.3,0-0.5,0.2-0.5,0.6c0,0.3,0.2,0.5,0.6,0.5c0.3,0,0.5-0.3,0.7-0.6l0.1-0.2
		c0.3-0.5,0.5-1,1.2-1C-105.3,231.6-104.9,232.1-104.9,232.9z"/>
	<path d="M-105,229.6c0,0.8-0.3,0.9-1,0.9h-2.7v0.6h-0.5v-0.6h-0.8l-0.3-0.6h1v-0.7h0.5v0.7h2.6c0.5,0,0.6-0.1,0.6-0.5
		c0-0.1,0-0.2,0-0.3h0.5C-105,229.3-105,229.5-105,229.6z"/>
	<path d="M-110.1,228.5h-0.7v-0.7h0.7V228.5z M-105,228.5h-4.1v-0.6h4.1V228.5z"/>
	<path d="M-105,225.3v0.7l-4.1,1.1v-0.7l3.4-0.8l-3.4-0.9v-0.6L-105,225.3z"/>
	<path d="M-110.1,223.5h-0.7v-0.7h0.7V223.5z M-105,223.5h-4.1v-0.6h4.1V223.5z"/>
	<path d="M-105,220.6c0,0.8-0.3,0.9-1,0.9h-2.7v0.6h-0.5v-0.6h-0.8l-0.3-0.6h1v-0.7h0.5v0.7h2.6c0.5,0,0.6-0.1,0.6-0.5
		c0-0.1,0-0.2,0-0.3h0.5C-105,220.3-105,220.5-105,220.6z"/>
	<path d="M-103.4,218.5v0.6l-1.6-0.5l-4.1,1.2v-0.7l3.3-0.9l-3.3-0.8v-0.6L-103.4,218.5z"/>
	<path d="M-104.2,216.3v0.5l-1.6-0.3v-0.7L-104.2,216.3z"/>
	<path d="M-104.9,211.7c0,1.3-0.8,1.4-2.1,1.4c-1.2,0-2.2-0.2-2.2-1.5c0-1.3,0.9-1.4,2.1-1.4C-105.7,210.2-104.9,210.4-104.9,211.7z
		 M-107.3,210.9c-0.6,0-1.5,0-1.5,0.7c0,0.8,0.9,0.8,1.5,0.8h0.6c0.6,0,1.3,0,1.3-0.8c0-0.7-0.7-0.8-1.3-0.8H-107.3z"/>
	<path d="M-105,207.2h-2.6c-0.5,0-1.1,0-1.1,0.6c0,0.6,0.5,0.8,1.2,0.8h2.5v0.6h-5.9v-0.6h2.3c-0.3-0.3-0.6-0.6-0.6-1
		c0-0.8,0.5-1.1,1.3-1.1h2.9V207.2z"/>
	<path d="M-105,201.6h-2.8c-0.4,0-0.9,0-0.9,0.6c0,0.6,0.6,0.7,1.1,0.7h2.6v0.6h-2.8c-0.4,0-0.9,0-0.9,0.6c0,0.5,0.6,0.7,1.2,0.7
		h2.5v0.6h-3.4c-0.2,0-0.5,0-0.7,0v-0.6h0.5c-0.3-0.2-0.6-0.5-0.6-1c0-0.6,0.3-0.8,0.6-0.9c-0.3-0.2-0.6-0.5-0.6-1
		c0-0.8,0.5-1,1.4-1h2.8V201.6z"/>
	<path d="M-105,199.8h-0.8v-0.7h0.8V199.8z"/>
	<path d="M-105,194.2h-2.8c-0.4,0-0.9,0-0.9,0.6c0,0.6,0.6,0.7,1.1,0.7h2.6v0.6h-2.8c-0.4,0-0.9,0-0.9,0.6c0,0.5,0.6,0.7,1.2,0.7
		h2.5v0.6h-3.4c-0.2,0-0.5,0-0.7,0v-0.6h0.5c-0.3-0.2-0.6-0.5-0.6-1c0-0.6,0.3-0.8,0.6-0.9c-0.3-0.2-0.6-0.5-0.6-1
		c0-0.8,0.5-1,1.4-1h2.8V194.2z"/>
</g>
<g class="st4">
	<path d="M219.8,246.1h5.3v0.7h-5.3v1.4h-0.6v-3.4h0.6V246.1z"/>
	<path d="M223.1,244.2h0.3c0.7,0,1.3-0.1,1.3-0.7c0-0.6-0.4-0.7-0.9-0.7v-0.6c0.8,0,1.4,0.4,1.4,1.4c0,1.3-0.9,1.4-2,1.4
		c-1.1,0-2.3-0.1-2.3-1.5c0-1.3,1-1.4,2-1.4h0.2V244.2z M222.2,242.8c-0.4,0-0.8,0.2-0.8,0.7c0,0.5,0.3,0.7,0.8,0.8
		c0.2,0,0.3,0,0.5,0v-1.5C222.5,242.7,222.4,242.7,222.2,242.8z"/>
	<path d="M225.1,237.3h-2.8c-0.4,0-0.9,0-0.9,0.6c0,0.6,0.6,0.7,1.1,0.7h2.6v0.6h-2.8c-0.4,0-0.9,0-0.9,0.6c0,0.5,0.6,0.7,1.2,0.7
		h2.5v0.6h-3.4c-0.2,0-0.5,0-0.7,0v-0.6h0.5c-0.3-0.2-0.6-0.5-0.6-1c0-0.6,0.3-0.8,0.6-0.9c-0.3-0.2-0.6-0.5-0.6-1
		c0-0.8,0.5-1,1.4-1h2.8V237.3z"/>
	<path d="M225.2,234c0,0.4-0.1,0.7-0.5,0.9h2v0.6H222c-0.2,0-0.7,0-1,0V235h0.5c-0.4-0.2-0.6-0.6-0.6-1c0-1.1,1.1-1.2,2.1-1.2
		C224,232.8,225.2,232.8,225.2,234z M221.4,234.2c0,0.7,0.8,0.8,1.7,0.8c0.7,0,1.6,0,1.6-0.8c0-0.8-1.1-0.7-1.7-0.7
		C222.3,233.4,221.4,233.4,221.4,234.2z"/>
	<path d="M223.1,231.3h0.3c0.7,0,1.3-0.1,1.3-0.7c0-0.6-0.4-0.7-0.9-0.7v-0.6c0.8,0,1.4,0.4,1.4,1.4c0,1.3-0.9,1.4-2,1.4
		c-1.1,0-2.3-0.1-2.3-1.5c0-1.3,1-1.4,2-1.4h0.2V231.3z M222.2,229.9c-0.4,0-0.8,0.2-0.8,0.7c0,0.5,0.3,0.7,0.8,0.8
		c0.2,0,0.3,0,0.5,0v-1.5C222.5,229.8,222.4,229.8,222.2,229.9z"/>
	<path d="M221.5,226.7c0,0.6,0.4,0.9,1,0.9h2.5v0.7h-3.4c-0.2,0-0.6,0-0.7,0v-0.6h0.5c-0.4-0.2-0.6-0.6-0.6-1v-0.1h0.6
		C221.5,226.6,221.5,226.7,221.5,226.7z"/>
	<path d="M225.1,224.1l-0.5,0c0.4,0.3,0.6,0.6,0.6,1.1c0,0.7-0.5,1.1-1.2,1.1c-1.3,0-1.4-1.1-1.4-2.1h-0.2c-0.5,0-1,0-1,0.6
		c0,0.4,0.2,0.7,0.6,0.7h0v0.6h0c-0.8,0-1.1-0.6-1.1-1.4c0-1,0.4-1.2,1.4-1.2h1.5c0.4,0,0.9,0,1.3,0V224.1z M223,224.2v0.2
		c0,0.6,0.1,1.3,0.9,1.3c0.4,0,0.8-0.1,0.8-0.6c0-0.7-0.7-0.8-1.2-0.8H223z"/>
	<path d="M225.1,221.4c0,0.8-0.3,0.9-1,0.9h-2.7v0.6H221v-0.6h-0.8l-0.3-0.6h1V221h0.5v0.7h2.6c0.5,0,0.6-0.1,0.6-0.5
		c0-0.1,0-0.2,0-0.3h0.5C225.1,221.1,225.1,221.3,225.1,221.4z"/>
	<path d="M225.1,218.1l-0.5,0c0.4,0.2,0.6,0.6,0.6,1c0,0.8-0.5,1.1-1.3,1.1H221v-0.6h2.6c0.5,0,1.1,0,1.1-0.7c0-0.7-0.6-0.8-1.2-0.8
		H221v-0.7h3.2c0.3,0,0.6,0,0.9,0V218.1z"/>
	<path d="M221.5,214.9c0,0.6,0.4,0.9,1,0.9h2.5v0.7h-3.4c-0.2,0-0.6,0-0.7,0v-0.6h0.5c-0.4-0.2-0.6-0.6-0.6-1v-0.1h0.6
		C221.5,214.8,221.5,214.8,221.5,214.9z"/>
	<path d="M223.1,213.7h0.3c0.7,0,1.3-0.1,1.3-0.7c0-0.6-0.4-0.7-0.9-0.7v-0.6c0.8,0,1.4,0.4,1.4,1.4c0,1.3-0.9,1.4-2,1.4
		c-1.1,0-2.3-0.1-2.3-1.5c0-1.3,1-1.4,2-1.4h0.2V213.7z M222.2,212.2c-0.4,0-0.8,0.2-0.8,0.7c0,0.5,0.3,0.7,0.8,0.8
		c0.2,0,0.3,0,0.5,0v-1.5C222.5,212.2,222.4,212.2,222.2,212.2z"/>
	<path d="M225.9,210.3v0.5l-1.6-0.3v-0.7L225.9,210.3z"/>
	<path d="M225.1,204.9l-0.5,0c0.4,0.2,0.5,0.5,0.5,1c0,1.2-1.2,1.3-2.2,1.3c-1,0-2.1-0.2-2.1-1.3c0-0.5,0.2-0.7,0.5-0.9h-2.2v-0.7
		h5.1c0.2,0,0.6,0,0.8,0V204.9z M221.4,205.7c0,0.7,0.9,0.8,1.6,0.8c0.9,0,1.7-0.1,1.7-0.7c0-0.8-0.8-0.8-1.6-0.8
		C222.2,204.9,221.4,205,221.4,205.7z"/>
	<path d="M223.1,202.7h0.3c0.7,0,1.3-0.1,1.3-0.7c0-0.6-0.4-0.7-0.9-0.7v-0.6c0.8,0,1.4,0.4,1.4,1.4c0,1.3-0.9,1.4-2,1.4
		c-1.1,0-2.3-0.1-2.3-1.5c0-1.3,1-1.4,2-1.4h0.2V202.7z M222.2,201.2c-0.4,0-0.8,0.2-0.8,0.7c0,0.5,0.3,0.7,0.8,0.8
		c0.2,0,0.3,0,0.5,0v-1.5C222.5,201.2,222.4,201.2,222.2,201.2z"/>
	<path d="M221.7,197h3.6c1,0,1.4,0.4,1.4,1.5c0,0.8-0.4,1.3-1.2,1.3V199c0.4,0,0.7-0.1,0.7-0.6c0-0.7-0.5-0.8-1.1-0.8h-0.6
		c0.3,0.3,0.5,0.5,0.5,1c0,1.1-1,1.2-2,1.2c-1,0-2.2-0.1-2.2-1.2c0-0.5,0.2-0.8,0.6-1H221v-0.6C221.2,196.9,221.5,197,221.7,197z
		 M221.4,198.4c0,0.8,1,0.8,1.7,0.8c0.7,0,1.5,0,1.5-0.7c0-0.8-1.1-0.8-1.7-0.8C222.2,197.6,221.4,197.7,221.4,198.4z"/>
	<path d="M225.2,194.2c0,1.7-1.2,1.7-3,1.7c-1.6,0-3.1,0-3.1-1.8c0-1.1,0.6-1.6,1.6-1.6h0.1v0.7h-0.1c-0.6,0-1.1,0.1-1.1,0.9
		c0,1,1,1,2.5,1c1.7,0,2.5,0,2.5-1c0-0.8-0.5-1-1.2-1h-0.1v-0.7h0.1C224.6,192.6,225.2,193.1,225.2,194.2z"/>
</g>
<g class="st4">
	<path d="M-98,186.2v-5c-0.3,0.3-0.6,0.5-0.9,0.7v-0.7c0.3-0.2,0.8-0.6,1-0.9h0.6v5.8H-98z"/>
	<path d="M-95.5,186.2v-0.8h0.7v0.8H-95.5z"/>
	<path d="M-92.5,186.3c-1.3,0-1.4-1-1.4-2.5v-1.1c0-1.5,0.2-2.4,1.4-2.4s1.4,0.9,1.4,2.4v1.1C-91.1,185.3-91.2,186.3-92.5,186.3z
		 M-91.7,182.8c0-1.3-0.1-1.9-0.8-1.9c-0.7,0-0.8,0.7-0.8,1.9v1.2c0,1.2,0.1,1.9,0.8,1.9c0.7,0,0.8-0.7,0.8-1.9V182.8z"/>
</g>
<g class="st4">
	<path d="M-97.9,200.9c-1.3,0-1.4-1-1.4-2.5v-1.1c0-1.5,0.2-2.4,1.4-2.4s1.4,0.9,1.4,2.4v1.1C-96.5,199.9-96.6,200.9-97.9,200.9z
		 M-97.1,197.4c0-1.3-0.1-1.9-0.8-1.9c-0.7,0-0.8,0.7-0.8,1.9v1.2c0,1.2,0.1,1.9,0.8,1.9c0.7,0,0.8-0.7,0.8-1.9V197.4z"/>
	<path d="M-95.5,200.8v-0.8h0.7v0.8H-95.5z"/>
	<path d="M-92.5,200.9c-1,0-1.4-0.6-1.4-1.6c0-0.6,0.1-1.3,0.8-1.5c-0.6-0.2-0.7-0.7-0.7-1.3c0-1,0.4-1.6,1.4-1.6
		c1,0,1.4,0.5,1.4,1.5c0,0.6-0.1,1.2-0.8,1.4c0.7,0.1,0.8,0.8,0.8,1.4C-91,200.3-91.4,200.9-92.5,200.9z M-92.5,198.1
		c-0.7,0-0.8,0.6-0.8,1.2c0,0.6,0.1,1.2,0.8,1.2c0.7,0,0.8-0.6,0.8-1.2C-91.7,198.6-91.8,198.1-92.5,198.1z M-92.5,195.4
		c-0.6,0-0.8,0.5-0.8,1.1c0,0.5,0.2,1.1,0.7,1.1c0.6,0,0.7-0.5,0.7-1C-91.8,196-91.8,195.4-92.5,195.4z"/>
</g>
<g class="st4">
	<path d="M-97.9,215.5c-1.3,0-1.4-1-1.4-2.5v-1.1c0-1.5,0.2-2.4,1.4-2.4s1.4,0.9,1.4,2.4v1.1C-96.5,214.5-96.6,215.5-97.9,215.5z
		 M-97.1,212c0-1.3-0.1-1.9-0.8-1.9c-0.7,0-0.8,0.7-0.8,1.9v1.2c0,1.2,0.1,1.9,0.8,1.9c0.7,0,0.8-0.7,0.8-1.9V212z"/>
	<path d="M-95.5,215.4v-0.8h0.7v0.8H-95.5z"/>
	<path d="M-92.4,215.5c-1.3,0-1.4-1.2-1.4-2.4v-1.1c0-1.1,0.1-2.4,1.5-2.4c0.9,0,1.3,0.4,1.3,1.3h-0.7c0-0.5-0.2-0.8-0.7-0.8
		c-0.8,0-0.8,1-0.8,2v0.3c0.2-0.4,0.5-0.5,1-0.5c1,0,1.2,0.8,1.2,1.8C-91,214.6-91.2,215.5-92.4,215.5z M-92.4,212.3
		c-0.7,0-0.8,0.7-0.8,1.4c0,0.7,0.1,1.4,0.8,1.4c0.7,0,0.8-0.8,0.8-1.4C-91.7,212.9-91.8,212.3-92.4,212.3z"/>
</g>
<g class="st4">
	<path d="M-97.9,230.1c-1.3,0-1.4-1-1.4-2.5v-1.1c0-1.5,0.2-2.4,1.4-2.4s1.4,0.9,1.4,2.4v1.1C-96.5,229.1-96.6,230.1-97.9,230.1z
		 M-97.1,226.6c0-1.3-0.1-1.9-0.8-1.9c-0.7,0-0.8,0.7-0.8,1.9v1.2c0,1.2,0.1,1.9,0.8,1.9c0.7,0,0.8-0.7,0.8-1.9V226.6z"/>
	<path d="M-95.5,230v-0.8h0.7v0.8H-95.5z"/>
	<path d="M-91.5,228.6v1.4h-0.6v-1.4H-94V228l1.6-3.8h0.9v3.9h0.6v0.5H-91.5z M-92.1,224.8l-1.4,3.3h1.4V224.8z"/>
</g>
<g class="st4">
	<path d="M-97.9,244.7c-1.3,0-1.4-1-1.4-2.5v-1.1c0-1.5,0.2-2.4,1.4-2.4s1.4,0.9,1.4,2.4v1.1C-96.5,243.7-96.6,244.7-97.9,244.7z
		 M-97.1,241.2c0-1.3-0.1-1.9-0.8-1.9c-0.7,0-0.8,0.7-0.8,1.9v1.2c0,1.2,0.1,1.9,0.8,1.9c0.7,0,0.8-0.7,0.8-1.9V241.2z"/>
	<path d="M-95.5,244.6v-0.8h0.7v0.8H-95.5z"/>
	<path d="M-94,244.6V244l1.8-3c0.2-0.3,0.3-0.7,0.3-1.1c0-0.4-0.2-0.7-0.7-0.7c-0.4,0-0.7,0.2-0.7,0.6c0,0.1,0,0.3,0,0.4h-0.7
		c0-0.1,0-0.2,0-0.3c0.1-0.8,0.6-1.2,1.4-1.2c0.9,0,1.4,0.4,1.4,1.3c0,0.6-0.3,1.2-0.6,1.6l-1.5,2.4h2.2v0.5H-94z"/>
</g>
<g class="st4">
	<path d="M-92.5,259.3c-1.3,0-1.4-1-1.4-2.5v-1.1c0-1.5,0.2-2.4,1.4-2.4s1.4,0.9,1.4,2.4v1.1C-91.1,258.3-91.2,259.3-92.5,259.3z
		 M-91.7,255.8c0-1.3-0.1-1.9-0.8-1.9c-0.7,0-0.8,0.7-0.8,1.9v1.2c0,1.2,0.1,1.9,0.8,1.9c0.7,0,0.8-0.7,0.8-1.9V255.8z"/>
</g>
<g class="st4">
	<path d="M207.1,186.3c-0.9,0-1.3-0.4-1.3-1.4h0.7c0,0.5,0.1,0.9,0.7,0.9c0.6,0,0.8-0.7,0.8-2v-0.3c-0.2,0.3-0.5,0.5-1,0.5
		c-1,0-1.2-0.8-1.2-1.8c0-1,0.3-1.8,1.4-1.8c1.3,0,1.4,1,1.4,2.3v0.8C208.6,185.3,208.4,186.3,207.1,186.3z M207.2,180.8
		c-0.7,0-0.8,0.7-0.8,1.3c0,0.7,0.1,1.3,0.7,1.3c0.8,0,0.8-0.8,0.8-1.4C207.9,181.5,207.8,180.8,207.2,180.8z"/>
	<path d="M209.3,186.2v-0.6l1.8-3c0.2-0.3,0.3-0.7,0.3-1.1c0-0.4-0.2-0.7-0.7-0.7c-0.4,0-0.7,0.2-0.7,0.6c0,0.1,0,0.3,0,0.4h-0.7
		c0-0.1,0-0.2,0-0.3c0.1-0.8,0.6-1.2,1.4-1.2c0.9,0,1.4,0.4,1.4,1.3c0,0.6-0.3,1.2-0.6,1.6l-1.5,2.4h2.2v0.5H209.3z"/>
</g>
<g class="st4">
	<path d="M207.1,200.9c-0.9,0-1.3-0.4-1.3-1.4h0.7c0,0.5,0.1,0.9,0.7,0.9c0.6,0,0.8-0.7,0.8-2v-0.3c-0.2,0.3-0.5,0.5-1,0.5
		c-1,0-1.2-0.8-1.2-1.8c0-1,0.3-1.8,1.4-1.8c1.3,0,1.4,1,1.4,2.3v0.8C208.6,199.9,208.4,200.9,207.1,200.9z M207.2,195.4
		c-0.7,0-0.8,0.7-0.8,1.3c0,0.7,0.1,1.3,0.7,1.3c0.8,0,0.8-0.8,0.8-1.4C207.9,196.1,207.8,195.4,207.2,195.4z"/>
	<path d="M210.8,200.9c-1.3,0-1.4-1-1.4-2.5v-1.1c0-1.5,0.2-2.4,1.4-2.4c1.3,0,1.4,0.9,1.4,2.4v1.1
		C212.2,199.9,212.1,200.9,210.8,200.9z M211.6,197.4c0-1.3-0.1-1.9-0.8-1.9c-0.7,0-0.8,0.7-0.8,1.9v1.2c0,1.2,0.1,1.9,0.8,1.9
		c0.7,0,0.8-0.7,0.8-1.9V197.4z"/>
</g>
<g class="st4">
	<path d="M207.2,215.5c-1,0-1.4-0.6-1.4-1.6c0-0.6,0.1-1.3,0.8-1.5c-0.6-0.2-0.7-0.7-0.7-1.3c0-1,0.4-1.6,1.4-1.6
		c1,0,1.4,0.5,1.4,1.5c0,0.6-0.1,1.2-0.8,1.4c0.7,0.1,0.8,0.8,0.8,1.4C208.6,214.9,208.3,215.5,207.2,215.5z M207.2,212.7
		c-0.7,0-0.8,0.6-0.8,1.2c0,0.6,0.1,1.2,0.8,1.2c0.7,0,0.8-0.6,0.8-1.2C208,213.2,207.9,212.7,207.2,212.7z M207.2,210
		c-0.6,0-0.8,0.5-0.8,1.1c0,0.5,0.2,1.1,0.7,1.1c0.6,0,0.7-0.5,0.7-1C207.9,210.6,207.9,210,207.2,210z"/>
	<path d="M210.8,215.5c-1,0-1.4-0.6-1.4-1.6c0-0.6,0.1-1.3,0.8-1.5c-0.6-0.2-0.7-0.7-0.7-1.3c0-1,0.4-1.6,1.4-1.6
		c1,0,1.4,0.5,1.4,1.5c0,0.6-0.1,1.2-0.8,1.4c0.7,0.1,0.8,0.8,0.8,1.4C212.3,214.9,211.9,215.5,210.8,215.5z M210.8,212.7
		c-0.7,0-0.8,0.6-0.8,1.2c0,0.6,0.1,1.2,0.8,1.2c0.7,0,0.8-0.6,0.8-1.2C211.6,213.2,211.5,212.7,210.8,212.7z M210.8,210
		c-0.6,0-0.8,0.5-0.8,1.1c0,0.5,0.2,1.1,0.7,1.1c0.6,0,0.7-0.5,0.7-1C211.5,210.6,211.5,210,210.8,210z"/>
</g>
<g class="st4">
	<path d="M207.2,230.1c-1,0-1.4-0.6-1.4-1.6c0-0.6,0.1-1.3,0.8-1.5c-0.6-0.2-0.7-0.7-0.7-1.3c0-1,0.4-1.6,1.4-1.6
		c1,0,1.4,0.5,1.4,1.5c0,0.6-0.1,1.2-0.8,1.4c0.7,0.1,0.8,0.8,0.8,1.4C208.6,229.5,208.3,230.1,207.2,230.1z M207.2,227.3
		c-0.7,0-0.8,0.6-0.8,1.2c0,0.6,0.1,1.2,0.8,1.2c0.7,0,0.8-0.6,0.8-1.2C208,227.8,207.9,227.3,207.2,227.3z M207.2,224.6
		c-0.6,0-0.8,0.5-0.8,1.1c0,0.5,0.2,1.1,0.7,1.1c0.6,0,0.7-0.5,0.7-1C207.9,225.2,207.9,224.6,207.2,224.6z"/>
	<path d="M210.8,230.1c-1.3,0-1.4-1.2-1.4-2.4v-1.1c0-1.1,0.1-2.4,1.5-2.4c0.9,0,1.3,0.4,1.3,1.3h-0.7c0-0.5-0.2-0.8-0.7-0.8
		c-0.8,0-0.8,1-0.8,2v0.3c0.2-0.4,0.5-0.5,1-0.5c1,0,1.2,0.8,1.2,1.8C212.3,229.2,212.1,230.1,210.8,230.1z M210.9,226.9
		c-0.7,0-0.8,0.7-0.8,1.4c0,0.7,0.1,1.4,0.8,1.4c0.7,0,0.8-0.8,0.8-1.4C211.6,227.5,211.5,226.9,210.9,226.9z"/>
</g>
<g class="st4">
	<path d="M207.2,244.7c-1,0-1.4-0.6-1.4-1.6c0-0.6,0.1-1.3,0.8-1.5c-0.6-0.2-0.7-0.7-0.7-1.3c0-1,0.4-1.6,1.4-1.6
		c1,0,1.4,0.5,1.4,1.5c0,0.6-0.1,1.2-0.8,1.4c0.7,0.1,0.8,0.8,0.8,1.4C208.6,244.1,208.3,244.7,207.2,244.7z M207.2,241.9
		c-0.7,0-0.8,0.6-0.8,1.2c0,0.6,0.1,1.2,0.8,1.2c0.7,0,0.8-0.6,0.8-1.2C208,242.4,207.9,241.9,207.2,241.9z M207.2,239.2
		c-0.6,0-0.8,0.5-0.8,1.1c0,0.5,0.2,1.1,0.7,1.1c0.6,0,0.7-0.5,0.7-1C207.9,239.8,207.9,239.2,207.2,239.2z"/>
	<path d="M211.8,243.2v1.4h-0.6v-1.4h-1.9v-0.6l1.6-3.8h0.9v3.9h0.6v0.5H211.8z M211.2,239.4l-1.4,3.3h1.4V239.4z"/>
</g>
<g class="st4">
	<path d="M207.2,259.3c-1,0-1.4-0.6-1.4-1.6c0-0.6,0.1-1.3,0.8-1.5c-0.6-0.2-0.7-0.7-0.7-1.3c0-1,0.4-1.6,1.4-1.6
		c1,0,1.4,0.5,1.4,1.5c0,0.6-0.1,1.2-0.8,1.4c0.7,0.1,0.8,0.8,0.8,1.4C208.6,258.7,208.3,259.3,207.2,259.3z M207.2,256.5
		c-0.7,0-0.8,0.6-0.8,1.2c0,0.6,0.1,1.2,0.8,1.2c0.7,0,0.8-0.6,0.8-1.2C208,257,207.9,256.5,207.2,256.5z M207.2,253.8
		c-0.6,0-0.8,0.5-0.8,1.1c0,0.5,0.2,1.1,0.7,1.1c0.6,0,0.7-0.5,0.7-1C207.9,254.4,207.9,253.8,207.2,253.8z"/>
	<path d="M209.3,259.2v-0.6l1.8-3c0.2-0.3,0.3-0.7,0.3-1.1c0-0.4-0.2-0.7-0.7-0.7c-0.4,0-0.7,0.2-0.7,0.6c0,0.1,0,0.3,0,0.4h-0.7
		c0-0.1,0-0.2,0-0.3c0.1-0.8,0.6-1.2,1.4-1.2c0.9,0,1.4,0.4,1.4,1.3c0,0.6-0.3,1.2-0.6,1.6l-1.5,2.4h2.2v0.5H209.3z"/>
</g>
<g class="st4">
	<path d="M-87,267.5c-1.3,0-1.4-1-1.4-2.5V264c0-1.5,0.2-2.4,1.4-2.4s1.4,0.9,1.4,2.4v1.1C-85.6,266.5-85.7,267.5-87,267.5z
		 M-86.2,264c0-1.3-0.1-1.9-0.8-1.9c-0.7,0-0.8,0.7-0.8,1.9v1.2c0,1.2,0.1,1.9,0.8,1.9c0.7,0,0.8-0.7,0.8-1.9V264z"/>
</g>
<g class="st4">
	<path d="M-40.6,267.4v-0.6l1.8-3c0.2-0.3,0.3-0.7,0.3-1.1c0-0.4-0.2-0.7-0.7-0.7c-0.4,0-0.7,0.2-0.7,0.6c0,0.1,0,0.3,0,0.4h-0.7
		c0-0.1,0-0.2,0-0.3c0.1-0.8,0.6-1.2,1.4-1.2c0.9,0,1.4,0.4,1.4,1.3c0,0.6-0.3,1.2-0.6,1.6l-1.5,2.4h2.2v0.5H-40.6z"/>
	<path d="M-35.5,267.5c-1.3,0-1.4-1-1.4-2.5V264c0-1.5,0.2-2.4,1.4-2.4s1.4,0.9,1.4,2.4v1.1C-34,266.5-34.2,267.5-35.5,267.5z
		 M-34.7,264c0-1.3-0.1-1.9-0.8-1.9c-0.7,0-0.8,0.7-0.8,1.9v1.2c0,1.2,0.1,1.9,0.8,1.9c0.7,0,0.8-0.7,0.8-1.9V264z"/>
</g>
<g class="st4">
	<path d="M12.1,266v1.4h-0.6V266H9.6v-0.6l1.6-3.8h0.9v3.9h0.6v0.5H12.1z M11.5,262.2l-1.4,3.3h1.4V262.2z"/>
	<path d="M14.8,267.5c-1.3,0-1.4-1-1.4-2.5V264c0-1.5,0.2-2.4,1.4-2.4s1.4,0.9,1.4,2.4v1.1C16.2,266.5,16.1,267.5,14.8,267.5z
		 M15.5,264c0-1.3-0.1-1.9-0.8-1.9c-0.7,0-0.8,0.7-0.8,1.9v1.2c0,1.2,0.1,1.9,0.8,1.9c0.7,0,0.8-0.7,0.8-1.9V264z"/>
</g>
<g class="st4">
	<path d="M61.1,267.5c-1.3,0-1.4-1.2-1.4-2.4V264c0-1.1,0.1-2.4,1.5-2.4c0.9,0,1.3,0.4,1.3,1.3h-0.7c0-0.5-0.2-0.8-0.7-0.8
		c-0.8,0-0.8,1-0.8,2v0.3c0.2-0.4,0.5-0.5,1-0.5c1,0,1.2,0.8,1.2,1.8C62.5,266.6,62.3,267.5,61.1,267.5z M61.1,264.3
		c-0.7,0-0.8,0.7-0.8,1.4c0,0.7,0.1,1.4,0.8,1.4c0.7,0,0.8-0.8,0.8-1.4C61.9,264.9,61.8,264.3,61.1,264.3z"/>
	<path d="M64.7,267.5c-1.3,0-1.4-1-1.4-2.5V264c0-1.5,0.2-2.4,1.4-2.4c1.3,0,1.4,0.9,1.4,2.4v1.1C66.1,266.5,66,267.5,64.7,267.5z
		 M65.5,264c0-1.3-0.1-1.9-0.8-1.9c-0.7,0-0.8,0.7-0.8,1.9v1.2c0,1.2,0.1,1.9,0.8,1.9c0.7,0,0.8-0.7,0.8-1.9V264z"/>
</g>
<g class="st4">
	<path d="M110.5,267.5c-1,0-1.4-0.6-1.4-1.6c0-0.6,0.1-1.3,0.8-1.5c-0.6-0.2-0.7-0.7-0.7-1.3c0-1,0.4-1.6,1.4-1.6
		c1,0,1.4,0.5,1.4,1.5c0,0.6-0.1,1.2-0.8,1.4c0.7,0.1,0.8,0.8,0.8,1.4C112,266.9,111.6,267.5,110.5,267.5z M110.6,264.7
		c-0.7,0-0.8,0.6-0.8,1.2c0,0.6,0.1,1.2,0.8,1.2c0.7,0,0.8-0.6,0.8-1.2C111.3,265.3,111.2,264.7,110.6,264.7z M110.6,262.1
		c-0.6,0-0.8,0.5-0.8,1.1c0,0.5,0.2,1.1,0.7,1.1c0.6,0,0.7-0.5,0.7-1C111.3,262.6,111.2,262.1,110.6,262.1z"/>
	<path d="M114.2,267.5c-1.3,0-1.4-1-1.4-2.5V264c0-1.5,0.2-2.4,1.4-2.4c1.3,0,1.4,0.9,1.4,2.4v1.1
		C115.6,266.5,115.5,267.5,114.2,267.5z M114.9,264c0-1.3-0.1-1.9-0.8-1.9c-0.7,0-0.8,0.7-0.8,1.9v1.2c0,1.2,0.1,1.9,0.8,1.9
		c0.7,0,0.8-0.7,0.8-1.9V264z"/>
</g>
<g class="st4">
	<path d="M158.6,267.4v-5c-0.3,0.3-0.6,0.5-0.9,0.7v-0.7c0.3-0.2,0.8-0.6,1-0.9h0.6v5.8H158.6z"/>
	<path d="M162.3,267.5c-1.3,0-1.4-1-1.4-2.5V264c0-1.5,0.2-2.4,1.4-2.4c1.3,0,1.4,0.9,1.4,2.4v1.1
		C163.7,266.5,163.6,267.5,162.3,267.5z M163.1,264c0-1.3-0.1-1.9-0.8-1.9c-0.7,0-0.8,0.7-0.8,1.9v1.2c0,1.2,0.1,1.9,0.8,1.9
		c0.7,0,0.8-0.7,0.8-1.9V264z"/>
	<path d="M165.9,267.5c-1.3,0-1.4-1-1.4-2.5V264c0-1.5,0.2-2.4,1.4-2.4c1.3,0,1.4,0.9,1.4,2.4v1.1
		C167.3,266.5,167.2,267.5,165.9,267.5z M166.7,264c0-1.3-0.1-1.9-0.8-1.9c-0.7,0-0.8,0.7-0.8,1.9v1.2c0,1.2,0.1,1.9,0.8,1.9
		c0.7,0,0.8-0.7,0.8-1.9V264z"/>
</g>
<rect x="-87" y="182.9" class="st5" width="288.1" height="74.1"/>
<g class="st4">
	<path d="M43.6,273.3v5.9h-0.8v-5.9h-1.5v-0.6h3.8v0.6H43.6z"/>
	<path d="M45.5,273.5v-0.8h0.8v0.8H45.5z M45.6,279.2v-4.5h0.7v4.5H45.6z"/>
	<path d="M51.8,279.2v-3.1c0-0.5,0-1-0.6-1c-0.7,0-0.8,0.7-0.8,1.2v2.9h-0.7v-3.1c0-0.4,0-1-0.6-1c-0.6,0-0.8,0.6-0.8,1.3v2.8h-0.7
		v-3.8c0-0.3,0-0.5,0-0.8h0.7v0.6c0.2-0.4,0.6-0.7,1.1-0.7c0.7,0,0.9,0.4,1,0.7c0.2-0.4,0.6-0.7,1.1-0.7c0.9,0,1.1,0.5,1.1,1.5v3.1
		H51.8z"/>
	<path d="M54.2,277v0.3c0,0.7,0.1,1.4,0.8,1.4c0.7,0,0.8-0.5,0.8-1h0.7c0,0.9-0.4,1.5-1.5,1.5c-1.4,0-1.6-1-1.6-2.2
		c0-1.2,0.1-2.5,1.6-2.5c1.5,0,1.5,1.2,1.5,2.3v0.2H54.2z M55.9,276c0-0.5-0.2-0.9-0.8-0.9c-0.6,0-0.8,0.4-0.8,0.9
		c0,0.2,0,0.4,0,0.6h1.7C55.9,276.3,55.9,276.2,55.9,276z"/>
	<path d="M57.9,280.1h-0.5l0.3-1.8h0.8L57.9,280.1z"/>
	<path d="M66,279.2v-3.1c0-0.5,0-1-0.6-1c-0.7,0-0.8,0.7-0.8,1.2v2.9h-0.7v-3.1c0-0.4,0-1-0.6-1c-0.6,0-0.8,0.6-0.8,1.3v2.8h-0.7
		v-3.8c0-0.3,0-0.5,0-0.8h0.7v0.6c0.2-0.4,0.6-0.7,1.1-0.7c0.7,0,0.9,0.4,1,0.7c0.2-0.4,0.6-0.7,1.1-0.7c0.9,0,1.1,0.5,1.1,1.5v3.1
		H66z"/>
	<path d="M67.9,273.5v-0.8h0.8v0.8H67.9z M67.9,279.2v-4.5h0.7v4.5H67.9z"/>
	<path d="M72.1,279.2v-2.9c0-0.5,0-1.2-0.7-1.2c-0.7,0-0.9,0.8-0.9,1.4v2.7h-0.7v-3.5c0-0.3,0-0.7,0-1h0.7v0.6
		c0.2-0.4,0.6-0.7,1.2-0.7c0.9,0,1.2,0.6,1.2,1.4v3.2H72.1z"/>
</g>
<rect x="-17.3" y="284.6" class="st6" width="147.5" height="14.9"/>
<line class="st2" x1="-10.6" y1="292.1" x2="-4" y2="292.1"/>
<g class="st4">
	<path d="M-0.1,289.9v5.2h-0.6v-5.2H-2v-0.6h3.2v0.6H-0.1z"/>
	<path d="M1.7,293.2v0.3c0,0.7,0.1,1.3,0.7,1.3c0.6,0,0.7-0.4,0.7-0.9h0.6c0,0.8-0.4,1.4-1.3,1.4c-1.2,0-1.3-0.9-1.3-1.9
		c0-1.1,0.1-2.3,1.4-2.3c1.2,0,1.3,1,1.3,2v0.2H1.7z M3.1,292.3c0-0.4-0.2-0.8-0.6-0.8c-0.5,0-0.7,0.3-0.7,0.8c0,0.2,0,0.3,0,0.5
		h1.4C3.1,292.6,3.1,292.4,3.1,292.3z"/>
	<path d="M8.2,295.1v-2.7c0-0.4,0-0.9-0.5-0.9c-0.6,0-0.7,0.6-0.7,1.1v2.5H6.3v-2.7c0-0.4,0-0.9-0.5-0.9c-0.5,0-0.7,0.6-0.7,1.2v2.5
		H4.5v-3.3c0-0.2,0-0.5,0-0.7h0.6v0.5c0.2-0.3,0.5-0.6,0.9-0.6c0.6,0,0.8,0.3,0.9,0.6c0.2-0.3,0.5-0.6,1-0.6c0.7,0,0.9,0.5,0.9,1.4
		v2.7H8.2z"/>
	<path d="M11.3,295.2c-0.4,0-0.7-0.1-0.9-0.5v1.9H9.8V292c0-0.2,0-0.7,0-0.9h0.6v0.5c0.2-0.4,0.5-0.6,1-0.6c1.1,0,1.1,1.1,1.1,2
		C12.4,294,12.4,295.2,11.3,295.2z M11.1,291.5c-0.7,0-0.8,0.8-0.8,1.7c0,0.7,0,1.6,0.8,1.6c0.7,0,0.7-1.1,0.7-1.7
		C11.8,292.4,11.8,291.5,11.1,291.5z"/>
	<path d="M13.8,293.2v0.3c0,0.7,0.1,1.3,0.7,1.3c0.6,0,0.7-0.4,0.7-0.9h0.6c0,0.8-0.4,1.4-1.3,1.4c-1.2,0-1.3-0.9-1.3-1.9
		c0-1.1,0.1-2.3,1.4-2.3c1.2,0,1.3,1,1.3,2v0.2H13.8z M15.2,292.3c0-0.4-0.2-0.8-0.6-0.8c-0.5,0-0.7,0.3-0.7,0.8c0,0.2,0,0.3,0,0.5
		h1.4C15.2,292.6,15.2,292.4,15.2,292.3z"/>
	<path d="M18.1,291.6c-0.6,0-0.9,0.4-0.9,1v2.5h-0.6v-3.3c0-0.2,0-0.6,0-0.7h0.6v0.5c0.2-0.4,0.5-0.6,1-0.6h0.1v0.6
		C18.2,291.6,18.1,291.6,18.1,291.6z"/>
	<path d="M20.5,295.1l0-0.5c-0.3,0.4-0.5,0.6-1,0.6c-0.7,0-1-0.5-1-1.2c0-1.3,1-1.4,2-1.4v-0.2c0-0.5,0-1-0.6-1
		c-0.4,0-0.6,0.2-0.6,0.6v0h-0.6v0c0-0.8,0.6-1.1,1.3-1.1c0.9,0,1.2,0.4,1.2,1.3v1.5c0,0.4,0,0.9,0,1.3H20.5z M20.5,293.1h-0.2
		c-0.6,0-1.2,0.1-1.2,0.9c0,0.4,0.1,0.8,0.6,0.8c0.6,0,0.8-0.6,0.8-1.2V293.1z"/>
	<path d="M23,295.2c-0.7,0-0.9-0.3-0.9-1v-2.6h-0.6v-0.5h0.6v-0.7l0.6-0.3v1h0.7v0.5h-0.7v2.5c0,0.5,0.1,0.6,0.4,0.6
		c0.1,0,0.2,0,0.3,0v0.5C23.3,295.1,23.2,295.2,23,295.2z"/>
	<path d="M26.1,295.1l0-0.5c-0.2,0.4-0.5,0.6-1,0.6c-0.8,0-1-0.5-1-1.2v-2.9h0.6v2.6c0,0.5,0,1,0.6,1c0.6,0,0.8-0.6,0.8-1.2v-2.4
		h0.6v3.1c0,0.3,0,0.6,0,0.9H26.1z"/>
	<path d="M29.2,291.6c-0.6,0-0.9,0.4-0.9,1v2.5h-0.6v-3.3c0-0.2,0-0.6,0-0.7h0.6v0.5c0.2-0.4,0.5-0.6,1-0.6h0.1v0.6
		C29.3,291.6,29.2,291.6,29.2,291.6z"/>
	<path d="M30.3,293.2v0.3c0,0.7,0.1,1.3,0.7,1.3c0.6,0,0.7-0.4,0.7-0.9h0.6c0,0.8-0.4,1.4-1.3,1.4c-1.2,0-1.3-0.9-1.3-1.9
		c0-1.1,0.1-2.3,1.4-2.3c1.2,0,1.3,1,1.3,2v0.2H30.3z M31.7,292.3c0-0.4-0.2-0.8-0.6-0.8c-0.5,0-0.7,0.3-0.7,0.8c0,0.2,0,0.3,0,0.5
		h1.4C31.7,292.6,31.7,292.4,31.7,292.3z"/>
	<path d="M33.4,295.9H33l0.3-1.6h0.7L33.4,295.9z"/>
</g>
<g class="st4">
	<path d="M39.6,295.1l0-0.5c-0.2,0.4-0.5,0.5-0.9,0.5c-1.1,0-1.2-1.2-1.2-2.1c0-1,0.2-2,1.2-2c0.4,0,0.7,0.2,0.9,0.5v-2.1h0.6v5
		c0,0.2,0,0.6,0,0.8H39.6z M38.8,291.5c-0.7,0-0.7,0.9-0.7,1.6c0,0.9,0.1,1.7,0.7,1.7c0.7,0,0.8-0.8,0.8-1.6
		C39.6,292.3,39.5,291.5,38.8,291.5z"/>
	<path d="M41.6,293.2v0.3c0,0.7,0.1,1.3,0.7,1.3c0.6,0,0.7-0.4,0.7-0.9h0.6c0,0.8-0.4,1.4-1.3,1.4c-1.2,0-1.3-0.9-1.3-1.9
		c0-1.1,0.1-2.3,1.4-2.3c1.2,0,1.3,1,1.3,2v0.2H41.6z M43,292.3c0-0.4-0.2-0.8-0.6-0.8c-0.5,0-0.7,0.3-0.7,0.8c0,0.2,0,0.3,0,0.5H43
		C43,292.6,43,292.4,43,292.3z"/>
	<path d="M47,291.8v3.5c0,1-0.4,1.4-1.4,1.4c-0.8,0-1.2-0.4-1.2-1.2h0.6c0,0.4,0.1,0.7,0.6,0.7c0.6,0,0.7-0.5,0.7-1.1v-0.6
		c-0.2,0.3-0.5,0.5-0.9,0.5c-1.1,0-1.2-1-1.2-1.9c0-1,0.1-2.1,1.2-2.1c0.5,0,0.7,0.2,0.9,0.6v-0.5H47C47,291.3,47,291.5,47,291.8z
		 M45.7,291.5c-0.7,0-0.7,0.9-0.7,1.7c0,0.7,0,1.5,0.7,1.5c0.8,0,0.8-1,0.8-1.7C46.4,292.3,46.4,291.5,45.7,291.5z"/>
	<path d="M49.6,295.2c-1.6,0-1.6-1.2-1.6-3c0-1.6,0-3,1.7-3c1.1,0,1.5,0.6,1.5,1.6v0.1h-0.7v-0.1c0-0.6-0.1-1.1-0.8-1.1
		c-0.9,0-1,1-1,2.5c0,1.7,0,2.5,0.9,2.5c0.7,0,0.9-0.5,0.9-1.2v-0.1h0.7v0.1C51.1,294.6,50.6,295.2,49.6,295.2z"/>
</g>
<line class="st3" x1="63.6" y1="292.1" x2="70.3" y2="292.1"/>
<g class="st4">
	<path d="M75.1,295.1c0-0.2-0.1-0.4-0.1-0.6c0-0.2,0-0.5,0-0.8c0-1,0-1.3-0.9-1.3h-0.6v2.7h-0.6v-5.8h1.5c1,0,1.5,0.3,1.5,1.4
		c0,0.7-0.2,1.2-0.9,1.4c0.6,0.1,0.7,0.4,0.8,0.9c0,0.3,0,0.6,0,1c0,0.3,0,0.5,0,0.7c0,0.1,0,0.2,0,0.4H75.1z M74.2,289.9h-0.7v2H74
		c0.8,0,1.1-0.2,1.1-1.1C75.1,290.1,74.8,289.9,74.2,289.9z"/>
	<path d="M77.2,293.2v0.3c0,0.7,0.1,1.3,0.7,1.3c0.6,0,0.7-0.4,0.7-0.9h0.6c0,0.8-0.4,1.4-1.3,1.4c-1.2,0-1.3-0.9-1.3-1.9
		c0-1.1,0.1-2.3,1.4-2.3c1.2,0,1.3,1,1.3,2v0.2H77.2z M78.5,292.3c0-0.4-0.2-0.8-0.6-0.8c-0.5,0-0.7,0.3-0.7,0.8c0,0.2,0,0.3,0,0.5
		h1.4C78.6,292.6,78.6,292.4,78.5,292.3z"/>
	<path d="M80.9,295.2c-0.7,0-1.1-0.3-1.2-1c0-0.1,0-0.2,0-0.3h0.6c0,0.1,0,0.2,0,0.2c0,0.4,0.2,0.6,0.6,0.6c0.4,0,0.6-0.2,0.6-0.6
		c0-0.5-0.3-0.6-0.7-0.9l-0.2-0.1c-0.4-0.2-0.8-0.5-0.8-1.1c0-0.7,0.5-1,1.1-1c0.7,0,1,0.3,1.1,0.9c0,0.1,0,0.2,0,0.3h-0.6
		c0-0.1,0-0.2,0-0.3c0-0.3-0.2-0.5-0.5-0.5c-0.3,0-0.5,0.2-0.5,0.6c0,0.3,0.2,0.5,0.6,0.7l0.2,0.1c0.5,0.3,0.9,0.5,0.9,1.2
		C82.1,294.8,81.7,295.2,80.9,295.2z"/>
	<path d="M82.9,290.1v-0.7h0.7v0.7H82.9z M82.9,295.1v-4h0.6v4H82.9z"/>
	<path d="M85.5,295.2c-0.7,0-1.1-0.3-1.2-1c0-0.1,0-0.2,0-0.3h0.6c0,0.1,0,0.2,0,0.2c0,0.4,0.2,0.6,0.6,0.6c0.4,0,0.6-0.2,0.6-0.6
		c0-0.5-0.3-0.6-0.7-0.9l-0.2-0.1c-0.4-0.2-0.8-0.5-0.8-1.1c0-0.7,0.5-1,1.1-1c0.7,0,1,0.3,1.1,0.9c0,0.1,0,0.2,0,0.3h-0.6
		c0-0.1,0-0.2,0-0.3c0-0.3-0.2-0.5-0.5-0.5c-0.3,0-0.5,0.2-0.5,0.6c0,0.3,0.2,0.5,0.6,0.7l0.2,0.1c0.5,0.3,0.9,0.5,0.9,1.2
		C86.7,294.8,86.2,295.2,85.5,295.2z"/>
	<path d="M88.5,295.2c-0.7,0-0.9-0.3-0.9-1v-2.6h-0.6v-0.5h0.6v-0.7l0.6-0.3v1h0.7v0.5h-0.7v2.5c0,0.5,0.1,0.6,0.4,0.6
		c0.1,0,0.2,0,0.3,0v0.5C88.8,295.1,88.7,295.2,88.5,295.2z"/>
	<path d="M89.6,290.1v-0.7h0.7v0.7H89.6z M89.6,295.1v-4h0.6v4H89.6z"/>
	<path d="M92.6,295.1h-0.7l-1.1-4h0.6l0.8,3.4l0.8-3.4h0.6L92.6,295.1z"/>
	<path d="M94.3,290.1v-0.7h0.7v0.7H94.3z M94.3,295.1v-4h0.6v4H94.3z"/>
	<path d="M97,295.2c-0.7,0-0.9-0.3-0.9-1v-2.6h-0.6v-0.5h0.6v-0.7l0.6-0.3v1h0.7v0.5h-0.7v2.5c0,0.5,0.1,0.6,0.4,0.6
		c0.1,0,0.2,0,0.3,0v0.5C97.2,295.1,97.1,295.2,97,295.2z"/>
	<path d="M98.9,296.7h-0.6l0.4-1.5l-1.2-4h0.6l0.8,3.2l0.8-3.2h0.6L98.9,296.7z"/>
	<path d="M101,295.9h-0.5l0.3-1.6h0.7L101,295.9z"/>
</g>
<g class="st4">
	<path d="M105.9,295.2c-1.2,0-1.3-0.8-1.3-2.1c0-1.2,0.1-2.1,1.4-2.1c1.2,0,1.3,0.9,1.3,2.1C107.2,294.4,107,295.2,105.9,295.2z
		 M106.6,292.9c0-0.6,0-1.4-0.7-1.4c-0.8,0-0.7,0.9-0.7,1.5v0.6c0,0.5,0,1.3,0.7,1.3c0.7,0,0.7-0.7,0.7-1.2V292.9z"/>
	<path d="M110.1,295.1v-2.6c0-0.5,0-1.1-0.6-1.1c-0.6,0-0.8,0.5-0.8,1.2v2.4h-0.6v-5.8h0.6v2.2c0.2-0.3,0.5-0.6,1-0.6
		c0.8,0,1,0.5,1,1.3v2.9H110.1z"/>
	<path d="M115.3,295.1v-2.7c0-0.4,0-0.9-0.5-0.9c-0.6,0-0.7,0.6-0.7,1.1v2.5h-0.6v-2.7c0-0.4,0-0.9-0.5-0.9c-0.5,0-0.7,0.6-0.7,1.2
		v2.5h-0.6v-3.3c0-0.2,0-0.5,0-0.7h0.6v0.5c0.2-0.3,0.5-0.6,0.9-0.6c0.6,0,0.8,0.3,0.9,0.6c0.2-0.3,0.5-0.6,1-0.6
		c0.7,0,0.9,0.5,0.9,1.4v2.7H115.3z"/>
	<path d="M117,295.1v-0.8h0.6v0.8H117z"/>
	<path d="M122.3,295.1v-2.7c0-0.4,0-0.9-0.5-0.9c-0.6,0-0.7,0.6-0.7,1.1v2.5h-0.6v-2.7c0-0.4,0-0.9-0.5-0.9c-0.5,0-0.7,0.6-0.7,1.2
		v2.5h-0.6v-3.3c0-0.2,0-0.5,0-0.7h0.6v0.5c0.2-0.3,0.5-0.6,0.9-0.6c0.6,0,0.8,0.3,0.9,0.6c0.2-0.3,0.5-0.6,1-0.6
		c0.7,0,0.9,0.5,0.9,1.4v2.7H122.3z"/>
</g>
<rect x="-17.3" y="284.6" class="st7" width="147.5" height="14.9"/>
<g class="st4">
	<path d="M-87,375.8c-1.3,0-1.4-1-1.4-2.5v-1.1c0-1.5,0.2-2.4,1.4-2.4s1.4,0.9,1.4,2.4v1.1C-85.6,374.8-85.7,375.8-87,375.8z
		 M-86.2,372.2c0-1.3-0.1-1.9-0.8-1.9c-0.7,0-0.8,0.7-0.8,1.9v1.2c0,1.2,0.1,1.9,0.8,1.9c0.7,0,0.8-0.7,0.8-1.9V372.2z"/>
</g>
<g class="st4">
	<path d="M-40.6,375.7v-0.6l1.8-3c0.2-0.3,0.3-0.7,0.3-1.1c0-0.4-0.2-0.7-0.7-0.7c-0.4,0-0.7,0.2-0.7,0.6c0,0.1,0,0.3,0,0.4h-0.7
		c0-0.1,0-0.2,0-0.3c0.1-0.8,0.6-1.2,1.4-1.2c0.9,0,1.4,0.4,1.4,1.3c0,0.6-0.3,1.2-0.6,1.6l-1.5,2.4h2.2v0.5H-40.6z"/>
	<path d="M-35.5,375.8c-1.3,0-1.4-1-1.4-2.5v-1.1c0-1.5,0.2-2.4,1.4-2.4s1.4,0.9,1.4,2.4v1.1C-34.1,374.8-34.2,375.8-35.5,375.8z
		 M-34.7,372.2c0-1.3-0.1-1.9-0.8-1.9c-0.7,0-0.8,0.7-0.8,1.9v1.2c0,1.2,0.1,1.9,0.8,1.9c0.7,0,0.8-0.7,0.8-1.9V372.2z"/>
</g>
<g class="st4">
	<path d="M12.1,374.3v1.4h-0.6v-1.4H9.6v-0.6l1.6-3.8h0.9v3.9h0.6v0.5H12.1z M11.5,370.5l-1.4,3.3h1.4V370.5z"/>
	<path d="M14.8,375.8c-1.3,0-1.4-1-1.4-2.5v-1.1c0-1.5,0.2-2.4,1.4-2.4s1.4,0.9,1.4,2.4v1.1C16.2,374.8,16.1,375.8,14.8,375.8z
		 M15.5,372.2c0-1.3-0.1-1.9-0.8-1.9c-0.7,0-0.8,0.7-0.8,1.9v1.2c0,1.2,0.1,1.9,0.8,1.9c0.7,0,0.8-0.7,0.8-1.9V372.2z"/>
</g>
<g class="st4">
	<path d="M61.1,375.8c-1.3,0-1.4-1.2-1.4-2.4v-1.1c0-1.1,0.1-2.4,1.5-2.4c0.9,0,1.3,0.4,1.3,1.3h-0.7c0-0.5-0.2-0.8-0.7-0.8
		c-0.8,0-0.8,1-0.8,2v0.3c0.2-0.4,0.5-0.5,1-0.5c1,0,1.2,0.8,1.2,1.8C62.5,374.9,62.3,375.8,61.1,375.8z M61.1,372.6
		c-0.7,0-0.8,0.7-0.8,1.4c0,0.7,0.1,1.4,0.8,1.4c0.7,0,0.8-0.8,0.8-1.4C61.9,373.2,61.8,372.6,61.1,372.6z"/>
	<path d="M64.7,375.8c-1.3,0-1.4-1-1.4-2.5v-1.1c0-1.5,0.2-2.4,1.4-2.4s1.4,0.9,1.4,2.4v1.1C66.1,374.8,66,375.8,64.7,375.8z
		 M65.5,372.2c0-1.3-0.1-1.9-0.8-1.9c-0.7,0-0.8,0.7-0.8,1.9v1.2c0,1.2,0.1,1.9,0.8,1.9c0.7,0,0.8-0.7,0.8-1.9V372.2z"/>
</g>
<g class="st4">
	<path d="M110.5,375.8c-1,0-1.4-0.6-1.4-1.6c0-0.6,0.1-1.3,0.8-1.5c-0.6-0.2-0.7-0.7-0.7-1.3c0-1,0.4-1.6,1.4-1.6
		c1,0,1.4,0.5,1.4,1.5c0,0.6-0.1,1.2-0.8,1.4c0.7,0.1,0.8,0.8,0.8,1.4C112,375.1,111.6,375.8,110.5,375.8z M110.6,372.9
		c-0.7,0-0.8,0.6-0.8,1.2c0,0.6,0.1,1.2,0.8,1.2c0.7,0,0.8-0.6,0.8-1.2C111.3,373.5,111.2,372.9,110.6,372.9z M110.6,370.3
		c-0.6,0-0.8,0.5-0.8,1.1c0,0.5,0.2,1.1,0.7,1.1c0.6,0,0.7-0.5,0.7-1C111.3,370.8,111.2,370.3,110.6,370.3z"/>
	<path d="M114.2,375.8c-1.3,0-1.4-1-1.4-2.5v-1.1c0-1.5,0.2-2.4,1.4-2.4c1.3,0,1.4,0.9,1.4,2.4v1.1
		C115.6,374.8,115.5,375.8,114.2,375.8z M114.9,372.2c0-1.3-0.1-1.9-0.8-1.9c-0.7,0-0.8,0.7-0.8,1.9v1.2c0,1.2,0.1,1.9,0.8,1.9
		c0.7,0,0.8-0.7,0.8-1.9V372.2z"/>
</g>
<g class="st4">
	<path d="M158.6,375.7v-5c-0.3,0.3-0.6,0.5-0.9,0.7v-0.7c0.3-0.2,0.8-0.6,1-0.9h0.6v5.8H158.6z"/>
	<path d="M162.3,375.8c-1.3,0-1.4-1-1.4-2.5v-1.1c0-1.5,0.2-2.4,1.4-2.4c1.3,0,1.4,0.9,1.4,2.4v1.1
		C163.7,374.8,163.6,375.8,162.3,375.8z M163.1,372.2c0-1.3-0.1-1.9-0.8-1.9c-0.7,0-0.8,0.7-0.8,1.9v1.2c0,1.2,0.1,1.9,0.8,1.9
		c0.7,0,0.8-0.7,0.8-1.9V372.2z"/>
	<path d="M165.9,375.8c-1.3,0-1.4-1-1.4-2.5v-1.1c0-1.5,0.2-2.4,1.4-2.4c1.3,0,1.4,0.9,1.4,2.4v1.1
		C167.3,374.8,167.2,375.8,165.9,375.8z M166.7,372.2c0-1.3-0.1-1.9-0.8-1.9c-0.7,0-0.8,0.7-0.8,1.9v1.2c0,1.2,0.1,1.9,0.8,1.9
		c0.7,0,0.8-0.7,0.8-1.9V372.2z"/>
</g>
<g class="st4">
	<path d="M-111.3,362.7h2V361h0.6v1.7h2.8v0.7h-5.9v-2.5h0.6V362.7z"/>
	<path d="M-106,360.1h-5.9v-0.6h5.9V360.1z"/>
	<path d="M-106,356.2l-0.5,0c0.4,0.2,0.6,0.6,0.6,1c0,0.8-0.5,1.1-1.3,1.1h-2.9v-0.6h2.6c0.5,0,1.1,0,1.1-0.7c0-0.7-0.6-0.8-1.2-0.8
		h-2.5v-0.7h3.2c0.3,0,0.6,0,0.9,0V356.2z"/>
	<path d="M-111.1,354.6h-0.7v-0.7h0.7V354.6z M-106,354.5h-4.1v-0.6h4.1V354.5z"/>
	<path d="M-106,350.7l-0.5,0c0.4,0.2,0.5,0.5,0.5,1c0,1.2-1.2,1.3-2.2,1.3c-1,0-2.1-0.2-2.1-1.3c0-0.5,0.2-0.7,0.5-0.9h-2.2v-0.7
		h5.1c0.2,0,0.6,0,0.8,0V350.7z M-109.7,351.5c0,0.7,0.9,0.8,1.6,0.8c0.9,0,1.7-0.1,1.7-0.7c0-0.8-0.8-0.8-1.6-0.8
		C-108.9,350.7-109.7,350.8-109.7,351.5z"/>
</g>
<g class="st4">
	<path d="M-111.4,345.9c0,0.4,0.4,0.5,0.7,0.5h0.6v-0.7h0.5v0.7h3.6v0.6h-3.6v0.6h-0.5V347h-0.4c-0.7,0-1.4-0.1-1.4-1
		c0-0.1,0-0.2,0-0.3h0.5C-111.4,345.7-111.4,345.8-111.4,345.9z"/>
	<path d="M-109.6,343.4c0,0.6,0.4,0.9,1,0.9h2.5v0.7h-3.4c-0.2,0-0.6,0-0.7,0v-0.6h0.5c-0.4-0.2-0.6-0.6-0.6-1v-0.1h0.6
		C-109.6,343.3-109.6,343.3-109.6,343.4z"/>
	<path d="M-106,340.8l-0.5,0c0.4,0.3,0.6,0.6,0.6,1.1c0,0.7-0.5,1.1-1.2,1.1c-1.3,0-1.4-1.1-1.4-2.1h-0.2c-0.5,0-1,0-1,0.6
		c0,0.4,0.2,0.7,0.6,0.7h0v0.6h0c-0.8,0-1.1-0.6-1.1-1.3c0-1,0.4-1.2,1.4-1.2h1.5c0.4,0,0.9,0,1.3,0V340.8z M-108.1,340.8v0.2
		c0,0.6,0.1,1.3,0.9,1.3c0.4,0,0.8-0.1,0.8-0.6c0-0.7-0.7-0.8-1.2-0.8H-108.1z"/>
	<path d="M-105.9,337.9c0,1.3-0.8,1.4-2.1,1.4c-1.1,0-2.2-0.1-2.2-1.4c0-1,0.4-1.3,1.3-1.3v0.6c-0.5,0-0.9,0.1-0.9,0.6
		c0,0.8,0.9,0.7,1.7,0.7c1.2,0,1.7-0.1,1.7-0.7c0-0.6-0.4-0.7-0.9-0.7v-0.6C-106.5,336.6-105.9,336.8-105.9,337.9z"/>
	<path d="M-106,334.7c0,0.8-0.3,0.9-1,0.9h-2.7v0.6h-0.5v-0.6h-0.8l-0.3-0.6h1v-0.7h0.5v0.7h2.6c0.5,0,0.6-0.1,0.6-0.5
		c0-0.1,0-0.2,0-0.3h0.5C-106,334.4-106,334.5-106,334.7z"/>
	<path d="M-111.1,333.6h-0.7v-0.7h0.7V333.6z M-106,333.5h-4.1v-0.6h4.1V333.5z"/>
	<path d="M-105.9,330.5c0,1.3-0.8,1.4-2.1,1.4c-1.2,0-2.2-0.2-2.2-1.5c0-1.3,0.9-1.4,2.1-1.4C-106.7,329.1-105.9,329.3-105.9,330.5z
		 M-108.3,329.8c-0.6,0-1.5,0-1.5,0.7c0,0.8,0.9,0.8,1.5,0.8h0.6c0.6,0,1.3,0,1.3-0.8c0-0.7-0.7-0.8-1.3-0.8H-108.3z"/>
	<path d="M-106,326.1h-2.6c-0.5,0-1.1,0-1.1,0.6c0,0.6,0.7,0.8,1.2,0.8h2.5v0.6h-3.2c-0.3,0-0.6,0-0.9,0v-0.6h0.6
		c-0.3-0.2-0.7-0.5-0.7-1.1c0-0.8,0.5-1.1,1.3-1.1h2.9V326.1z"/>
	<path d="M-105.2,324v0.5l-1.6-0.3v-0.7L-105.2,324z"/>
	<path d="M-105.7,319.6v0.4l-6.4-3.1v-0.5L-105.7,319.6z M-109,319.9c0,0.9-0.7,1-1.5,1c-0.7,0-1.5-0.2-1.5-1c0-0.9,0.7-1,1.5-1
		C-109.7,318.9-109,319-109,319.9z M-111.5,319.9c0,0.5,0.5,0.5,1.1,0.5c0.6,0,1.1,0,1.1-0.5c0-0.5-0.5-0.5-1.1-0.5
		C-111,319.4-111.5,319.4-111.5,319.9z M-105.9,316.7c0,0.9-0.7,1.1-1.5,1.1c-0.7,0-1.5-0.2-1.5-1.1c0-0.9,0.7-1,1.5-1
		C-106.7,315.7-105.9,315.9-105.9,316.7z M-108.5,316.7c0,0.5,0.5,0.5,1.1,0.5c0.6,0,1.1,0,1.1-0.5s-0.5-0.5-1.1-0.5
		C-107.9,316.2-108.5,316.3-108.5,316.7z"/>
</g>
<g class="st4">
	<path d="M42.6,381.1v5.9h-0.8v-5.9h-1.5v-0.6h3.8v0.6H42.6z"/>
	<path d="M44.5,381.3v-0.8h0.8v0.8H44.5z M44.6,387v-4.5h0.7v4.5H44.6z"/>
	<path d="M50.8,387v-3.1c0-0.5,0-1-0.6-1c-0.7,0-0.8,0.7-0.8,1.2v2.9h-0.7v-3.1c0-0.4,0-1-0.6-1c-0.6,0-0.8,0.6-0.8,1.3v2.8h-0.7
		v-3.8c0-0.3,0-0.5,0-0.8h0.7v0.6c0.2-0.4,0.6-0.7,1.1-0.7c0.7,0,0.9,0.4,1,0.7c0.2-0.4,0.6-0.7,1.1-0.7c0.9,0,1.1,0.5,1.1,1.5v3.1
		H50.8z"/>
	<path d="M53.2,384.8v0.3c0,0.7,0.1,1.4,0.8,1.4c0.7,0,0.8-0.5,0.8-1h0.7c0,0.9-0.4,1.5-1.5,1.5c-1.4,0-1.6-1-1.6-2.2
		c0-1.2,0.1-2.5,1.6-2.5c1.5,0,1.5,1.2,1.5,2.3v0.2H53.2z M54.9,383.8c0-0.5-0.2-0.9-0.8-0.9c-0.6,0-0.8,0.4-0.8,0.9
		c0,0.2,0,0.4,0,0.6h1.7C54.9,384.1,54.9,384,54.9,383.8z"/>
	<path d="M56.9,387.9h-0.5l0.3-1.8h0.8L56.9,387.9z"/>
	<path d="M65,387v-3.1c0-0.5,0-1-0.6-1c-0.7,0-0.8,0.7-0.8,1.2v2.9h-0.7v-3.1c0-0.4,0-1-0.6-1c-0.6,0-0.8,0.6-0.8,1.3v2.8h-0.7v-3.8
		c0-0.3,0-0.5,0-0.8h0.7v0.6c0.2-0.4,0.6-0.7,1.1-0.7c0.7,0,0.9,0.4,1,0.7c0.2-0.4,0.6-0.7,1.1-0.7c0.9,0,1.1,0.5,1.1,1.5v3.1H65z"
		/>
	<path d="M66.9,381.3v-0.8h0.8v0.8H66.9z M66.9,387v-4.5h0.7v4.5H66.9z"/>
	<path d="M71.1,387v-2.9c0-0.5,0-1.2-0.7-1.2c-0.7,0-0.9,0.8-0.9,1.4v2.7h-0.7v-3.5c0-0.3,0-0.7,0-1h0.7v0.6
		c0.2-0.4,0.6-0.7,1.2-0.7c0.9,0,1.2,0.6,1.2,1.4v3.2H71.1z"/>
</g>
<g class="st4">
	<path d="M-99.8,318.2v-5c-0.3,0.3-0.6,0.5-0.9,0.7v-0.7c0.3-0.2,0.8-0.6,1-0.9h0.6v5.8H-99.8z"/>
	<path d="M-96.1,318.3c-1.3,0-1.4-1-1.4-2.5v-1.1c0-1.5,0.2-2.4,1.4-2.4s1.4,0.9,1.4,2.4v1.1C-94.7,317.3-94.8,318.3-96.1,318.3z
		 M-95.3,314.8c0-1.3-0.1-1.9-0.8-1.9c-0.7,0-0.8,0.7-0.8,1.9v1.2c0,1.2,0.1,1.9,0.8,1.9c0.7,0,0.8-0.7,0.8-1.9V314.8z"/>
	<path d="M-92.5,318.3c-1.3,0-1.4-1-1.4-2.5v-1.1c0-1.5,0.2-2.4,1.4-2.4s1.4,0.9,1.4,2.4v1.1C-91.1,317.3-91.2,318.3-92.5,318.3z
		 M-91.7,314.8c0-1.3-0.1-1.9-0.8-1.9c-0.7,0-0.8,0.7-0.8,1.9v1.2c0,1.2,0.1,1.9,0.8,1.9c0.7,0,0.8-0.7,0.8-1.9V314.8z"/>
</g>
<g class="st4">
	<path d="M-96.1,328.3c-1,0-1.4-0.6-1.4-1.6c0-0.6,0.1-1.3,0.8-1.5c-0.6-0.2-0.7-0.7-0.7-1.3c0-1,0.4-1.6,1.4-1.6
		c1,0,1.4,0.5,1.4,1.5c0,0.6-0.1,1.2-0.8,1.4c0.7,0.1,0.8,0.8,0.8,1.4C-94.7,327.7-95,328.3-96.1,328.3z M-96.1,325.5
		c-0.7,0-0.8,0.6-0.8,1.2c0,0.6,0.1,1.2,0.8,1.2c0.7,0,0.8-0.6,0.8-1.2C-95.3,326-95.4,325.5-96.1,325.5z M-96.1,322.8
		c-0.6,0-0.8,0.5-0.8,1.1c0,0.5,0.2,1.1,0.7,1.1c0.6,0,0.7-0.5,0.7-1C-95.4,323.4-95.4,322.8-96.1,322.8z"/>
	<path d="M-92.5,328.3c-1.3,0-1.4-1-1.4-2.5v-1.1c0-1.5,0.2-2.4,1.4-2.4s1.4,0.9,1.4,2.4v1.1C-91.1,327.3-91.2,328.3-92.5,328.3z
		 M-91.7,324.8c0-1.3-0.1-1.9-0.8-1.9c-0.7,0-0.8,0.7-0.8,1.9v1.2c0,1.2,0.1,1.9,0.8,1.9c0.7,0,0.8-0.7,0.8-1.9V324.8z"/>
</g>
<g class="st4">
	<path d="M-96.1,338.3c-1.3,0-1.4-1.2-1.4-2.4v-1.1c0-1.1,0.1-2.4,1.5-2.4c0.9,0,1.3,0.4,1.3,1.3h-0.7c0-0.5-0.2-0.8-0.7-0.8
		c-0.8,0-0.8,1-0.8,2v0.3c0.2-0.4,0.5-0.5,1-0.5c1,0,1.2,0.8,1.2,1.8C-94.6,337.4-94.9,338.3-96.1,338.3z M-96,335.1
		c-0.7,0-0.8,0.7-0.8,1.4c0,0.7,0.1,1.4,0.8,1.4c0.7,0,0.8-0.8,0.8-1.4C-95.3,335.7-95.4,335.1-96,335.1z"/>
	<path d="M-92.5,338.3c-1.3,0-1.4-1-1.4-2.5v-1.1c0-1.5,0.2-2.4,1.4-2.4s1.4,0.9,1.4,2.4v1.1C-91.1,337.3-91.2,338.3-92.5,338.3z
		 M-91.7,334.8c0-1.3-0.1-1.9-0.8-1.9c-0.7,0-0.8,0.7-0.8,1.9v1.2c0,1.2,0.1,1.9,0.8,1.9c0.7,0,0.8-0.7,0.8-1.9V334.8z"/>
</g>
<g class="st4">
	<path d="M-95.1,346.8v1.4h-0.6v-1.4h-1.9v-0.6l1.6-3.8h0.9v3.9h0.6v0.5H-95.1z M-95.8,343l-1.4,3.3h1.4V343z"/>
	<path d="M-92.5,348.3c-1.3,0-1.4-1-1.4-2.5v-1.1c0-1.5,0.2-2.4,1.4-2.4s1.4,0.9,1.4,2.4v1.1C-91.1,347.3-91.2,348.3-92.5,348.3z
		 M-91.7,344.8c0-1.3-0.1-1.9-0.8-1.9c-0.7,0-0.8,0.7-0.8,1.9v1.2c0,1.2,0.1,1.9,0.8,1.9c0.7,0,0.8-0.7,0.8-1.9V344.8z"/>
</g>
<g class="st4">
	<path d="M-97.6,358.2v-0.6l1.8-3c0.2-0.3,0.3-0.7,0.3-1.1c0-0.4-0.2-0.7-0.7-0.7c-0.4,0-0.7,0.2-0.7,0.6c0,0.1,0,0.3,0,0.4h-0.7
		c0-0.1,0-0.2,0-0.3c0.1-0.8,0.6-1.2,1.4-1.2c0.9,0,1.4,0.4,1.4,1.3c0,0.6-0.3,1.2-0.6,1.6l-1.5,2.4h2.2v0.5H-97.6z"/>
	<path d="M-92.5,358.3c-1.3,0-1.4-1-1.4-2.5v-1.1c0-1.5,0.2-2.4,1.4-2.4s1.4,0.9,1.4,2.4v1.1C-91.1,357.3-91.2,358.3-92.5,358.3z
		 M-91.7,354.8c0-1.3-0.1-1.9-0.8-1.9c-0.7,0-0.8,0.7-0.8,1.9v1.2c0,1.2,0.1,1.9,0.8,1.9c0.7,0,0.8-0.7,0.8-1.9V354.8z"/>
</g>
<g class="st4">
	<path d="M-92.5,368.3c-1.3,0-1.4-1-1.4-2.5v-1.1c0-1.5,0.2-2.4,1.4-2.4s1.4,0.9,1.4,2.4v1.1C-91.1,367.3-91.2,368.3-92.5,368.3z
		 M-91.7,364.8c0-1.3-0.1-1.9-0.8-1.9c-0.7,0-0.8,0.7-0.8,1.9v1.2c0,1.2,0.1,1.9,0.8,1.9c0.7,0,0.8-0.7,0.8-1.9V364.8z"/>
</g>
<rect x="-86.7" y="315.5" class="st8" width="286.4" height="49"/>
<polygon class="st9" points="-86.6,364.6 -86.6,359.8 -85.1,361 -83.6,364.4 -82.1,359.4 -80.5,361.3 -79.2,364.4 -77.9,362.7 
	-76,361 -74.7,361 -73.1,364.2 -71.4,360.5 -69.9,364.2 -66.9,360.9 -65.5,364.6 -63.8,364.6 -62.3,362.6 -60.8,362.6 -59.2,364.4 
	-57.7,362.6 -54.5,362.6 -53.6,364.1 -51.6,362.1 -50.2,364.5 -44,364.5 -42.4,362.6 -39.2,362.6 -37.9,364.4 -36.1,364.4 
	-34.8,362.6 -33.3,362.6 -31.9,364.4 -30.2,362.1 -28.7,360.6 -25.7,364.6 -23.9,364.6 -21.3,360.3 -19.4,360.3 -17.9,364.7 
	-16.5,362.6 -14.9,362.6 -13.5,364.6 -10.3,360.8 -7.4,364.5 0.3,364.5 1.8,362.5 4.9,362.6 6.1,361.8 7.9,361.8 9.4,364.6 
	10.9,362.7 12.4,364.4 14,362.7 17,362.7 18.7,364.4 20.1,362.7 23.4,362.7 24.7,364.6 32.3,364.6 33.8,362.3 35.4,364.6 
	42.9,364.6 44.5,362.5 45.9,364.4 47.8,362.7 50.7,362.7 52,364.4 53.8,364.4 55.1,362.7 56.7,364.5 76.5,364.5 78.1,362.6 
	79.6,362.6 81.3,364.6 88.7,364.6 90.3,362.6 91.8,364.6 102.4,364.6 103.9,362.5 105.7,364.6 "/>
<line class="st10" x1="-36.8" y1="329.3" x2="-36.8" y2="314.2"/>
<line class="st10" x1="13.1" y1="329.3" x2="13.1" y2="314.2"/>
<line class="st10" x1="62.6" y1="329.3" x2="62.6" y2="314.2"/>
<line class="st10" x1="112.5" y1="329.3" x2="112.5" y2="314.2"/>
<line class="st10" x1="162.1" y1="329.3" x2="162.1" y2="314.2"/>
<line class="st10" x1="-36.8" y1="344.6" x2="-36.8" y2="329.3"/>
<line class="st10" x1="13.1" y1="344.6" x2="13.1" y2="329.3"/>
<line class="st10" x1="62.6" y1="344.6" x2="62.6" y2="329.3"/>
<line class="st10" x1="112.5" y1="344.6" x2="112.5" y2="329.3"/>
<line class="st10" x1="162.1" y1="344.6" x2="162.1" y2="329.3"/>
<line class="st10" x1="-36.8" y1="364.4" x2="-36.8" y2="344.6"/>
<line class="st10" x1="13.1" y1="364.4" x2="13.1" y2="344.6"/>
<line class="st10" x1="62.6" y1="364.4" x2="62.6" y2="344.6"/>
<line class="st10" x1="112.5" y1="364.4" x2="112.5" y2="344.6"/>
<line class="st10" x1="162.1" y1="364.4" x2="162.1" y2="344.6"/>
<rect x="-86.7" y="315.4" class="st11" width="286.4" height="49.1"/>
<rect x="77.8" y="322.7" class="st6" width="115" height="16"/>
<rect x="81.8" y="328.2" class="st8" width="7" height="7"/>
<g class="st4">
	<path d="M97.6,334.7h-0.8l-1-5.1l-1.1,5.1h-0.8l-1.3-5.8h0.7l1,5.1l1.1-5.1h0.8l1,5.1l1.1-5.1h0.6L97.6,334.7z"/>
	<path d="M101.2,334.7l0-0.5c-0.3,0.4-0.6,0.6-1.1,0.6c-0.7,0-1-0.5-1-1.2c0-1.3,1.1-1.4,2.1-1.4V332c0-0.5,0-1-0.6-1
		c-0.4,0-0.7,0.2-0.7,0.6v0h-0.6v0c0-0.8,0.6-1.1,1.3-1.1c1,0,1.2,0.4,1.2,1.3v1.5c0,0.4,0,0.9,0,1.3H101.2z M101.1,332.7H101
		c-0.6,0-1.3,0.1-1.3,0.9c0,0.4,0.1,0.8,0.6,0.8c0.7,0,0.8-0.6,0.8-1.2V332.7z"/>
	<path d="M103.8,334.7c-0.8,0-0.9-0.3-0.9-1v-2.6h-0.6v-0.5h0.6v-0.7l0.6-0.3v1h0.7v0.5h-0.7v2.5c0,0.5,0.1,0.6,0.5,0.6
		c0.1,0,0.2,0,0.3,0v0.5C104.1,334.7,104,334.7,103.8,334.7z"/>
	<path d="M105.4,332.8v0.3c0,0.7,0.1,1.3,0.7,1.3c0.6,0,0.7-0.4,0.7-0.9h0.6c0,0.8-0.4,1.4-1.4,1.4c-1.2,0-1.4-0.9-1.4-1.9
		c0-1.1,0.1-2.3,1.4-2.3c1.3,0,1.3,1,1.3,2v0.2H105.4z M106.9,331.8c0-0.4-0.2-0.8-0.7-0.8c-0.5,0-0.7,0.3-0.7,0.8
		c0,0.2,0,0.3,0,0.5h1.5C106.9,332.2,106.9,332,106.9,331.8z"/>
	<path d="M110,331.2c-0.6,0-0.9,0.4-0.9,1v2.5h-0.6v-3.3c0-0.2,0-0.6,0-0.7h0.6v0.5c0.2-0.4,0.6-0.6,1-0.6h0.1v0.6
		C110.1,331.2,110,331.2,110,331.2z"/>
	<path d="M113.9,329.4c-0.4,0-0.5,0.4-0.5,0.7v0.6h0.7v0.5h-0.7v3.6h-0.6v-3.6h-0.6v-0.5h0.6v-0.4c0-0.7,0.1-1.4,1-1.4
		c0.1,0,0.2,0,0.3,0v0.5C114.1,329.4,113.9,329.4,113.9,329.4z"/>
	<path d="M116.3,331.2c-0.6,0-0.9,0.4-0.9,1v2.5h-0.6v-3.3c0-0.2,0-0.6,0-0.7h0.6v0.5c0.2-0.4,0.6-0.6,1-0.6h0.1v0.6
		C116.4,331.2,116.4,331.2,116.3,331.2z"/>
	<path d="M118.9,334.7l0-0.5c-0.3,0.4-0.6,0.6-1.1,0.6c-0.7,0-1-0.5-1-1.2c0-1.3,1.1-1.4,2.1-1.4V332c0-0.5,0-1-0.6-1
		c-0.4,0-0.7,0.2-0.7,0.6v0h-0.6v0c0-0.8,0.6-1.1,1.3-1.1c1,0,1.2,0.4,1.2,1.3v1.5c0,0.4,0,0.9,0,1.3H118.9z M118.9,332.7h-0.2
		c-0.6,0-1.3,0.1-1.3,0.9c0,0.4,0.1,0.8,0.6,0.8c0.7,0,0.8-0.6,0.8-1.2V332.7z"/>
	<path d="M121.8,334.8c-1.3,0-1.4-0.8-1.4-2c0-1.1,0.1-2.2,1.4-2.2c1,0,1.2,0.4,1.2,1.3h-0.6c0-0.5-0.1-0.8-0.6-0.8
		c-0.7,0-0.7,0.9-0.7,1.6c0,1.2,0.1,1.6,0.7,1.6c0.6,0,0.6-0.4,0.6-0.9h0.6C123,334.2,122.8,334.8,121.8,334.8z"/>
	<path d="M124.9,334.7c-0.8,0-0.9-0.3-0.9-1v-2.6h-0.6v-0.5h0.6v-0.7l0.6-0.3v1h0.7v0.5h-0.7v2.5c0,0.5,0.1,0.6,0.5,0.6
		c0.1,0,0.2,0,0.3,0v0.5C125.2,334.7,125,334.7,124.9,334.7z"/>
	<path d="M126,329.7V329h0.7v0.7H126z M126,334.7v-4h0.6v4H126z"/>
	<path d="M129,334.8c-1.3,0-1.4-0.8-1.4-2.1c0-1.2,0.2-2.1,1.4-2.1c1.3,0,1.4,0.9,1.4,2.1C130.4,334,130.2,334.8,129,334.8z
		 M129.7,332.5c0-0.6,0-1.4-0.7-1.4c-0.8,0-0.8,0.9-0.8,1.5v0.6c0,0.5,0,1.3,0.8,1.3c0.7,0,0.8-0.7,0.8-1.2V332.5z"/>
	<path d="M133.4,334.7v-2.6c0-0.5,0-1.1-0.6-1.1c-0.6,0-0.8,0.7-0.8,1.2v2.4h-0.6v-3.2c0-0.3,0-0.6,0-0.9h0.6v0.6
		c0.2-0.3,0.5-0.6,1-0.6c0.8,0,1.1,0.5,1.1,1.3v2.9H133.4z"/>
</g>
<rect x="145.8" y="328.2" class="st12" width="7" height="7"/>
<g class="st4">
	<path d="M160.2,333.9c-0.2,0.5-0.6,0.9-1.5,0.9c-0.9,0-1.3-0.3-1.5-0.8c-0.2-0.5-0.2-0.9-0.2-2.1c0-1.3,0-2,0.4-2.5
		c0.3-0.3,0.7-0.5,1.3-0.5c0.7,0,1,0.2,1.3,0.5c0.4,0.5,0.5,1.3,0.5,2.5C160.4,332.9,160.4,333.4,160.2,333.9z M159.6,330.2
		c-0.1-0.5-0.3-0.9-1-0.9c-0.6,0-0.9,0.4-1,1c-0.1,0.4-0.1,1-0.1,1.4c0,0.5,0,1,0.1,1.5c0.1,0.6,0.3,1,1,1c0.6,0,0.8-0.4,1-0.9
		c0.1-0.5,0.1-1.1,0.1-1.6C159.7,331.3,159.7,330.7,159.6,330.2z"/>
	<path d="M161.4,329.7V329h0.7v0.7H161.4z M161.4,334.7v-4h0.6v4H161.4z"/>
	<path d="M163.1,334.7v-5.8h0.6v5.8H163.1z"/>
	<path d="M168,329.4c-0.4,0-0.5,0.4-0.5,0.7v0.6h0.7v0.5h-0.7v3.6h-0.6v-3.6h-0.6v-0.5h0.6v-0.4c0-0.7,0.1-1.4,1-1.4
		c0.1,0,0.2,0,0.3,0v0.5C168.1,329.4,168,329.4,168,329.4z"/>
	<path d="M170.4,331.2c-0.6,0-0.9,0.4-0.9,1v2.5h-0.6v-3.3c0-0.2,0-0.6,0-0.7h0.6v0.5c0.2-0.4,0.6-0.6,1-0.6h0.1v0.6
		C170.5,331.2,170.5,331.2,170.4,331.2z"/>
	<path d="M173,334.7l0-0.5c-0.3,0.4-0.6,0.6-1.1,0.6c-0.7,0-1-0.5-1-1.2c0-1.3,1.1-1.4,2.1-1.4V332c0-0.5,0-1-0.6-1
		c-0.4,0-0.7,0.2-0.7,0.6v0H171v0c0-0.8,0.6-1.1,1.3-1.1c1,0,1.2,0.4,1.2,1.3v1.5c0,0.4,0,0.9,0,1.3H173z M172.9,332.7h-0.2
		c-0.6,0-1.3,0.1-1.3,0.9c0,0.4,0.1,0.8,0.6,0.8c0.7,0,0.8-0.6,0.8-1.2V332.7z"/>
	<path d="M175.8,334.8c-1.3,0-1.4-0.8-1.4-2c0-1.1,0.1-2.2,1.4-2.2c1,0,1.2,0.4,1.2,1.3h-0.6c0-0.5-0.1-0.8-0.6-0.8
		c-0.7,0-0.7,0.9-0.7,1.6c0,1.2,0.1,1.6,0.7,1.6c0.6,0,0.6-0.4,0.6-0.9h0.6C177.1,334.2,176.8,334.8,175.8,334.8z"/>
	<path d="M179,334.7c-0.8,0-0.9-0.3-0.9-1v-2.6h-0.6v-0.5h0.6v-0.7l0.6-0.3v1h0.7v0.5h-0.7v2.5c0,0.5,0.1,0.6,0.5,0.6
		c0.1,0,0.2,0,0.3,0v0.5C179.3,334.7,179.1,334.7,179,334.7z"/>
	<path d="M180.1,329.7V329h0.7v0.7H180.1z M180.1,334.7v-4h0.6v4H180.1z"/>
	<path d="M183,334.8c-1.3,0-1.4-0.8-1.4-2.1c0-1.2,0.2-2.1,1.4-2.1c1.3,0,1.4,0.9,1.4,2.1C184.4,334,184.2,334.8,183,334.8z
		 M183.8,332.5c0-0.6,0-1.4-0.7-1.4c-0.8,0-0.8,0.9-0.8,1.5v0.6c0,0.5,0,1.3,0.8,1.3c0.7,0,0.8-0.7,0.8-1.2V332.5z"/>
	<path d="M187.4,334.7v-2.6c0-0.5,0-1.1-0.6-1.1c-0.6,0-0.8,0.7-0.8,1.2v2.4h-0.6v-3.2c0-0.3,0-0.6,0-0.9h0.6v0.6
		c0.2-0.3,0.5-0.6,1-0.6c0.8,0,1.1,0.5,1.1,1.3v2.9H187.4z"/>
</g>
<rect x="77.8" y="322.7" class="st13" width="115" height="16"/>
</svg>
