<?xml version="1.0" encoding="utf-8"?>
<!-- Generator: Adobe Illustrator 19.1.0, SVG Export Plug-In . SVG Version: 6.00 Build 0)  -->
<svg version="1.1" id="Layer_1" xmlns="http://www.w3.org/2000/svg" xmlns:xlink="http://www.w3.org/1999/xlink" x="0px" y="0px"
	 viewBox="-117 200.5 331.7 167.4" style="enable-background:new -117 200.5 331.7 167.4;" xml:space="preserve">
<style type="text/css">
	.st0{fill:#FFFFFF;}
	.st1{fill:none;stroke:#939598;stroke-width:0.25;stroke-miterlimit:10;}
	.st2{fill:none;stroke:#000000;stroke-width:0.5;stroke-miterlimit:10;}
	.st3{fill:#939598;}
	.st4{fill:#004483;}
	.st5{enable-background:new    ;}
	.st6{fill:none;stroke:#000000;stroke-width:0.5;}
	.st7{fill:none;stroke:#000000;}
	.st8{fill:none;stroke:#939598;}
</style>
<rect x="166.6" y="200.5" class="st0" width="48.1" height="154.6"/>
<line class="st1" x1="167.1" y1="217.9" x2="214.2" y2="217.9"/>
<line class="st1" x1="167.1" y1="235" x2="214.2" y2="235"/>
<line class="st1" x1="167.1" y1="252.1" x2="214.2" y2="252.1"/>
<line class="st1" x1="167.1" y1="269.2" x2="214.2" y2="269.2"/>
<line class="st1" x1="167.1" y1="286.3" x2="214.2" y2="286.3"/>
<line class="st1" x1="167.1" y1="303.5" x2="214.2" y2="303.5"/>
<line class="st1" x1="167.1" y1="320.6" x2="214.2" y2="320.6"/>
<line class="st1" x1="167.1" y1="337.7" x2="214.2" y2="337.7"/>
<line class="st2" x1="166.6" y1="200.8" x2="214.7" y2="200.8"/>
<line class="st2" x1="166.8" y1="217.9" x2="166.8" y2="201"/>
<line class="st2" x1="214.4" y1="217.9" x2="214.4" y2="201"/>
<line class="st2" x1="166.8" y1="235" x2="166.8" y2="217.9"/>
<line class="st2" x1="214.4" y1="235" x2="214.4" y2="217.9"/>
<line class="st2" x1="166.8" y1="252.1" x2="166.8" y2="235"/>
<line class="st2" x1="214.4" y1="252.1" x2="214.4" y2="235"/>
<line class="st2" x1="166.8" y1="269.2" x2="166.8" y2="252.1"/>
<line class="st2" x1="214.4" y1="269.2" x2="214.4" y2="252.1"/>
<line class="st2" x1="166.8" y1="286.3" x2="166.8" y2="269.2"/>
<line class="st2" x1="214.4" y1="286.3" x2="214.4" y2="269.2"/>
<line class="st2" x1="166.8" y1="303.5" x2="166.8" y2="286.3"/>
<line class="st2" x1="214.4" y1="303.5" x2="214.4" y2="286.3"/>
<line class="st2" x1="166.8" y1="320.6" x2="166.8" y2="303.5"/>
<line class="st2" x1="214.4" y1="320.6" x2="214.4" y2="303.5"/>
<line class="st2" x1="166.8" y1="337.7" x2="166.8" y2="320.6"/>
<line class="st2" x1="214.4" y1="337.7" x2="214.4" y2="320.6"/>
<line class="st2" x1="166.8" y1="354.6" x2="166.8" y2="337.7"/>
<line class="st2" x1="214.4" y1="354.6" x2="214.4" y2="337.7"/>
<line class="st2" x1="166.6" y1="354.8" x2="214.7" y2="354.8"/>
<rect x="190.9" y="257" class="st3" width="8.7" height="97.6"/>
<rect x="182.2" y="255.2" class="st4" width="8.7" height="99.4"/>
<g class="st5">
	<path d="M147.3,220.8v-0.6l1.8-3c0.2-0.3,0.3-0.7,0.3-1.1c0-0.4-0.2-0.7-0.7-0.7c-0.4,0-0.7,0.2-0.7,0.6c0,0.1,0,0.3,0,0.4h-0.7
		c0-0.1,0-0.2,0-0.3c0.1-0.8,0.6-1.2,1.4-1.2c0.9,0,1.4,0.4,1.4,1.3c0,0.6-0.3,1.2-0.6,1.6l-1.5,2.4h2.2v0.5H147.3z"/>
	<path d="M151.4,221.6h-0.5l0.3-1.6h0.7L151.4,221.6z"/>
	<path d="M154.2,220.9c-1.3,0-1.4-1-1.4-2.5v-1.1c0-1.5,0.2-2.4,1.4-2.4c1.3,0,1.4,0.9,1.4,2.4v1.1
		C155.7,219.9,155.5,220.9,154.2,220.9z M155,217.3c0-1.3-0.1-1.9-0.8-1.9c-0.7,0-0.8,0.7-0.8,1.9v1.2c0,1.2,0.1,1.9,0.8,1.9
		c0.7,0,0.8-0.7,0.8-1.9V217.3z"/>
	<path d="M157.8,220.9c-1.3,0-1.4-1-1.4-2.5v-1.1c0-1.5,0.2-2.4,1.4-2.4c1.3,0,1.4,0.9,1.4,2.4v1.1
		C159.3,219.9,159.1,220.9,157.8,220.9z M158.6,217.3c0-1.3-0.1-1.9-0.8-1.9c-0.7,0-0.8,0.7-0.8,1.9v1.2c0,1.2,0.1,1.9,0.8,1.9
		c0.7,0,0.8-0.7,0.8-1.9V217.3z"/>
	<path d="M161.5,220.9c-1.3,0-1.4-1-1.4-2.5v-1.1c0-1.5,0.2-2.4,1.4-2.4c1.3,0,1.4,0.9,1.4,2.4v1.1
		C162.9,219.9,162.8,220.9,161.5,220.9z M162.2,217.3c0-1.3-0.1-1.9-0.8-1.9c-0.7,0-0.8,0.7-0.8,1.9v1.2c0,1.2,0.1,1.9,0.8,1.9
		c0.7,0,0.8-0.7,0.8-1.9V217.3z"/>
</g>
<g class="st5">
	<path d="M148.8,255.3v-5c-0.3,0.3-0.6,0.5-0.9,0.7v-0.7c0.3-0.2,0.8-0.6,1-0.9h0.6v5.8H148.8z"/>
	<path d="M151.4,256.1h-0.5l0.3-1.6h0.7L151.4,256.1z"/>
	<path d="M154.2,255.4c-1,0-1.3-0.5-1.3-1.4h0.7c0,0.6,0.1,0.9,0.7,0.9c0.7,0,0.8-0.6,0.8-1.5c0-0.7-0.1-1.3-0.8-1.3
		c-0.4,0-0.7,0.2-0.7,0.6h-0.6l0.1-3.2h2.5v0.5h-1.9l-0.1,2c0.2-0.3,0.5-0.4,0.9-0.4c1.1,0,1.2,0.9,1.2,1.8
		C155.7,254.5,155.5,255.4,154.2,255.4z"/>
	<path d="M157.8,255.4c-1.3,0-1.4-1-1.4-2.5v-1.1c0-1.5,0.2-2.4,1.4-2.4c1.3,0,1.4,0.9,1.4,2.4v1.1
		C159.3,254.3,159.1,255.4,157.8,255.4z M158.6,251.8c0-1.3-0.1-1.9-0.8-1.9c-0.7,0-0.8,0.7-0.8,1.9v1.2c0,1.2,0.1,1.9,0.8,1.9
		c0.7,0,0.8-0.7,0.8-1.9V251.8z"/>
	<path d="M161.5,255.4c-1.3,0-1.4-1-1.4-2.5v-1.1c0-1.5,0.2-2.4,1.4-2.4c1.3,0,1.4,0.9,1.4,2.4v1.1
		C162.9,254.3,162.8,255.4,161.5,255.4z M162.2,251.8c0-1.3-0.1-1.9-0.8-1.9c-0.7,0-0.8,0.7-0.8,1.9v1.2c0,1.2,0.1,1.9,0.8,1.9
		c0.7,0,0.8-0.7,0.8-1.9V251.8z"/>
</g>
<g class="st5">
	<path d="M148.8,289.8v-5c-0.3,0.3-0.6,0.5-0.9,0.7v-0.7c0.3-0.2,0.8-0.6,1-0.9h0.6v5.8H148.8z"/>
	<path d="M151.4,290.6h-0.5l0.3-1.6h0.7L151.4,290.6z"/>
	<path d="M154.2,289.9c-1.3,0-1.4-1-1.4-2.5v-1.1c0-1.5,0.2-2.4,1.4-2.4c1.3,0,1.4,0.9,1.4,2.4v1.1
		C155.7,288.8,155.5,289.9,154.2,289.9z M155,286.3c0-1.3-0.1-1.9-0.8-1.9c-0.7,0-0.8,0.7-0.8,1.9v1.2c0,1.2,0.1,1.9,0.8,1.9
		c0.7,0,0.8-0.7,0.8-1.9V286.3z"/>
	<path d="M157.8,289.9c-1.3,0-1.4-1-1.4-2.5v-1.1c0-1.5,0.2-2.4,1.4-2.4c1.3,0,1.4,0.9,1.4,2.4v1.1
		C159.3,288.8,159.1,289.9,157.8,289.9z M158.6,286.3c0-1.3-0.1-1.9-0.8-1.9c-0.7,0-0.8,0.7-0.8,1.9v1.2c0,1.2,0.1,1.9,0.8,1.9
		c0.7,0,0.8-0.7,0.8-1.9V286.3z"/>
	<path d="M161.5,289.9c-1.3,0-1.4-1-1.4-2.5v-1.1c0-1.5,0.2-2.4,1.4-2.4c1.3,0,1.4,0.9,1.4,2.4v1.1
		C162.9,288.8,162.8,289.9,161.5,289.9z M162.2,286.3c0-1.3-0.1-1.9-0.8-1.9c-0.7,0-0.8,0.7-0.8,1.9v1.2c0,1.2,0.1,1.9,0.8,1.9
		c0.7,0,0.8-0.7,0.8-1.9V286.3z"/>
</g>
<g class="st5">
	<path d="M154.2,324.4c-1,0-1.3-0.5-1.3-1.4h0.7c0,0.6,0.1,0.9,0.7,0.9c0.7,0,0.8-0.6,0.8-1.5c0-0.7-0.1-1.3-0.8-1.3
		c-0.4,0-0.7,0.2-0.7,0.6h-0.6l0.1-3.2h2.5v0.5h-1.9l-0.1,2c0.2-0.3,0.5-0.4,0.9-0.4c1.1,0,1.2,0.9,1.2,1.8
		C155.7,323.5,155.5,324.4,154.2,324.4z"/>
	<path d="M157.8,324.4c-1.3,0-1.4-1-1.4-2.5v-1.1c0-1.5,0.2-2.4,1.4-2.4c1.3,0,1.4,0.9,1.4,2.4v1.1
		C159.3,323.3,159.1,324.4,157.8,324.4z M158.6,320.8c0-1.3-0.1-1.9-0.8-1.9c-0.7,0-0.8,0.7-0.8,1.9v1.2c0,1.2,0.1,1.9,0.8,1.9
		c0.7,0,0.8-0.7,0.8-1.9V320.8z"/>
	<path d="M161.5,324.4c-1.3,0-1.4-1-1.4-2.5v-1.1c0-1.5,0.2-2.4,1.4-2.4s1.4,0.9,1.4,2.4v1.1C162.9,323.3,162.8,324.4,161.5,324.4z
		 M162.2,320.8c0-1.3-0.1-1.9-0.8-1.9c-0.7,0-0.8,0.7-0.8,1.9v1.2c0,1.2,0.1,1.9,0.8,1.9c0.7,0,0.8-0.7,0.8-1.9V320.8z"/>
</g>
<g class="st5">
	<path d="M161.5,358.9c-1.3,0-1.4-1-1.4-2.5v-1.1c0-1.5,0.2-2.4,1.4-2.4c1.3,0,1.4,0.9,1.4,2.4v1.1
		C162.9,357.8,162.8,358.9,161.5,358.9z M162.2,355.3c0-1.3-0.1-1.9-0.8-1.9c-0.7,0-0.8,0.7-0.8,1.9v1.2c0,1.2,0.1,1.9,0.8,1.9
		c0.7,0,0.8-0.7,0.8-1.9V355.3z"/>
</g>
<g class="st5">
	<path d="M187.5,360.1V360c0-0.6-0.2-1-0.9-1c-1.1,0-1.1,1.2-1.1,2.5c0,1.3,0,2.5,1.1,2.5c0.3,0,0.6,0,0.9-0.2v-1.9h-1v-0.5h1.7v2.9
		c-0.5,0.2-1,0.3-1.5,0.3c-1.8,0-1.9-1.3-1.9-3s0.1-3,1.8-3c1.1,0,1.6,0.5,1.6,1.6v0.1H187.5z"/>
	<path d="M192.4,363.5c-0.2,0.5-0.6,0.9-1.5,0.9c-0.9,0-1.3-0.3-1.5-0.8c-0.2-0.5-0.2-0.9-0.2-2.1c0-1.3,0-2,0.4-2.5
		c0.3-0.3,0.7-0.5,1.3-0.5c0.7,0,1,0.2,1.3,0.5c0.4,0.5,0.5,1.3,0.5,2.5C192.6,362.5,192.6,363,192.4,363.5z M191.8,359.8
		c-0.1-0.5-0.3-0.9-1-0.9c-0.6,0-0.9,0.4-1,1c-0.1,0.4-0.1,1-0.1,1.4c0,0.5,0,1,0.1,1.5c0.1,0.6,0.3,1,1,1c0.6,0,0.8-0.4,1-0.9
		c0.1-0.5,0.1-1.1,0.1-1.6C191.9,360.9,191.9,360.3,191.8,359.8z"/>
	<path d="M196.1,364.3c0-0.2-0.1-0.4-0.1-0.6c0-0.2,0-0.5,0-0.8c0-1,0-1.3-0.9-1.3h-0.7v2.7h-0.7v-5.8h1.5c1,0,1.5,0.3,1.5,1.4
		c0,0.7-0.2,1.2-0.9,1.4c0.6,0.1,0.8,0.4,0.8,0.9c0,0.3,0,0.6,0,1c0,0.3,0,0.5,0,0.7c0,0.1,0,0.2,0,0.4H196.1z M195.2,359.1h-0.8v2
		h0.6c0.8,0,1.1-0.2,1.1-1.1C196.1,359.3,195.8,359.1,195.2,359.1z"/>
</g>
<line class="st6" x1="190.8" y1="250.8" x2="190.8" y2="260.6"/>
<line class="st6" x1="189.7" y1="250.8" x2="191.9" y2="250.8"/>
<line class="st6" x1="189.7" y1="260.6" x2="191.9" y2="260.6"/>
<rect x="-94" y="200.5" class="st0" width="215.8" height="154.6"/>
<line class="st2" x1="-94" y1="200.7" x2="-63" y2="200.7"/>
<line class="st2" x1="-93.8" y1="217.9" x2="-93.8" y2="201"/>
<line class="st2" x1="-63" y1="200.7" x2="-32.3" y2="200.7"/>
<line class="st2" x1="-32.3" y1="200.7" x2="-1.5" y2="200.7"/>
<line class="st2" x1="-1.5" y1="200.7" x2="29.3" y2="200.7"/>
<line class="st2" x1="29.3" y1="200.7" x2="60" y2="200.7"/>
<line class="st2" x1="60" y1="200.7" x2="90.8" y2="200.7"/>
<line class="st2" x1="90.8" y1="200.7" x2="121.8" y2="200.7"/>
<line class="st2" x1="121.5" y1="217.9" x2="121.5" y2="201"/>
<line class="st2" x1="-93.8" y1="235" x2="-93.8" y2="217.9"/>
<line class="st2" x1="121.5" y1="235" x2="121.5" y2="217.9"/>
<line class="st2" x1="-93.8" y1="252.1" x2="-93.8" y2="235"/>
<line class="st2" x1="121.5" y1="252.1" x2="121.5" y2="235"/>
<line class="st2" x1="-93.8" y1="269.2" x2="-93.8" y2="252.1"/>
<line class="st2" x1="121.5" y1="269.2" x2="121.5" y2="252.1"/>
<line class="st2" x1="-93.8" y1="286.3" x2="-93.8" y2="269.2"/>
<line class="st2" x1="121.5" y1="286.3" x2="121.5" y2="269.2"/>
<line class="st2" x1="-93.8" y1="303.5" x2="-93.8" y2="286.3"/>
<line class="st2" x1="121.5" y1="303.5" x2="121.5" y2="286.3"/>
<line class="st2" x1="-93.8" y1="320.6" x2="-93.8" y2="303.5"/>
<line class="st2" x1="121.5" y1="320.6" x2="121.5" y2="303.5"/>
<line class="st2" x1="-93.8" y1="337.7" x2="-93.8" y2="320.6"/>
<line class="st2" x1="121.5" y1="337.7" x2="121.5" y2="320.6"/>
<line class="st2" x1="-93.8" y1="354.6" x2="-93.8" y2="337.7"/>
<line class="st2" x1="121.5" y1="354.6" x2="121.5" y2="337.7"/>
<line class="st2" x1="-94" y1="354.8" x2="-63" y2="354.8"/>
<line class="st2" x1="-63" y1="354.8" x2="-32.3" y2="354.8"/>
<line class="st2" x1="-32.3" y1="354.8" x2="-1.5" y2="354.8"/>
<line class="st2" x1="-1.5" y1="354.8" x2="29.3" y2="354.8"/>
<line class="st2" x1="29.3" y1="354.8" x2="60" y2="354.8"/>
<line class="st2" x1="60" y1="354.8" x2="90.8" y2="354.8"/>
<line class="st2" x1="90.8" y1="354.8" x2="121.8" y2="354.8"/>
<line class="st1" x1="-93.5" y1="235" x2="-63" y2="235"/>
<line class="st1" x1="-63" y1="235" x2="-32.3" y2="235"/>
<line class="st1" x1="-32.3" y1="235" x2="-1.5" y2="235"/>
<line class="st1" x1="-1.5" y1="235" x2="29.3" y2="235"/>
<line class="st1" x1="29.3" y1="235" x2="60" y2="235"/>
<line class="st1" x1="60" y1="235" x2="90.8" y2="235"/>
<line class="st1" x1="90.8" y1="235" x2="121.3" y2="235"/>
<line class="st1" x1="-93.5" y1="252.1" x2="-63" y2="252.1"/>
<line class="st1" x1="-63" y1="252.1" x2="-32.3" y2="252.1"/>
<line class="st1" x1="-32.3" y1="252.1" x2="-1.5" y2="252.1"/>
<line class="st1" x1="-1.5" y1="252.1" x2="29.3" y2="252.1"/>
<line class="st1" x1="29.3" y1="252.1" x2="60" y2="252.1"/>
<line class="st1" x1="60" y1="252.1" x2="90.8" y2="252.1"/>
<line class="st1" x1="90.8" y1="252.1" x2="121.3" y2="252.1"/>
<line class="st1" x1="-93.5" y1="269.2" x2="-63" y2="269.2"/>
<line class="st1" x1="-63" y1="269.2" x2="-32.3" y2="269.2"/>
<line class="st1" x1="-32.3" y1="269.2" x2="-1.5" y2="269.2"/>
<line class="st1" x1="-1.5" y1="269.2" x2="29.3" y2="269.2"/>
<line class="st1" x1="29.3" y1="269.2" x2="60" y2="269.2"/>
<line class="st1" x1="60" y1="269.2" x2="90.8" y2="269.2"/>
<line class="st1" x1="90.8" y1="269.2" x2="121.3" y2="269.2"/>
<line class="st1" x1="-93.5" y1="286.3" x2="-63" y2="286.3"/>
<line class="st1" x1="-63" y1="286.3" x2="-32.3" y2="286.3"/>
<line class="st1" x1="-32.3" y1="286.3" x2="-1.5" y2="286.3"/>
<line class="st1" x1="-1.5" y1="286.3" x2="29.3" y2="286.3"/>
<line class="st1" x1="29.3" y1="286.3" x2="60" y2="286.3"/>
<line class="st1" x1="60" y1="286.3" x2="90.8" y2="286.3"/>
<line class="st1" x1="90.8" y1="286.3" x2="121.3" y2="286.3"/>
<line class="st1" x1="-93.5" y1="303.5" x2="-63" y2="303.5"/>
<line class="st1" x1="-63" y1="303.5" x2="-32.3" y2="303.5"/>
<line class="st1" x1="-32.3" y1="303.5" x2="-1.5" y2="303.5"/>
<line class="st1" x1="-1.5" y1="303.5" x2="29.3" y2="303.5"/>
<line class="st1" x1="29.3" y1="303.5" x2="60" y2="303.5"/>
<line class="st1" x1="60" y1="303.5" x2="90.8" y2="303.5"/>
<line class="st1" x1="90.8" y1="303.5" x2="121.3" y2="303.5"/>
<line class="st1" x1="-93.5" y1="320.6" x2="-63" y2="320.6"/>
<line class="st1" x1="-63" y1="320.6" x2="-32.3" y2="320.6"/>
<line class="st1" x1="-32.3" y1="320.6" x2="-1.5" y2="320.6"/>
<line class="st1" x1="-1.5" y1="320.6" x2="29.3" y2="320.6"/>
<line class="st1" x1="29.3" y1="320.6" x2="60" y2="320.6"/>
<line class="st1" x1="60" y1="320.6" x2="90.8" y2="320.6"/>
<line class="st1" x1="90.8" y1="320.6" x2="121.3" y2="320.6"/>
<line class="st1" x1="-93.5" y1="337.7" x2="-63" y2="337.7"/>
<line class="st1" x1="-63" y1="337.7" x2="-32.3" y2="337.7"/>
<line class="st1" x1="-32.3" y1="337.7" x2="-1.5" y2="337.7"/>
<line class="st1" x1="-1.5" y1="337.7" x2="29.3" y2="337.7"/>
<line class="st1" x1="29.3" y1="337.7" x2="60" y2="337.7"/>
<line class="st1" x1="60" y1="337.7" x2="90.8" y2="337.7"/>
<line class="st1" x1="90.8" y1="337.7" x2="121.3" y2="337.7"/>
<line class="st1" x1="-93.5" y1="217.9" x2="-63" y2="217.9"/>
<line class="st1" x1="-63" y1="217.9" x2="-32.3" y2="217.9"/>
<line class="st1" x1="-32.3" y1="217.9" x2="-1.5" y2="217.9"/>
<line class="st1" x1="-1.5" y1="217.9" x2="29.3" y2="217.9"/>
<line class="st1" x1="29.3" y1="217.9" x2="60" y2="217.9"/>
<line class="st1" x1="60" y1="217.9" x2="90.8" y2="217.9"/>
<line class="st1" x1="90.8" y1="217.9" x2="121.3" y2="217.9"/>
<rect x="97.2" y="352.6" class="st4" width="8.7" height="2"/>
<rect x="75.2" y="219" class="st3" width="8.7" height="135.5"/>
<rect x="66.5" y="219" class="st4" width="8.7" height="135.5"/>
<rect x="44.6" y="351.8" class="st3" width="8.7" height="2.8"/>
<rect x="35.9" y="351.8" class="st4" width="8.7" height="2.8"/>
<rect x="13.9" y="350.6" class="st3" width="8.7" height="4"/>
<rect x="5.2" y="351.8" class="st4" width="8.7" height="2.8"/>
<rect x="-16.7" y="350.6" class="st3" width="8.7" height="4"/>
<rect x="-25.5" y="350.6" class="st4" width="8.7" height="4"/>
<rect x="-47.4" y="351.8" class="st3" width="8.7" height="2.8"/>
<rect x="-56.1" y="350.6" class="st4" width="8.7" height="4"/>
<rect x="-78.1" y="332.5" class="st3" width="8.7" height="22"/>
<rect x="-86.7" y="332.5" class="st4" width="8.7" height="22"/>
<g class="st5">
	<path d="M-101.8,220.9c-1,0-1.4-0.6-1.4-1.6c0-0.6,0.1-1.3,0.8-1.5c-0.6-0.2-0.7-0.7-0.7-1.3c0-1,0.4-1.6,1.4-1.6
		c1,0,1.4,0.5,1.4,1.5c0,0.6-0.1,1.2-0.8,1.4c0.7,0.1,0.8,0.8,0.8,1.4C-100.4,220.2-100.7,220.9-101.8,220.9z M-101.8,218
		c-0.7,0-0.8,0.6-0.8,1.2c0,0.6,0.1,1.2,0.8,1.2c0.7,0,0.8-0.6,0.8-1.2C-101.1,218.6-101.1,218-101.8,218z M-101.8,215.4
		c-0.6,0-0.8,0.5-0.8,1.1c0,0.5,0.2,1.1,0.7,1.1c0.6,0,0.7-0.5,0.7-1C-101.1,215.9-101.2,215.4-101.8,215.4z"/>
	<path d="M-98.2,220.9c-1.3,0-1.4-1-1.4-2.5v-1.1c0-1.5,0.2-2.4,1.4-2.4s1.4,0.9,1.4,2.4v1.1C-96.8,219.9-96.9,220.9-98.2,220.9z
		 M-97.5,217.3c0-1.3-0.1-1.9-0.8-1.9c-0.7,0-0.8,0.7-0.8,1.9v1.2c0,1.2,0.1,1.9,0.8,1.9c0.7,0,0.8-0.7,0.8-1.9V217.3z"/>
</g>
<g class="st5">
	<path d="M-102.1,238h-0.7l1.7-5.3h-2.2v-0.5h2.8v0.6L-102.1,238z"/>
	<path d="M-98.2,238.1c-1.3,0-1.4-1-1.4-2.5v-1.1c0-1.5,0.2-2.4,1.4-2.4s1.4,0.9,1.4,2.4v1.1C-96.8,237.1-96.9,238.1-98.2,238.1z
		 M-97.5,234.5c0-1.3-0.1-1.9-0.8-1.9c-0.7,0-0.8,0.7-0.8,1.9v1.2c0,1.2,0.1,1.9,0.8,1.9c0.7,0,0.8-0.7,0.8-1.9V234.5z"/>
</g>
<g class="st5">
	<path d="M-101.8,255.3c-1.3,0-1.4-1.2-1.4-2.4v-1.1c0-1.1,0.1-2.4,1.5-2.4c0.9,0,1.3,0.4,1.3,1.3h-0.7c0-0.5-0.2-0.8-0.7-0.8
		c-0.8,0-0.8,1-0.8,2v0.3c0.2-0.4,0.5-0.5,1-0.5c1,0,1.2,0.8,1.2,1.8C-100.4,254.4-100.6,255.3-101.8,255.3z M-101.8,252.1
		c-0.7,0-0.8,0.7-0.8,1.4c0,0.7,0.1,1.4,0.8,1.4c0.7,0,0.8-0.8,0.8-1.4C-101,252.7-101.1,252.1-101.8,252.1z"/>
	<path d="M-98.2,255.3c-1.3,0-1.4-1-1.4-2.5v-1.1c0-1.5,0.2-2.4,1.4-2.4s1.4,0.9,1.4,2.4v1.1C-96.8,254.3-96.9,255.3-98.2,255.3z
		 M-97.5,251.7c0-1.3-0.1-1.9-0.8-1.9c-0.7,0-0.8,0.7-0.8,1.9v1.2c0,1.2,0.1,1.9,0.8,1.9c0.7,0,0.8-0.7,0.8-1.9V251.7z"/>
</g>
<g class="st5">
	<path d="M-101.9,272.5c-1,0-1.3-0.5-1.3-1.4h0.7c0,0.6,0.1,0.9,0.7,0.9c0.7,0,0.8-0.6,0.8-1.5c0-0.7-0.1-1.3-0.8-1.3
		c-0.4,0-0.7,0.2-0.7,0.6h-0.6l0.1-3.2h2.5v0.5h-1.9l-0.1,2c0.2-0.3,0.5-0.4,0.9-0.4c1.1,0,1.2,0.9,1.2,1.8
		C-100.4,271.6-100.6,272.5-101.9,272.5z"/>
	<path d="M-98.2,272.5c-1.3,0-1.4-1-1.4-2.5v-1.1c0-1.5,0.2-2.4,1.4-2.4s1.4,0.9,1.4,2.4v1.1C-96.8,271.5-96.9,272.5-98.2,272.5z
		 M-97.5,268.9c0-1.3-0.1-1.9-0.8-1.9c-0.7,0-0.8,0.7-0.8,1.9v1.2c0,1.2,0.1,1.9,0.8,1.9c0.7,0,0.8-0.7,0.8-1.9V268.9z"/>
</g>
<g class="st5">
	<path d="M-100.9,288.2v1.4h-0.6v-1.4h-1.9v-0.6l1.6-3.8h0.9v3.9h0.6v0.5H-100.9z M-101.5,284.4l-1.4,3.3h1.4V284.4z"/>
	<path d="M-98.2,289.7c-1.3,0-1.4-1-1.4-2.5v-1.1c0-1.5,0.2-2.4,1.4-2.4s1.4,0.9,1.4,2.4v1.1C-96.8,288.7-96.9,289.7-98.2,289.7z
		 M-97.5,286.1c0-1.3-0.1-1.9-0.8-1.9c-0.7,0-0.8,0.7-0.8,1.9v1.2c0,1.2,0.1,1.9,0.8,1.9c0.7,0,0.8-0.7,0.8-1.9V286.1z"/>
</g>
<g class="st5">
	<path d="M-101.9,306.9c-1,0-1.4-0.5-1.4-1.5h0.7c0,0.6,0.2,1,0.8,1c0.6,0,0.8-0.5,0.8-1.1c0-1-0.3-1.2-1.1-1.2v-0.5
		c0.8,0,1.1-0.2,1.1-1.1c0-0.5-0.1-1-0.7-1c-0.6,0-0.7,0.4-0.7,1h-0.6v-0.1c0-0.9,0.4-1.4,1.4-1.4s1.4,0.5,1.4,1.4
		c0,0.7-0.2,1.3-0.8,1.4c0.7,0.1,0.9,0.7,0.9,1.4C-100.4,306.2-100.8,306.9-101.9,306.9z"/>
	<path d="M-98.2,306.9c-1.3,0-1.4-1-1.4-2.5v-1.1c0-1.5,0.2-2.4,1.4-2.4s1.4,0.9,1.4,2.4v1.1C-96.8,305.9-96.9,306.9-98.2,306.9z
		 M-97.5,303.3c0-1.3-0.1-1.9-0.8-1.9c-0.7,0-0.8,0.7-0.8,1.9v1.2c0,1.2,0.1,1.9,0.8,1.9c0.7,0,0.8-0.7,0.8-1.9V303.3z"/>
</g>
<g class="st5">
	<path d="M-103.3,324v-0.6l1.8-3c0.2-0.3,0.3-0.7,0.3-1.1c0-0.4-0.2-0.7-0.7-0.7c-0.4,0-0.7,0.2-0.7,0.6c0,0.1,0,0.3,0,0.4h-0.7
		c0-0.1,0-0.2,0-0.3c0.1-0.8,0.6-1.2,1.4-1.2c0.9,0,1.4,0.4,1.4,1.3c0,0.6-0.3,1.2-0.6,1.6l-1.5,2.4h2.2v0.5H-103.3z"/>
	<path d="M-98.2,324.1c-1.3,0-1.4-1-1.4-2.5v-1.1c0-1.5,0.2-2.4,1.4-2.4s1.4,0.9,1.4,2.4v1.1C-96.8,323.1-96.9,324.1-98.2,324.1z
		 M-97.5,320.5c0-1.3-0.1-1.9-0.8-1.9c-0.7,0-0.8,0.7-0.8,1.9v1.2c0,1.2,0.1,1.9,0.8,1.9c0.7,0,0.8-0.7,0.8-1.9V320.5z"/>
</g>
<g class="st5">
	<path d="M-101.9,341.2v-5c-0.3,0.3-0.6,0.5-0.9,0.7v-0.7c0.3-0.2,0.8-0.6,1-0.9h0.6v5.8H-101.9z"/>
	<path d="M-98.2,341.3c-1.3,0-1.4-1-1.4-2.5v-1.1c0-1.5,0.2-2.4,1.4-2.4s1.4,0.9,1.4,2.4v1.1C-96.8,340.3-96.9,341.3-98.2,341.3z
		 M-97.5,337.7c0-1.3-0.1-1.9-0.8-1.9c-0.7,0-0.8,0.7-0.8,1.9v1.2c0,1.2,0.1,1.9,0.8,1.9c0.7,0,0.8-0.7,0.8-1.9V337.7z"/>
</g>
<g class="st5">
	<path d="M-98.2,358.5c-1.3,0-1.4-1-1.4-2.5v-1.1c0-1.5,0.2-2.4,1.4-2.4s1.4,0.9,1.4,2.4v1.1C-96.8,357.5-96.9,358.5-98.2,358.5z
		 M-97.5,354.9c0-1.3-0.1-1.9-0.8-1.9c-0.7,0-0.8,0.7-0.8,1.9v1.2c0,1.2,0.1,1.9,0.8,1.9c0.7,0,0.8-0.7,0.8-1.9V354.9z"/>
</g>
<g class="st5">
	<path d="M-109.1,312.9c0,1.8-1.3,1.9-3.3,1.9c-1.8,0-3.4,0-3.4-2c0-1.3,0.7-1.7,1.8-1.7h0.1v0.8h-0.1c-0.6,0-1.2,0.2-1.2,1
		c0,1.1,1.1,1.2,2.8,1.2c1.9,0,2.8-0.1,2.8-1.1c0-0.9-0.6-1.1-1.3-1.1h-0.1v-0.8h0.1C-109.8,311.1-109.1,311.7-109.1,312.9z"/>
	<path d="M-109.1,308.8c0,1.4-0.9,1.6-2.3,1.6c-1.3,0-2.4-0.2-2.4-1.6c0-1.4,1-1.5,2.3-1.5C-110,307.2-109.1,307.4-109.1,308.8z
		 M-111.7,307.9c-0.7,0-1.6,0-1.6,0.8c0,0.9,1,0.9,1.6,0.9h0.6c0.6,0,1.4,0,1.4-0.8c0-0.8-0.8-0.8-1.4-0.8H-111.7z"/>
	<path d="M-109.2,301.9h-3.1c-0.5,0-1,0-1,0.6c0,0.7,0.7,0.8,1.2,0.8h2.9v0.7h-3.1c-0.4,0-1,0-1,0.6c0,0.6,0.6,0.8,1.3,0.8h2.8v0.7
		h-3.8c-0.3,0-0.5,0-0.8,0v-0.7h0.6c-0.4-0.2-0.7-0.6-0.7-1.1c0-0.7,0.4-0.9,0.7-1c-0.4-0.2-0.7-0.6-0.7-1.1c0-0.9,0.5-1.1,1.5-1.1
		h3.1V301.9z"/>
	<path d="M-109.2,298.2c0,0.5-0.1,0.8-0.5,1h2.2v0.7h-5.2c-0.3,0-0.8,0-1.1,0v-0.7h0.5c-0.4-0.3-0.6-0.6-0.6-1.1
		c0-1.3,1.2-1.3,2.3-1.3C-110.5,296.8-109.2,296.9-109.2,298.2z M-113.3,298.4c0,0.8,0.9,0.9,1.9,0.9c0.8,0,1.8,0,1.8-0.9
		c0-0.8-1.2-0.8-1.9-0.8C-112.4,297.6-113.3,297.6-113.3,298.4z"/>
	<path d="M-109.1,294.4c0,1.4-0.9,1.6-2.3,1.6c-1.3,0-2.4-0.2-2.4-1.6c0-1.4,1-1.5,2.3-1.5C-110,292.8-109.1,293-109.1,294.4z
		 M-111.7,293.6c-0.7,0-1.6,0-1.6,0.8c0,0.9,1,0.9,1.6,0.9h0.6c0.6,0,1.4,0,1.4-0.8c0-0.8-0.8-0.8-1.4-0.8H-111.7z"/>
	<path d="M-109.2,289.5h-2.9c-0.5,0-1.2,0-1.2,0.7c0,0.7,0.8,0.9,1.4,0.9h2.7v0.7h-3.5c-0.3,0-0.7,0-1,0v-0.7h0.6
		c-0.4-0.2-0.7-0.6-0.7-1.2c0-0.9,0.6-1.2,1.4-1.2h3.2V289.5z"/>
	<path d="M-111.4,287h0.3c0.7,0,1.4-0.1,1.4-0.8c0-0.7-0.5-0.8-1-0.8v-0.7c0.9,0,1.5,0.4,1.5,1.5c0,1.4-1,1.6-2.2,1.6
		c-1.2,0-2.5-0.1-2.5-1.6c0-1.5,1.2-1.5,2.3-1.5h0.2V287z M-112.5,285.4c-0.5,0-0.9,0.2-0.9,0.8c0,0.6,0.4,0.8,0.9,0.8
		c0.2,0,0.4,0,0.6,0v-1.7C-112.1,285.3-112.3,285.3-112.5,285.4z"/>
	<path d="M-109.2,281.3h-2.9c-0.5,0-1.2,0-1.2,0.7c0,0.7,0.8,0.9,1.4,0.9h2.7v0.7h-3.5c-0.3,0-0.7,0-1,0V283h0.6
		c-0.4-0.2-0.7-0.6-0.7-1.2c0-0.9,0.6-1.2,1.4-1.2h3.2V281.3z"/>
	<path d="M-109.2,278.1c0,0.9-0.3,1-1.1,1h-2.9v0.7h-0.5v-0.7h-0.8l-0.3-0.7h1.2v-0.8h0.5v0.8h2.9c0.5,0,0.6-0.1,0.6-0.5
		c0-0.1,0-0.2,0-0.3h0.6C-109.2,277.8-109.2,278-109.2,278.1z"/>
	<path d="M-108.3,276.5v0.5l-1.8-0.3V276L-108.3,276.5z"/>
</g>
<g class="st5">
	<path d="M-109.2,268.4v0.9l-3.8,0.9l3.8,0.9v0.9l-4.5,1.1v-0.8l3.9-0.8l-3.9-0.9v-0.8l3.9-0.9l-3.9-0.8v-0.7L-109.2,268.4z"/>
	<path d="M-109.2,265.3c0,0.9-0.3,1-1.1,1h-2.9v0.7h-0.5v-0.7h-0.8l-0.3-0.7h1.2v-0.8h0.5v0.8h2.9c0.5,0,0.6-0.1,0.6-0.5
		c0-0.1,0-0.2,0-0.3h0.6C-109.2,264.9-109.2,265.1-109.2,265.3z"/>
	<path d="M-109,262.9v0.5l-7-3.4v-0.5L-109,262.9z M-112.5,263.2c0,1-0.8,1.2-1.7,1.2c-0.8,0-1.6-0.2-1.6-1.2c0-1,0.8-1.2,1.6-1.2
		C-113.4,262-112.5,262.2-112.5,263.2z M-115.4,263.2c0,0.5,0.6,0.6,1.2,0.6c0.6,0,1.2-0.1,1.2-0.6c0-0.5-0.6-0.6-1.2-0.6
		C-114.8,262.6-115.4,262.7-115.4,263.2z M-109.2,259.7c0,1-0.8,1.2-1.7,1.2c-0.8,0-1.6-0.2-1.6-1.2c0-1,0.8-1.2,1.6-1.2
		C-110,258.5-109.2,258.7-109.2,259.7z M-112,259.7c0,0.5,0.6,0.6,1.2,0.6c0.6,0,1.2-0.1,1.2-0.6s-0.6-0.6-1.2-0.6
		C-111.4,259.1-112,259.2-112,259.7z"/>
</g>
<g class="st5">
	<path d="M142.1,296.4c0,0.8-0.4,1.3-1.2,1.4c-0.1,0-0.2,0-0.3,0v-0.7c0.1,0,0.2,0,0.3,0c0.4,0,0.7-0.2,0.7-0.7
		c0-0.5-0.3-0.7-0.7-0.7c-0.5,0-0.7,0.3-1,0.8l-0.1,0.2c-0.3,0.5-0.5,0.9-1.2,0.9c-0.8,0-1.2-0.6-1.2-1.4c0-0.8,0.3-1.2,1-1.3
		c0.1,0,0.2,0,0.4,0v0.7c-0.1,0-0.2,0-0.3,0c-0.3,0-0.6,0.2-0.6,0.6c0,0.4,0.3,0.6,0.6,0.6c0.4,0,0.6-0.3,0.8-0.7l0.1-0.2
		c0.3-0.6,0.6-1.1,1.4-1.1C141.7,295,142.1,295.5,142.1,296.4z"/>
	<path d="M142.1,292.7c0,1.4-0.9,1.6-2.3,1.6c-1.2,0-2.4-0.1-2.4-1.6c0-1.1,0.5-1.4,1.5-1.4v0.7c-0.5,0-1,0.1-1,0.7
		c0,0.8,1,0.8,1.9,0.8c1.3,0,1.8-0.1,1.8-0.8c0-0.6-0.5-0.7-1-0.7v-0.7C141.4,291.3,142.1,291.5,142.1,292.7z"/>
	<path d="M136,288.9c0,0.5,0.4,0.5,0.8,0.5h0.7v-0.8h0.5v0.8h4v0.7h-4v0.7h-0.5v-0.7H137c-0.8,0-1.5-0.1-1.5-1.2c0-0.1,0-0.3,0-0.4
		h0.6C136,288.7,136,288.9,136,288.9z"/>
	<path d="M142.1,287.9v0.6l-6.8-2.1v-0.6L142.1,287.9z"/>
	<path d="M141.7,282.5c0.2,0.2,0.3,0.5,0.3,0.9c0,0.5-0.2,0.8-0.6,1.1l0.5,0v0.7c-0.2,0-0.6,0-0.9,0h-5.6v-0.7h2.4
		c-0.4-0.3-0.6-0.6-0.6-1.1c0-0.4,0.1-0.7,0.4-0.9c0.4-0.4,1.2-0.4,1.9-0.4C140.4,282,141.3,282.1,141.7,282.5z M138.2,283
		c-0.2,0.1-0.3,0.3-0.3,0.6c0,0.3,0.1,0.5,0.3,0.6c0.4,0.3,1,0.3,1.5,0.3c0.5,0,1,0,1.4-0.2c0.3-0.1,0.4-0.3,0.4-0.7
		c0-0.3-0.1-0.4-0.3-0.6c-0.3-0.2-0.8-0.3-1.6-0.3C139.2,282.7,138.5,282.7,138.2,283z"/>
	<path d="M141.7,278.4c0.2,0.2,0.3,0.5,0.3,0.9c0,0.5-0.2,0.8-0.6,1.1l0.5,0v0.7c-0.2,0-0.6,0-0.9,0h-5.6v-0.7h2.4
		c-0.4-0.3-0.6-0.6-0.6-1.1c0-0.4,0.1-0.7,0.4-0.9c0.4-0.4,1.2-0.4,1.9-0.4C140.4,277.9,141.3,277.9,141.7,278.4z M138.2,278.8
		c-0.2,0.1-0.3,0.3-0.3,0.6c0,0.3,0.1,0.5,0.3,0.6c0.4,0.3,1,0.3,1.5,0.3c0.5,0,1,0,1.4-0.2c0.3-0.1,0.4-0.3,0.4-0.7
		c0-0.3-0.1-0.4-0.3-0.6c-0.3-0.2-0.8-0.3-1.6-0.3C139.2,278.6,138.5,278.6,138.2,278.8z"/>
	<path d="M142,276.8h-6.5v-0.7h6.5V276.8z"/>
</g>
<g class="st5">
	<path d="M-79,364.4c-1.6,0-1.7-1.2-1.7-3c0-1.6,0-3,1.8-3c1.1,0,1.5,0.6,1.5,1.6v0.1h-0.7v-0.1c0-0.6-0.1-1.1-0.9-1.1
		c-1,0-1,1-1,2.5c0,1.7,0,2.5,1,2.5c0.8,0,1-0.5,1-1.2v-0.1h0.7v0.1C-77.4,363.8-77.9,364.4-79,364.4z"/>
</g>
<g class="st5">
	<path d="M-76,367v-2.9c-0.2,0.2-0.3,0.3-0.5,0.4v-0.4c0.2-0.1,0.4-0.3,0.6-0.5h0.3v3.4H-76z"/>
</g>
<g class="st5">
	<path d="M-48.3,364.4c-1.6,0-1.7-1.2-1.7-3c0-1.6,0-3,1.8-3c1.1,0,1.5,0.6,1.5,1.6v0.1h-0.7v-0.1c0-0.6-0.1-1.1-0.9-1.1
		c-1,0-1,1-1,2.5c0,1.7,0,2.5,1,2.5c0.8,0,1-0.5,1-1.2v-0.1h0.7v0.1C-46.6,363.8-47.2,364.4-48.3,364.4z"/>
</g>
<g class="st5">
	<path d="M-46.2,367v-0.3l1.1-1.7c0.1-0.2,0.2-0.4,0.2-0.6c0-0.3-0.1-0.4-0.4-0.4c-0.3,0-0.4,0.1-0.4,0.4c0,0.1,0,0.2,0,0.2h-0.4
		c0-0.1,0-0.1,0-0.2c0-0.5,0.4-0.7,0.8-0.7c0.5,0,0.8,0.3,0.8,0.8c0,0.4-0.2,0.7-0.4,1l-0.9,1.4h1.3v0.3H-46.2z"/>
</g>
<g class="st5">
	<path d="M-17.6,364.4c-1.6,0-1.7-1.2-1.7-3c0-1.6,0-3,1.8-3c1.1,0,1.5,0.6,1.5,1.6v0.1h-0.7v-0.1c0-0.6-0.1-1.1-0.9-1.1
		c-1,0-1,1-1,2.5c0,1.7,0,2.5,1,2.5c0.8,0,1-0.5,1-1.2v-0.1h0.7v0.1C-15.9,363.8-16.5,364.4-17.6,364.4z"/>
</g>
<g class="st5">
	<path d="M-14.6,367c-0.6,0-0.8-0.3-0.8-0.9h0.4c0,0.4,0.1,0.6,0.4,0.6c0.4,0,0.5-0.3,0.5-0.7c0-0.6-0.2-0.7-0.7-0.7v-0.3
		c0.5,0,0.6-0.1,0.6-0.7c0-0.3-0.1-0.6-0.4-0.6c-0.3,0-0.4,0.3-0.4,0.6h-0.4v0c0-0.5,0.3-0.8,0.8-0.8s0.8,0.3,0.8,0.8
		c0,0.4-0.1,0.7-0.5,0.8c0.4,0.1,0.5,0.4,0.5,0.8C-13.8,366.6-14,367-14.6,367z"/>
</g>
<g class="st5">
	<path d="M13.1,364.4c-1.6,0-1.7-1.2-1.7-3c0-1.6,0-3,1.8-3c1.1,0,1.5,0.6,1.5,1.6v0.1H14v-0.1c0-0.6-0.1-1.1-0.9-1.1
		c-1,0-1,1-1,2.5c0,1.7,0,2.5,1,2.5c0.8,0,1-0.5,1-1.2v-0.1h0.7v0.1C14.8,363.8,14.2,364.4,13.1,364.4z"/>
</g>
<g class="st5">
	<path d="M16.7,366.2v0.8h-0.4v-0.8h-1.1v-0.4l0.9-2.2h0.5v2.3H17v0.3H16.7z M16.3,363.9l-0.8,1.9h0.8V363.9z"/>
</g>
<g class="st5">
	<path d="M43.8,364.4c-1.6,0-1.7-1.2-1.7-3c0-1.6,0-3,1.8-3c1.1,0,1.5,0.6,1.5,1.6v0.1h-0.7v-0.1c0-0.6-0.1-1.1-0.9-1.1
		c-1,0-1,1-1,2.5c0,1.7,0,2.5,1,2.5c0.8,0,1-0.5,1-1.2v-0.1h0.7v0.1C45.5,363.8,45,364.4,43.8,364.4z"/>
</g>
<g class="st5">
	<path d="M46.8,367c-0.6,0-0.8-0.3-0.8-0.8h0.4c0,0.3,0.1,0.5,0.4,0.5c0.4,0,0.5-0.3,0.5-0.9c0-0.4-0.1-0.8-0.4-0.8
		c-0.2,0-0.4,0.1-0.4,0.3h-0.4l0.1-1.8h1.5v0.3h-1.1l0,1.2c0.1-0.2,0.3-0.2,0.5-0.2c0.6,0,0.7,0.5,0.7,1
		C47.7,366.5,47.6,367,46.8,367z"/>
</g>
<g class="st5">
	<path d="M73.3,364.4c-1.6,0-1.7-1.2-1.7-3c0-1.6,0-3,1.8-3c1.1,0,1.5,0.6,1.5,1.6v0.1h-0.7v-0.1c0-0.6-0.1-1.1-0.9-1.1
		c-1,0-1,1-1,2.5c0,1.7,0,2.5,1,2.5c0.8,0,1-0.5,1-1.2v-0.1h0.7v0.1C74.9,363.8,74.4,364.4,73.3,364.4z"/>
</g>
<g class="st5">
	<path d="M76.3,367c-0.8,0-0.8-0.7-0.8-1.4v-0.7c0-0.7,0.1-1.4,0.9-1.4c0.5,0,0.8,0.2,0.8,0.8h-0.4c0-0.3-0.1-0.5-0.4-0.5
		c-0.5,0-0.5,0.6-0.5,1.1v0.2c0.1-0.2,0.3-0.3,0.6-0.3c0.6,0,0.7,0.4,0.7,1C77.1,366.5,77,367,76.3,367z M76.3,365.2
		c-0.4,0-0.5,0.4-0.5,0.8c0,0.4,0.1,0.8,0.5,0.8c0.4,0,0.4-0.5,0.4-0.8C76.8,365.5,76.7,365.2,76.3,365.2z"/>
	<path d="M78.8,365.9v0.9h-0.3v-0.9h-0.9v-0.3h0.9v-0.9h0.3v0.9h0.9v0.3H78.8z"/>
</g>
<g class="st5">
	<path d="M103.5,364.4c-1.6,0-1.7-1.2-1.7-3c0-1.6,0-3,1.8-3c1.1,0,1.5,0.6,1.5,1.6v0.1h-0.7v-0.1c0-0.6-0.1-1.1-0.9-1.1
		c-1,0-1,1-1,2.5c0,1.7,0,2.5,1,2.5c0.8,0,1-0.5,1-1.2v-0.1h0.7v0.1C105.1,363.8,104.6,364.4,103.5,364.4z"/>
	<path d="M107.2,364.4c-1.3,0-1.4-1-1.4-2.5v-1.1c0-1.5,0.2-2.4,1.4-2.4c1.3,0,1.4,0.9,1.4,2.4v1.1
		C108.6,363.4,108.5,364.4,107.2,364.4z M108,360.9c0-1.3-0.1-1.9-0.8-1.9c-0.7,0-0.8,0.7-0.8,1.9v1.2c0,1.2,0.1,1.9,0.8,1.9
		c0.7,0,0.8-0.7,0.8-1.9V360.9z"/>
</g>
<g class="st5">
	<path d="M109.2,367v-0.3l1.1-1.7c0.1-0.2,0.2-0.4,0.2-0.6c0-0.3-0.1-0.4-0.4-0.4c-0.3,0-0.4,0.1-0.4,0.4c0,0.1,0,0.2,0,0.2h-0.4
		c0-0.1,0-0.1,0-0.2c0-0.5,0.4-0.7,0.8-0.7c0.5,0,0.8,0.3,0.8,0.8c0,0.4-0.2,0.7-0.4,1l-0.9,1.4h1.3v0.3H109.2z"/>
</g>
<line class="st6" x1="-79.4" y1="332.7" x2="-76.8" y2="332.7"/>
<line class="st6" x1="-47.4" y1="349.9" x2="-47.4" y2="352.1"/>
<line class="st6" x1="-48.5" y1="349.9" x2="-46.3" y2="349.9"/>
<line class="st6" x1="-48.5" y1="352.1" x2="-46.3" y2="352.1"/>
<line class="st6" x1="-16.7" y1="349.9" x2="-16.7" y2="352.1"/>
<line class="st6" x1="-17.9" y1="349.9" x2="-15.6" y2="349.9"/>
<line class="st6" x1="-17.9" y1="352.1" x2="-15.6" y2="352.1"/>
<line class="st6" x1="13.9" y1="351" x2="13.9" y2="353.2"/>
<line class="st6" x1="12.8" y1="351" x2="15.1" y2="351"/>
<line class="st6" x1="12.8" y1="353.2" x2="15.1" y2="353.2"/>
<line class="st6" x1="44.6" y1="351" x2="44.6" y2="353.2"/>
<line class="st6" x1="43.5" y1="351" x2="45.7" y2="351"/>
<line class="st6" x1="43.5" y1="353.2" x2="45.7" y2="353.2"/>
<line class="st6" x1="75.2" y1="213.1" x2="75.2" y2="225.8"/>
<line class="st6" x1="74.1" y1="213.1" x2="76.4" y2="213.1"/>
<line class="st6" x1="74.1" y1="225.8" x2="76.4" y2="225.8"/>
<rect x="-86.6" y="208" class="st0" width="61.6" height="44.1"/>
<rect x="-82.3" y="214.9" class="st4" width="6.9" height="4.2"/>
<g class="st5">
	<path d="M-72.1,214.9v2h1.7v0.5h-1.7v2.7h-0.7v-5.8h2.5v0.6H-72.1z"/>
	<path d="M-68.1,220.2c-1.2,0-1.6-0.5-1.6-1.7v-0.1h0.7v0.1c0,0.6,0.2,1.1,0.9,1.1c0.6,0,0.9-0.4,0.9-0.9c0-0.6-0.3-0.8-0.9-1.2
		l-0.3-0.2c-0.7-0.4-1.2-0.8-1.2-1.7c0-1,0.7-1.4,1.6-1.4c1,0,1.5,0.4,1.5,1.4v0.2h-0.7v-0.1c0-0.5-0.2-0.9-0.8-0.9
		c-0.5,0-0.8,0.3-0.8,0.9c0,0.6,0.4,0.8,0.9,1.2l0.3,0.2c0.7,0.4,1.2,0.7,1.2,1.7C-66.5,219.7-67.1,220.2-68.1,220.2z"/>
	<path d="M-61,220.1h-0.8l-1-5.1l-1.1,5.1h-0.8l-1.3-5.8h0.7l1,5.1l1.1-5.1h0.8l1,5.1l1.1-5.1h0.6L-61,220.1z"/>
	<path d="M-56.1,219.7c-0.3,0.3-0.7,0.4-1.4,0.4h-1.4v-5.8h1.4c0.6,0,1,0.1,1.3,0.3c0.6,0.4,0.6,1.1,0.6,2.5
		C-55.5,218.4-55.6,219.2-56.1,219.7z M-56.6,215.2c-0.2-0.3-0.6-0.4-1-0.4h-0.7v4.7h0.8c0.2,0,0.5-0.1,0.7-0.2
		c0.4-0.3,0.5-1,0.5-2.2C-56.2,216.3-56.3,215.6-56.6,215.2z"/>
</g>
<rect x="-82.3" y="227.9" class="st3" width="6.9" height="4.2"/>
<g class="st5">
	<path d="M-71.6,230.5h-0.5v2.6h-0.7v-5.8h1.3c1.1,0,1.6,0.4,1.6,1.5C-69.8,230.3-70.5,230.5-71.6,230.5z M-71.5,227.9h-0.6v2.1h0.5
		c0.8,0,1.1-0.2,1.1-1.1C-70.5,228.1-70.8,227.9-71.5,227.9z"/>
	<path d="M-67.1,233.1h-0.8l-1.5-5.8h0.7l1.2,5.1l1.2-5.1h0.7L-67.1,233.1z"/>
	<path d="M-63.4,227.9v5.2h-0.7v-5.2h-1.3v-0.6h3.4v0.6H-63.4z"/>
</g>
<g class="st5">
	<path d="M-59.5,233.1v-5.8h0.6v5.8H-59.5z"/>
	<path d="M-55.9,233.1l0-0.5c-0.3,0.4-0.6,0.6-1.1,0.6c-0.7,0-1-0.5-1-1.2c0-1.3,1.1-1.4,2.1-1.4v-0.2c0-0.5,0-1-0.6-1
		c-0.4,0-0.7,0.2-0.7,0.6v0h-0.6v0c0-0.8,0.6-1.1,1.3-1.1c1,0,1.2,0.4,1.2,1.3v1.5c0,0.4,0,0.9,0,1.3H-55.9z M-55.9,231.1h-0.2
		c-0.6,0-1.3,0.1-1.3,0.9c0,0.4,0.1,0.8,0.6,0.8c0.7,0,0.8-0.6,0.8-1.2V231.1z"/>
	<path d="M-51.9,232.9c-0.2,0.2-0.4,0.3-0.8,0.3c-0.5,0-0.7-0.2-1-0.5l0,0.5h-0.6c0-0.2,0-0.6,0-0.8v-5h0.6v2.2
		c0.3-0.4,0.6-0.5,1-0.5c0.4,0,0.6,0.1,0.8,0.3c0.3,0.4,0.4,1.1,0.4,1.7C-51.5,231.7-51.5,232.5-51.9,232.9z M-52.3,229.7
		c-0.1-0.2-0.3-0.3-0.5-0.3c-0.3,0-0.4,0.1-0.6,0.3c-0.2,0.3-0.2,0.9-0.2,1.4c0,0.4,0,0.9,0.2,1.2c0.1,0.2,0.3,0.4,0.6,0.4
		c0.2,0,0.4-0.1,0.5-0.3c0.2-0.3,0.2-0.7,0.2-1.4C-52.1,230.6-52.1,230-52.3,229.7z"/>
</g>
<g class="st5">
	<path d="M-47,229.6c-0.6,0-0.9,0.4-0.9,1v2.5h-0.6v-3.3c0-0.2,0-0.6,0-0.7h0.6v0.5c0.2-0.4,0.6-0.6,1-0.6h0.1v0.6
		C-46.9,229.6-47,229.6-47,229.6z"/>
	<path d="M-45.8,231.2v0.3c0,0.7,0.1,1.3,0.7,1.3c0.6,0,0.7-0.4,0.7-0.9h0.6c0,0.8-0.4,1.4-1.4,1.4c-1.2,0-1.4-0.9-1.4-1.9
		c0-1.1,0.1-2.3,1.4-2.3c1.3,0,1.3,1,1.3,2v0.2H-45.8z M-44.4,230.2c0-0.4-0.2-0.8-0.7-0.8c-0.5,0-0.7,0.3-0.7,0.8
		c0,0.2,0,0.3,0,0.5h1.5C-44.4,230.6-44.4,230.4-44.4,230.2z"/>
	<path d="M-41.9,233.2c-0.8,0-1.2-0.3-1.2-1c0-0.1,0-0.2,0-0.3h0.6c0,0.1,0,0.2,0,0.2c0,0.4,0.2,0.6,0.6,0.6c0.4,0,0.6-0.2,0.6-0.6
		c0-0.5-0.3-0.6-0.7-0.9l-0.2-0.1c-0.5-0.2-0.8-0.5-0.8-1.1c0-0.7,0.5-1,1.2-1c0.7,0,1,0.3,1.1,0.9c0,0.1,0,0.2,0,0.3h-0.6
		c0-0.1,0-0.2,0-0.3c0-0.3-0.2-0.5-0.6-0.5c-0.3,0-0.5,0.2-0.5,0.6c0,0.3,0.2,0.5,0.6,0.7l0.2,0.1c0.5,0.3,1,0.5,1,1.2
		C-40.6,232.8-41.1,233.2-41.9,233.2z"/>
	<path d="M-37.7,233.1l0-0.5c-0.2,0.4-0.6,0.6-1,0.6c-0.8,0-1.1-0.5-1.1-1.2v-2.9h0.6v2.6c0,0.5,0,1,0.6,1c0.7,0,0.8-0.6,0.8-1.2
		v-2.4h0.6v3.1c0,0.3,0,0.6,0,0.9H-37.7z"/>
	<path d="M-36,233.1v-5.8h0.6v5.8H-36z"/>
	<path d="M-33.2,233.1c-0.8,0-0.9-0.3-0.9-1v-2.6h-0.6v-0.5h0.6v-0.7l0.6-0.3v1h0.7v0.5h-0.7v2.5c0,0.5,0.1,0.6,0.5,0.6
		c0.1,0,0.2,0,0.3,0v0.5C-32.9,233.1-33.1,233.1-33.2,233.1z"/>
	<path d="M-31.1,233.2c-0.8,0-1.2-0.3-1.2-1c0-0.1,0-0.2,0-0.3h0.6c0,0.1,0,0.2,0,0.2c0,0.4,0.2,0.6,0.6,0.6c0.4,0,0.6-0.2,0.6-0.6
		c0-0.5-0.3-0.6-0.7-0.9l-0.2-0.1c-0.5-0.2-0.8-0.5-0.8-1.1c0-0.7,0.5-1,1.2-1c0.7,0,1,0.3,1.1,0.9c0,0.1,0,0.2,0,0.3h-0.6
		c0-0.1,0-0.2,0-0.3c0-0.3-0.2-0.5-0.6-0.5c-0.3,0-0.5,0.2-0.5,0.6c0,0.3,0.2,0.5,0.6,0.7l0.2,0.1c0.5,0.3,1,0.5,1,1.2
		C-29.8,232.8-30.3,233.2-31.1,233.2z"/>
</g>
<line class="st7" x1="-82.3" y1="243.6" x2="-75.3" y2="243.6"/>
<g class="st5">
	<path d="M-72.7,246.1v-5.8h2.7v0.6h-2v2h1.9v0.5H-72v2.2h2v0.6H-72.7z"/>
	<path d="M-67.6,242.6c-0.6,0-0.9,0.4-0.9,1v2.5h-0.6v-3.3c0-0.2,0-0.6,0-0.7h0.6v0.5c0.2-0.4,0.6-0.6,1-0.6h0.1v0.6
		C-67.5,242.6-67.6,242.6-67.6,242.6z"/>
	<path d="M-65.3,242.6c-0.6,0-0.9,0.4-0.9,1v2.5h-0.6v-3.3c0-0.2,0-0.6,0-0.7h0.6v0.5c0.2-0.4,0.6-0.6,1-0.6h0.1v0.6
		C-65.2,242.6-65.3,242.6-65.3,242.6z"/>
	<path d="M-63.4,246.2c-1.3,0-1.4-0.8-1.4-2.1c0-1.2,0.2-2.1,1.4-2.1c1.3,0,1.4,0.9,1.4,2.1C-62,245.4-62.2,246.2-63.4,246.2z
		 M-62.6,243.9c0-0.6,0-1.4-0.7-1.4c-0.8,0-0.8,0.9-0.8,1.5v0.6c0,0.5,0,1.3,0.8,1.3c0.7,0,0.8-0.7,0.8-1.2V243.9z"/>
	<path d="M-59.5,242.6c-0.6,0-0.9,0.4-0.9,1v2.5h-0.6v-3.3c0-0.2,0-0.6,0-0.7h0.6v0.5c0.2-0.4,0.6-0.6,1-0.6h0.1v0.6
		C-59.4,242.6-59.5,242.6-59.5,242.6z"/>
</g>
<g class="st5">
	<path d="M-54.4,245.9c-0.2,0.2-0.4,0.3-0.8,0.3c-0.5,0-0.7-0.2-1-0.5l0,0.5h-0.6c0-0.2,0-0.6,0-0.8v-5h0.6v2.2
		c0.3-0.4,0.6-0.5,1-0.5c0.4,0,0.6,0.1,0.8,0.3c0.3,0.4,0.4,1.1,0.4,1.7C-53.9,244.7-54,245.5-54.4,245.9z M-54.8,242.7
		c-0.1-0.2-0.3-0.3-0.5-0.3c-0.3,0-0.4,0.1-0.6,0.3c-0.2,0.3-0.2,0.9-0.2,1.4c0,0.4,0,0.9,0.2,1.2c0.1,0.2,0.3,0.4,0.6,0.4
		c0.2,0,0.4-0.1,0.5-0.3c0.2-0.3,0.2-0.7,0.2-1.4C-54.6,243.6-54.6,243-54.8,242.7z"/>
	<path d="M-51.1,246.1l0-0.5c-0.3,0.4-0.6,0.6-1.1,0.6c-0.7,0-1-0.5-1-1.2c0-1.3,1.1-1.4,2.1-1.4v-0.2c0-0.5,0-1-0.6-1
		c-0.4,0-0.7,0.2-0.7,0.6v0h-0.6v0c0-0.8,0.6-1.1,1.3-1.1c1,0,1.2,0.4,1.2,1.3v1.5c0,0.4,0,0.9,0,1.3H-51.1z M-51.2,244.1h-0.2
		c-0.6,0-1.3,0.1-1.3,0.9c0,0.4,0.1,0.8,0.6,0.8c0.7,0,0.8-0.6,0.8-1.2V244.1z"/>
	<path d="M-48,242.6c-0.6,0-0.9,0.4-0.9,1v2.5h-0.6v-3.3c0-0.2,0-0.6,0-0.7h0.6v0.5c0.2-0.4,0.6-0.6,1-0.6h0.1v0.6
		C-47.9,242.6-47.9,242.6-48,242.6z"/>
</g>
<rect x="-86.6" y="208" class="st6" width="61.6" height="44.1"/>
<line class="st8" x1="105.9" y1="354.1" x2="114.6" y2="354.1"/>
<line class="st6" x1="105.9" y1="352.7" x2="105.9" y2="354.3"/>
<line class="st6" x1="104.8" y1="352.7" x2="107" y2="352.7"/>
<line class="st6" x1="104.8" y1="354.3" x2="107" y2="354.3"/>
</svg>
