<?xml version="1.0" encoding="utf-8"?>
<!-- Generator: Adobe Illustrator 19.1.0, SVG Export Plug-In . SVG Version: 6.00 Build 0)  -->
<svg version="1.1" id="Layer_1" xmlns="http://www.w3.org/2000/svg" xmlns:xlink="http://www.w3.org/1999/xlink" x="0px" y="0px"
	 viewBox="-101 142.1 364.4 282.8" style="enable-background:new -101 142.1 364.4 282.8;" xml:space="preserve">
<style type="text/css">
	.st0{fill:#FFFFFF;stroke:#000000;}
	.st1{enable-background:new    ;}
	.st2{fill:#004483;}
	.st3{fill:#75C044;}
	.st4{fill:none;stroke:#FFFFFF;stroke-width:0.226;stroke-miterlimit:10;}
	.st5{fill:none;stroke:#000000;stroke-width:0.449;}
	.st6{fill:#FFFFFF;}
	.st7{fill:#41AD49;}
	.st8{fill:none;stroke:#000000;stroke-width:0.5;}
	.st9{fill:none;stroke:#D2232A;}
	.st10{fill:none;stroke:#650053;}
	.st11{fill:none;stroke:#004483;}
	.st12{fill:none;stroke:#00AEEF;}
	.st13{fill:none;stroke:#41AD49;}
	.st14{fill:none;stroke:#000000;stroke-width:0.477;}
	.st15{fill:#939598;}
</style>
<g>
	<rect x="-68.7" y="145.9" class="st0" width="294" height="131.1"/>
</g>
<g>
	<g class="st1">
		<path d="M-68.7,411.8c-1.3,0-1.4-1-1.4-2.5v-1.1c0-1.5,0.2-2.4,1.4-2.4s1.4,0.9,1.4,2.4v1.1C-67.2,410.8-67.4,411.8-68.7,411.8z
			 M-67.9,408.3c0-1.3-0.1-1.9-0.8-1.9c-0.7,0-0.8,0.7-0.8,1.9v1.2c0,1.2,0.1,1.9,0.8,1.9c0.7,0,0.8-0.7,0.8-1.9V408.3z"/>
	</g>
	<g class="st1">
		<path d="M-22.2,411.7v-0.6l1.8-3c0.2-0.3,0.3-0.7,0.3-1.1c0-0.4-0.2-0.7-0.7-0.7c-0.4,0-0.7,0.2-0.7,0.6c0,0.1,0,0.3,0,0.4h-0.7
			c0-0.1,0-0.2,0-0.3c0.1-0.8,0.6-1.2,1.4-1.2c0.9,0,1.4,0.4,1.4,1.3c0,0.6-0.3,1.2-0.6,1.6l-1.5,2.4h2.2v0.5H-22.2z"/>
		<path d="M-17.1,411.8c-1.3,0-1.4-1-1.4-2.5v-1.1c0-1.5,0.2-2.4,1.4-2.4s1.4,0.9,1.4,2.4v1.1C-15.7,410.8-15.8,411.8-17.1,411.8z
			 M-16.4,408.3c0-1.3-0.1-1.9-0.8-1.9c-0.7,0-0.8,0.7-0.8,1.9v1.2c0,1.2,0.1,1.9,0.8,1.9c0.7,0,0.8-0.7,0.8-1.9V408.3z"/>
	</g>
	<g class="st1">
		<path d="M30.4,410.3v1.4h-0.6v-1.4h-1.9v-0.6l1.6-3.8h0.9v3.9H31v0.5H30.4z M29.8,406.5l-1.4,3.3h1.4V406.5z"/>
		<path d="M33.1,411.8c-1.3,0-1.4-1-1.4-2.5v-1.1c0-1.5,0.2-2.4,1.4-2.4s1.4,0.9,1.4,2.4v1.1C34.5,410.8,34.4,411.8,33.1,411.8z
			 M33.9,408.3c0-1.3-0.1-1.9-0.8-1.9c-0.7,0-0.8,0.7-0.8,1.9v1.2c0,1.2,0.1,1.9,0.8,1.9c0.7,0,0.8-0.7,0.8-1.9V408.3z"/>
	</g>
	<g class="st1">
		<path d="M79.4,411.8c-1.3,0-1.4-1.2-1.4-2.4v-1.1c0-1.1,0.1-2.4,1.5-2.4c0.9,0,1.3,0.4,1.3,1.3h-0.7c0-0.5-0.2-0.8-0.7-0.8
			c-0.8,0-0.8,1-0.8,2v0.3c0.2-0.4,0.5-0.5,1-0.5c1,0,1.2,0.8,1.2,1.8C80.9,410.9,80.6,411.8,79.4,411.8z M79.5,408.6
			c-0.7,0-0.8,0.7-0.8,1.4c0,0.7,0.1,1.4,0.8,1.4c0.7,0,0.8-0.8,0.8-1.4C80.2,409.2,80.1,408.6,79.5,408.6z"/>
		<path d="M83,411.8c-1.3,0-1.4-1-1.4-2.5v-1.1c0-1.5,0.2-2.4,1.4-2.4c1.3,0,1.4,0.9,1.4,2.4v1.1C84.4,410.8,84.3,411.8,83,411.8z
			 M83.8,408.3c0-1.3-0.1-1.9-0.8-1.9c-0.7,0-0.8,0.7-0.8,1.9v1.2c0,1.2,0.1,1.9,0.8,1.9c0.7,0,0.8-0.7,0.8-1.9V408.3z"/>
	</g>
	<g class="st1">
		<path d="M128.9,411.8c-1,0-1.4-0.6-1.4-1.6c0-0.6,0.1-1.3,0.8-1.5c-0.6-0.2-0.7-0.7-0.7-1.3c0-1,0.4-1.6,1.4-1.6
			c1,0,1.4,0.5,1.4,1.5c0,0.6-0.1,1.2-0.8,1.4c0.7,0.1,0.8,0.8,0.8,1.4C130.3,411.2,130,411.8,128.9,411.8z M128.9,409
			c-0.7,0-0.8,0.6-0.8,1.2c0,0.6,0.1,1.2,0.8,1.2c0.7,0,0.8-0.6,0.8-1.2C129.7,409.6,129.6,409,128.9,409z M128.9,406.4
			c-0.6,0-0.8,0.5-0.8,1.1c0,0.5,0.2,1.1,0.7,1.1c0.6,0,0.7-0.5,0.7-1C129.6,406.9,129.5,406.4,128.9,406.4z"/>
		<path d="M132.5,411.8c-1.3,0-1.4-1-1.4-2.5v-1.1c0-1.5,0.2-2.4,1.4-2.4c1.3,0,1.4,0.9,1.4,2.4v1.1
			C133.9,410.8,133.8,411.8,132.5,411.8z M133.3,408.3c0-1.3-0.1-1.9-0.8-1.9c-0.7,0-0.8,0.7-0.8,1.9v1.2c0,1.2,0.1,1.9,0.8,1.9
			c0.7,0,0.8-0.7,0.8-1.9V408.3z"/>
	</g>
	<g class="st1">
		<path d="M176.9,411.7v-5c-0.3,0.3-0.6,0.5-0.9,0.7v-0.7c0.3-0.2,0.8-0.6,1-0.9h0.6v5.8H176.9z"/>
		<path d="M180.6,411.8c-1.3,0-1.4-1-1.4-2.5v-1.1c0-1.5,0.2-2.4,1.4-2.4c1.3,0,1.4,0.9,1.4,2.4v1.1
			C182,410.8,181.9,411.8,180.6,411.8z M181.4,408.3c0-1.3-0.1-1.9-0.8-1.9c-0.7,0-0.8,0.7-0.8,1.9v1.2c0,1.2,0.1,1.9,0.8,1.9
			c0.7,0,0.8-0.7,0.8-1.9V408.3z"/>
		<path d="M184.2,411.8c-1.3,0-1.4-1-1.4-2.5v-1.1c0-1.5,0.2-2.4,1.4-2.4c1.3,0,1.4,0.9,1.4,2.4v1.1
			C185.7,410.8,185.5,411.8,184.2,411.8z M185,408.3c0-1.3-0.1-1.9-0.8-1.9c-0.7,0-0.8,0.7-0.8,1.9v1.2c0,1.2,0.1,1.9,0.8,1.9
			c0.7,0,0.8-0.7,0.8-1.9V408.3z"/>
	</g>
	<g class="st1">
		<path d="M-93,398.7h2V397h0.6v1.7h2.8v0.7h-5.9v-2.5h0.6V398.7z"/>
		<path d="M-87.7,396.1h-5.9v-0.6h5.9V396.1z"/>
		<path d="M-87.7,392.3l-0.5,0c0.4,0.2,0.6,0.6,0.6,1c0,0.8-0.5,1.1-1.3,1.1h-2.9v-0.6h2.6c0.5,0,1.1,0,1.1-0.7
			c0-0.7-0.6-0.8-1.2-0.8h-2.5v-0.7h3.2c0.3,0,0.6,0,0.9,0V392.3z"/>
		<path d="M-92.8,390.6h-0.7v-0.7h0.7V390.6z M-87.7,390.6h-4.1v-0.6h4.1V390.6z"/>
		<path d="M-87.7,386.8l-0.5,0c0.4,0.2,0.5,0.5,0.5,1c0,1.2-1.2,1.3-2.2,1.3c-1,0-2.1-0.2-2.1-1.3c0-0.5,0.2-0.7,0.5-0.9h-2.2v-0.7
			h5.1c0.2,0,0.6,0,0.8,0V386.8z M-91.4,387.6c0,0.7,0.9,0.8,1.6,0.8c0.9,0,1.7-0.1,1.7-0.7c0-0.8-0.8-0.8-1.6-0.8
			C-90.6,386.8-91.4,386.9-91.4,387.6z"/>
	</g>
	<g class="st1">
		<path d="M-93.1,381.9c0,0.4,0.4,0.5,0.7,0.5h0.6v-0.7h0.5v0.7h3.6v0.6h-3.6v0.6h-0.5V383h-0.4c-0.7,0-1.4-0.1-1.4-1
			c0-0.1,0-0.2,0-0.3h0.5C-93.1,381.7-93.1,381.9-93.1,381.9z"/>
		<path d="M-91.2,379.4c0,0.6,0.4,0.9,1,0.9h2.5v0.7H-91c-0.2,0-0.6,0-0.7,0v-0.6h0.5c-0.4-0.2-0.6-0.6-0.6-1v-0.1h0.6
			C-91.2,379.3-91.2,379.4-91.2,379.4z"/>
		<path d="M-87.7,376.8l-0.5,0c0.4,0.3,0.6,0.6,0.6,1.1c0,0.7-0.5,1.1-1.2,1.1c-1.3,0-1.4-1.1-1.4-2.1h-0.2c-0.5,0-1,0-1,0.6
			c0,0.4,0.2,0.7,0.6,0.7h0v0.6h0c-0.8,0-1.1-0.6-1.1-1.3c0-1,0.4-1.2,1.4-1.2h1.5c0.4,0,0.9,0,1.3,0V376.8z M-89.7,376.9v0.2
			c0,0.6,0.1,1.3,0.9,1.3c0.4,0,0.8-0.1,0.8-0.6c0-0.7-0.7-0.8-1.2-0.8H-89.7z"/>
		<path d="M-87.6,373.9c0,1.3-0.8,1.4-2.1,1.4c-1.1,0-2.2-0.1-2.2-1.4c0-1,0.4-1.3,1.3-1.3v0.6c-0.5,0-0.9,0.1-0.9,0.6
			c0,0.8,0.9,0.7,1.7,0.7c1.2,0,1.7-0.1,1.7-0.7c0-0.6-0.4-0.7-0.9-0.7v-0.6C-88.2,372.6-87.6,372.9-87.6,373.9z"/>
		<path d="M-87.6,370.7c0,0.8-0.3,0.9-1,0.9h-2.7v0.6h-0.5v-0.6h-0.8l-0.3-0.6h1v-0.7h0.5v0.7h2.6c0.5,0,0.6-0.1,0.6-0.5
			c0-0.1,0-0.2,0-0.3h0.5C-87.6,370.4-87.6,370.6-87.6,370.7z"/>
		<path d="M-92.8,369.6h-0.7v-0.7h0.7V369.6z M-87.7,369.6h-4.1v-0.6h4.1V369.6z"/>
		<path d="M-87.6,366.6c0,1.3-0.8,1.4-2.1,1.4c-1.2,0-2.2-0.2-2.2-1.5c0-1.3,0.9-1.4,2.1-1.4C-88.4,365.1-87.6,365.4-87.6,366.6z
			 M-89.9,365.8c-0.6,0-1.5,0-1.5,0.7c0,0.8,0.9,0.8,1.5,0.8h0.6c0.6,0,1.3,0,1.3-0.8c0-0.7-0.7-0.8-1.3-0.8H-89.9z"/>
		<path d="M-87.7,362.1h-2.6c-0.5,0-1.1,0-1.1,0.6c0,0.6,0.7,0.8,1.2,0.8h2.5v0.6h-3.2c-0.3,0-0.6,0-0.9,0v-0.6h0.6
			c-0.3-0.2-0.7-0.5-0.7-1.1c0-0.8,0.5-1.1,1.3-1.1h2.9V362.1z"/>
		<path d="M-86.8,360.1v0.5l-1.6-0.3v-0.7L-86.8,360.1z"/>
		<path d="M-87.4,355.7v0.4l-6.4-3.1v-0.5L-87.4,355.7z M-90.6,356c0,0.9-0.7,1-1.5,1c-0.7,0-1.5-0.2-1.5-1c0-0.9,0.7-1,1.5-1
			C-91.4,354.9-90.6,355.1-90.6,356z M-93.2,356c0,0.5,0.5,0.5,1.1,0.5c0.6,0,1.1,0,1.1-0.5c0-0.5-0.5-0.5-1.1-0.5
			C-92.7,355.5-93.2,355.5-93.2,356z M-87.6,352.8c0,0.9-0.7,1.1-1.5,1.1c-0.7,0-1.5-0.2-1.5-1.1c0-0.9,0.7-1,1.5-1
			C-88.4,351.7-87.6,351.9-87.6,352.8z M-90.1,352.8c0,0.5,0.5,0.5,1.1,0.5c0.6,0,1.1,0,1.1-0.5s-0.5-0.5-1.1-0.5
			C-89.6,352.3-90.1,352.3-90.1,352.8z"/>
	</g>
	<g class="st1">
		<path d="M66,417.2v5.9h-0.8v-5.9h-1.5v-0.6h3.8v0.6H66z"/>
		<path d="M67.9,417.4v-0.8h0.8v0.8H67.9z M67.9,423v-4.5h0.7v4.5H67.9z"/>
		<path d="M74.1,423V420c0-0.5,0-1-0.6-1c-0.7,0-0.8,0.7-0.8,1.2v2.9H72V420c0-0.4,0-1-0.6-1c-0.6,0-0.8,0.6-0.8,1.3v2.8h-0.7v-3.8
			c0-0.3,0-0.5,0-0.8h0.7v0.6c0.2-0.4,0.6-0.7,1.1-0.7c0.7,0,0.9,0.4,1,0.7c0.2-0.4,0.6-0.7,1.1-0.7c0.9,0,1.1,0.5,1.1,1.5v3.1H74.1
			z"/>
		<path d="M76.6,420.9v0.3c0,0.7,0.1,1.4,0.8,1.4c0.7,0,0.8-0.5,0.8-1h0.7c0,0.9-0.4,1.5-1.5,1.5c-1.4,0-1.6-1-1.6-2.2
			c0-1.2,0.1-2.5,1.6-2.5c1.5,0,1.5,1.2,1.5,2.3v0.2H76.6z M78.2,419.8c0-0.5-0.2-0.9-0.8-0.9c-0.6,0-0.8,0.4-0.8,0.9
			c0,0.2,0,0.4,0,0.6h1.7C78.2,420.2,78.2,420,78.2,419.8z"/>
		<path d="M80.3,424h-0.5l0.3-1.8h0.8L80.3,424z"/>
		<path d="M88.3,423V420c0-0.5,0-1-0.6-1c-0.7,0-0.8,0.7-0.8,1.2v2.9h-0.7V420c0-0.4,0-1-0.6-1c-0.6,0-0.8,0.6-0.8,1.3v2.8H84v-3.8
			c0-0.3,0-0.5,0-0.8h0.7v0.6c0.2-0.4,0.6-0.7,1.1-0.7c0.7,0,0.9,0.4,1,0.7c0.2-0.4,0.6-0.7,1.1-0.7c0.9,0,1.1,0.5,1.1,1.5v3.1H88.3
			z"/>
		<path d="M90.2,417.4v-0.8H91v0.8H90.2z M90.2,423v-4.5h0.7v4.5H90.2z"/>
		<path d="M94.5,423v-2.9c0-0.5,0-1.2-0.7-1.2c-0.7,0-0.9,0.8-0.9,1.4v2.7h-0.7v-3.5c0-0.3,0-0.7,0-1h0.7v0.6
			c0.2-0.4,0.6-0.7,1.2-0.7c0.9,0,1.2,0.6,1.2,1.4v3.2H94.5z"/>
	</g>
	<g class="st1">
		<path d="M-81.4,354.3v-5c-0.3,0.3-0.6,0.5-0.9,0.7v-0.7c0.3-0.2,0.8-0.6,1-0.9h0.6v5.8H-81.4z"/>
		<path d="M-77.8,354.4c-1.3,0-1.4-1-1.4-2.5v-1.1c0-1.5,0.2-2.4,1.4-2.4s1.4,0.9,1.4,2.4v1.1C-76.4,353.3-76.5,354.4-77.8,354.4z
			 M-77,350.8c0-1.3-0.1-1.9-0.8-1.9c-0.7,0-0.8,0.7-0.8,1.9v1.2c0,1.2,0.1,1.9,0.8,1.9c0.7,0,0.8-0.7,0.8-1.9V350.8z"/>
		<path d="M-74.2,354.4c-1.3,0-1.4-1-1.4-2.5v-1.1c0-1.5,0.2-2.4,1.4-2.4s1.4,0.9,1.4,2.4v1.1C-72.7,353.3-72.9,354.4-74.2,354.4z
			 M-73.4,350.8c0-1.3-0.1-1.9-0.8-1.9c-0.7,0-0.8,0.7-0.8,1.9v1.2c0,1.2,0.1,1.9,0.8,1.9c0.7,0,0.8-0.7,0.8-1.9V350.8z"/>
	</g>
	<g class="st1">
		<path d="M-77.8,364.4c-1,0-1.4-0.6-1.4-1.6c0-0.6,0.1-1.3,0.8-1.5c-0.6-0.2-0.7-0.7-0.7-1.3c0-1,0.4-1.6,1.4-1.6
			c1,0,1.4,0.5,1.4,1.5c0,0.6-0.1,1.2-0.8,1.4c0.7,0.1,0.8,0.8,0.8,1.4C-76.3,363.7-76.7,364.4-77.8,364.4z M-77.8,361.5
			c-0.7,0-0.8,0.6-0.8,1.2c0,0.6,0.1,1.2,0.8,1.2c0.7,0,0.8-0.6,0.8-1.2C-77,362.1-77.1,361.5-77.8,361.5z M-77.8,358.9
			c-0.6,0-0.8,0.5-0.8,1.1c0,0.5,0.2,1.1,0.7,1.1c0.6,0,0.7-0.5,0.7-1C-77,359.4-77.1,358.9-77.8,358.9z"/>
		<path d="M-74.2,364.4c-1.3,0-1.4-1-1.4-2.5v-1.1c0-1.5,0.2-2.4,1.4-2.4s1.4,0.9,1.4,2.4v1.1C-72.7,363.3-72.9,364.4-74.2,364.4z
			 M-73.4,360.8c0-1.3-0.1-1.9-0.8-1.9c-0.7,0-0.8,0.7-0.8,1.9v1.2c0,1.2,0.1,1.9,0.8,1.9c0.7,0,0.8-0.7,0.8-1.9V360.8z"/>
	</g>
	<g class="st1">
		<path d="M-77.7,374.4c-1.3,0-1.4-1.2-1.4-2.4v-1.1c0-1.1,0.1-2.4,1.5-2.4c0.9,0,1.3,0.4,1.3,1.3H-77c0-0.5-0.2-0.8-0.7-0.8
			c-0.8,0-0.8,1-0.8,2v0.3c0.2-0.4,0.5-0.5,1-0.5c1,0,1.2,0.8,1.2,1.8C-76.3,373.5-76.5,374.4-77.7,374.4z M-77.7,371.2
			c-0.7,0-0.8,0.7-0.8,1.4c0,0.7,0.1,1.4,0.8,1.4c0.7,0,0.8-0.8,0.8-1.4C-77,371.8-77.1,371.2-77.7,371.2z"/>
		<path d="M-74.2,374.4c-1.3,0-1.4-1-1.4-2.5v-1.1c0-1.5,0.2-2.4,1.4-2.4s1.4,0.9,1.4,2.4v1.1C-72.7,373.3-72.9,374.4-74.2,374.4z
			 M-73.4,370.8c0-1.3-0.1-1.9-0.8-1.9c-0.7,0-0.8,0.7-0.8,1.9v1.2c0,1.2,0.1,1.9,0.8,1.9c0.7,0,0.8-0.7,0.8-1.9V370.8z"/>
	</g>
	<g class="st1">
		<path d="M-76.8,382.9v1.4h-0.6v-1.4h-1.9v-0.6l1.6-3.8h0.9v3.9h0.6v0.5H-76.8z M-77.4,379.1l-1.4,3.3h1.4V379.1z"/>
		<path d="M-74.2,384.4c-1.3,0-1.4-1-1.4-2.5v-1.1c0-1.5,0.2-2.4,1.4-2.4s1.4,0.9,1.4,2.4v1.1C-72.7,383.3-72.9,384.4-74.2,384.4z
			 M-73.4,380.8c0-1.3-0.1-1.9-0.8-1.9c-0.7,0-0.8,0.7-0.8,1.9v1.2c0,1.2,0.1,1.9,0.8,1.9c0.7,0,0.8-0.7,0.8-1.9V380.8z"/>
	</g>
	<g class="st1">
		<path d="M-79.2,394.3v-0.6l1.8-3c0.2-0.3,0.3-0.7,0.3-1.1c0-0.4-0.2-0.7-0.7-0.7c-0.4,0-0.7,0.2-0.7,0.6c0,0.1,0,0.3,0,0.4h-0.7
			c0-0.1,0-0.2,0-0.3c0.1-0.8,0.6-1.2,1.4-1.2c0.9,0,1.4,0.4,1.4,1.3c0,0.6-0.3,1.2-0.6,1.6l-1.5,2.4h2.2v0.5H-79.2z"/>
		<path d="M-74.2,394.4c-1.3,0-1.4-1-1.4-2.5v-1.1c0-1.5,0.2-2.4,1.4-2.4s1.4,0.9,1.4,2.4v1.1C-72.7,393.3-72.9,394.4-74.2,394.4z
			 M-73.4,390.8c0-1.3-0.1-1.9-0.8-1.9c-0.7,0-0.8,0.7-0.8,1.9v1.2c0,1.2,0.1,1.9,0.8,1.9c0.7,0,0.8-0.7,0.8-1.9V390.8z"/>
	</g>
	<g class="st1">
		<path d="M-74.2,404.4c-1.3,0-1.4-1-1.4-2.5v-1.1c0-1.5,0.2-2.4,1.4-2.4s1.4,0.9,1.4,2.4v1.1C-72.7,403.3-72.9,404.4-74.2,404.4z
			 M-73.4,400.8c0-1.3-0.1-1.9-0.8-1.9c-0.7,0-0.8,0.7-0.8,1.9v1.2c0,1.2,0.1,1.9,0.8,1.9c0.7,0,0.8-0.7,0.8-1.9V400.8z"/>
	</g>
	<rect x="-68.3" y="351.5" class="st2" width="286.4" height="49"/>
	<polygon class="st3" points="-68.3,400.7 -68.3,395.9 -66.7,397 -65.3,400.5 -63.8,395.5 -62.2,397.4 -60.9,400.5 -59.5,398.8 
		-57.7,397.1 -56.4,397.1 -54.7,400.3 -53,396.6 -51.6,400.3 -48.6,397 -47.2,400.7 -45.5,400.7 -44,398.7 -42.5,398.7 -40.9,400.5 
		-39.4,398.7 -36.2,398.7 -35.3,400.2 -33.2,398.2 -31.9,400.6 -25.6,400.6 -24.1,398.7 -20.9,398.7 -19.6,400.5 -17.8,400.5 
		-16.5,398.7 -15,398.7 -13.5,400.5 -11.9,398.2 -10.3,396.7 -7.4,400.6 -5.6,400.6 -3,396.4 -1.1,396.4 0.4,400.8 1.8,398.7 
		3.4,398.7 4.8,400.7 8,396.9 11,400.6 18.6,400.6 20.1,398.6 23.3,398.7 24.4,397.9 26.2,397.9 27.7,400.7 29.2,398.8 30.8,400.5 
		32.3,398.7 35.4,398.7 37,400.5 38.4,398.8 41.7,398.8 43,400.7 50.6,400.7 52.2,398.4 53.7,400.7 61.2,400.7 62.8,398.6 
		64.2,400.5 66.1,398.8 69,398.8 70.3,400.5 72.1,400.5 73.4,398.8 75,400.6 94.8,400.6 96.5,398.7 97.9,398.7 99.6,400.7 
		107,400.7 108.7,398.7 110.1,400.7 120.8,400.7 122.2,398.6 124,400.7 	"/>
	<line class="st4" x1="-18.5" y1="365.4" x2="-18.5" y2="350.3"/>
	<line class="st4" x1="31.4" y1="365.4" x2="31.4" y2="350.3"/>
	<line class="st4" x1="81" y1="365.4" x2="81" y2="350.3"/>
	<line class="st4" x1="130.8" y1="365.4" x2="130.8" y2="350.3"/>
	<line class="st4" x1="180.5" y1="365.4" x2="180.5" y2="350.3"/>
	<line class="st4" x1="-18.5" y1="380.6" x2="-18.5" y2="365.4"/>
	<line class="st4" x1="31.4" y1="380.6" x2="31.4" y2="365.4"/>
	<line class="st4" x1="81" y1="380.6" x2="81" y2="365.4"/>
	<line class="st4" x1="130.8" y1="380.6" x2="130.8" y2="365.4"/>
	<line class="st4" x1="180.5" y1="380.6" x2="180.5" y2="365.4"/>
	<line class="st4" x1="-18.5" y1="400.5" x2="-18.5" y2="380.6"/>
	<line class="st4" x1="31.4" y1="400.5" x2="31.4" y2="380.6"/>
	<line class="st4" x1="81" y1="400.5" x2="81" y2="380.6"/>
	<line class="st4" x1="130.8" y1="400.5" x2="130.8" y2="380.6"/>
	<line class="st4" x1="180.5" y1="400.5" x2="180.5" y2="380.6"/>
	<rect x="-68.3" y="351.5" class="st5" width="286.4" height="49.1"/>
	<rect x="96.1" y="358.7" class="st6" width="115" height="16"/>
	<rect x="100.1" y="364.2" class="st2" width="7" height="7"/>
	<g class="st1">
		<path d="M115.9,370.7h-0.8l-1-5.1l-1.1,5.1h-0.8l-1.3-5.8h0.7l1,5.1l1.1-5.1h0.8l1,5.1l1.1-5.1h0.6L115.9,370.7z"/>
		<path d="M119.5,370.7l0-0.5c-0.3,0.4-0.6,0.6-1.1,0.6c-0.7,0-1-0.5-1-1.2c0-1.3,1.1-1.4,2.1-1.4v-0.2c0-0.5,0-1-0.6-1
			c-0.4,0-0.7,0.2-0.7,0.6v0h-0.6v0c0-0.8,0.6-1.1,1.3-1.1c1,0,1.2,0.4,1.2,1.3v1.5c0,0.4,0,0.9,0,1.3H119.5z M119.5,368.7h-0.2
			c-0.6,0-1.3,0.1-1.3,0.9c0,0.4,0.1,0.8,0.6,0.8c0.7,0,0.8-0.6,0.8-1.2V368.7z"/>
		<path d="M122.1,370.8c-0.8,0-0.9-0.3-0.9-1v-2.6h-0.6v-0.5h0.6V366l0.6-0.3v1h0.7v0.5h-0.7v2.5c0,0.5,0.1,0.6,0.5,0.6
			c0.1,0,0.2,0,0.3,0v0.5C122.5,370.8,122.3,370.8,122.1,370.8z"/>
		<path d="M123.8,368.8v0.3c0,0.7,0.1,1.3,0.7,1.3c0.6,0,0.7-0.4,0.7-0.9h0.6c0,0.8-0.4,1.4-1.4,1.4c-1.2,0-1.4-0.9-1.4-1.9
			c0-1.1,0.1-2.3,1.4-2.3c1.3,0,1.3,1,1.3,2v0.2H123.8z M125.2,367.9c0-0.4-0.2-0.8-0.7-0.8c-0.5,0-0.7,0.3-0.7,0.8
			c0,0.2,0,0.3,0,0.5h1.5C125.2,368.2,125.2,368,125.2,367.9z"/>
		<path d="M128.3,367.2c-0.6,0-0.9,0.4-0.9,1v2.5h-0.6v-3.3c0-0.2,0-0.6,0-0.7h0.6v0.5c0.2-0.4,0.6-0.6,1-0.6h0.1v0.6
			C128.4,367.2,128.4,367.2,128.3,367.2z"/>
		<path d="M132.2,365.4c-0.4,0-0.5,0.4-0.5,0.7v0.6h0.7v0.5h-0.7v3.6h-0.6v-3.6h-0.6v-0.5h0.6v-0.4c0-0.7,0.1-1.4,1-1.4
			c0.1,0,0.2,0,0.3,0v0.5C132.4,365.4,132.3,365.4,132.2,365.4z"/>
		<path d="M134.7,367.2c-0.6,0-0.9,0.4-0.9,1v2.5h-0.6v-3.3c0-0.2,0-0.6,0-0.7h0.6v0.5c0.2-0.4,0.6-0.6,1-0.6h0.1v0.6
			C134.8,367.2,134.7,367.2,134.7,367.2z"/>
		<path d="M137.2,370.7l0-0.5c-0.3,0.4-0.6,0.6-1.1,0.6c-0.7,0-1-0.5-1-1.2c0-1.3,1.1-1.4,2.1-1.4v-0.2c0-0.5,0-1-0.6-1
			c-0.4,0-0.7,0.2-0.7,0.6v0h-0.6v0c0-0.8,0.6-1.1,1.3-1.1c1,0,1.2,0.4,1.2,1.3v1.5c0,0.4,0,0.9,0,1.3H137.2z M137.2,368.7H137
			c-0.6,0-1.3,0.1-1.3,0.9c0,0.4,0.1,0.8,0.6,0.8c0.7,0,0.8-0.6,0.8-1.2V368.7z"/>
		<path d="M140.1,370.8c-1.3,0-1.4-0.8-1.4-2c0-1.1,0.1-2.2,1.4-2.2c1,0,1.2,0.4,1.2,1.3h-0.6c0-0.5-0.1-0.8-0.6-0.8
			c-0.7,0-0.7,0.9-0.7,1.6c0,1.2,0.1,1.6,0.7,1.6c0.6,0,0.6-0.4,0.6-0.9h0.6C141.3,370.2,141.1,370.8,140.1,370.8z"/>
		<path d="M143.2,370.8c-0.8,0-0.9-0.3-0.9-1v-2.6h-0.6v-0.5h0.6V366l0.6-0.3v1h0.7v0.5h-0.7v2.5c0,0.5,0.1,0.6,0.5,0.6
			c0.1,0,0.2,0,0.3,0v0.5C143.5,370.8,143.4,370.8,143.2,370.8z"/>
		<path d="M144.3,365.7V365h0.7v0.7H144.3z M144.3,370.7v-4h0.6v4H144.3z"/>
		<path d="M147.3,370.8c-1.3,0-1.4-0.8-1.4-2.1c0-1.2,0.2-2.1,1.4-2.1c1.3,0,1.4,0.9,1.4,2.1C148.7,370,148.5,370.8,147.3,370.8z
			 M148,368.5c0-0.6,0-1.4-0.7-1.4c-0.8,0-0.8,0.9-0.8,1.5v0.6c0,0.5,0,1.3,0.8,1.3c0.7,0,0.8-0.7,0.8-1.2V368.5z"/>
		<path d="M151.7,370.7v-2.6c0-0.5,0-1.1-0.6-1.1c-0.6,0-0.8,0.7-0.8,1.2v2.4h-0.6v-3.2c0-0.3,0-0.6,0-0.9h0.6v0.6
			c0.2-0.3,0.5-0.6,1-0.6c0.8,0,1.1,0.5,1.1,1.3v2.9H151.7z"/>
	</g>
	<rect x="164.2" y="364.2" class="st7" width="7" height="7"/>
	<g class="st1">
		<path d="M178.5,370c-0.2,0.5-0.6,0.9-1.5,0.9c-0.9,0-1.3-0.3-1.5-0.8c-0.2-0.5-0.2-0.9-0.2-2.1c0-1.3,0-2,0.4-2.5
			c0.3-0.3,0.7-0.5,1.3-0.5c0.7,0,1,0.2,1.3,0.5c0.4,0.5,0.5,1.3,0.5,2.5C178.8,368.9,178.7,369.5,178.5,370z M178,366.3
			c-0.1-0.5-0.3-0.9-1-0.9c-0.6,0-0.9,0.4-1,1c-0.1,0.4-0.1,1-0.1,1.4c0,0.5,0,1,0.1,1.5c0.1,0.6,0.3,1,1,1c0.6,0,0.8-0.4,1-0.9
			c0.1-0.5,0.1-1.1,0.1-1.6C178,367.3,178.1,366.7,178,366.3z"/>
		<path d="M179.7,365.7V365h0.7v0.7H179.7z M179.8,370.7v-4h0.6v4H179.8z"/>
		<path d="M181.5,370.7V365h0.6v5.8H181.5z"/>
		<path d="M186.3,365.4c-0.4,0-0.5,0.4-0.5,0.7v0.6h0.7v0.5h-0.7v3.6h-0.6v-3.6h-0.6v-0.5h0.6v-0.4c0-0.7,0.1-1.4,1-1.4
			c0.1,0,0.2,0,0.3,0v0.5C186.5,365.4,186.3,365.4,186.3,365.4z"/>
		<path d="M188.7,367.2c-0.6,0-0.9,0.4-0.9,1v2.5h-0.6v-3.3c0-0.2,0-0.6,0-0.7h0.6v0.5c0.2-0.4,0.6-0.6,1-0.6h0.1v0.6
			C188.8,367.2,188.8,367.2,188.7,367.2z"/>
		<path d="M191.3,370.7l0-0.5c-0.3,0.4-0.6,0.6-1.1,0.6c-0.7,0-1-0.5-1-1.2c0-1.3,1.1-1.4,2.1-1.4v-0.2c0-0.5,0-1-0.6-1
			c-0.4,0-0.7,0.2-0.7,0.6v0h-0.6v0c0-0.8,0.6-1.1,1.3-1.1c1,0,1.2,0.4,1.2,1.3v1.5c0,0.4,0,0.9,0,1.3H191.3z M191.3,368.7h-0.2
			c-0.6,0-1.3,0.1-1.3,0.9c0,0.4,0.1,0.8,0.6,0.8c0.7,0,0.8-0.6,0.8-1.2V368.7z"/>
		<path d="M194.2,370.8c-1.3,0-1.4-0.8-1.4-2c0-1.1,0.1-2.2,1.4-2.2c1,0,1.2,0.4,1.2,1.3h-0.6c0-0.5-0.1-0.8-0.6-0.8
			c-0.7,0-0.7,0.9-0.7,1.6c0,1.2,0.1,1.6,0.7,1.6c0.6,0,0.6-0.4,0.6-0.9h0.6C195.4,370.2,195.2,370.8,194.2,370.8z"/>
		<path d="M197.3,370.8c-0.8,0-0.9-0.3-0.9-1v-2.6h-0.6v-0.5h0.6V366l0.6-0.3v1h0.7v0.5H197v2.5c0,0.5,0.1,0.6,0.5,0.6
			c0.1,0,0.2,0,0.3,0v0.5C197.6,370.8,197.4,370.8,197.3,370.8z"/>
		<path d="M198.4,365.7V365h0.7v0.7H198.4z M198.4,370.7v-4h0.6v4H198.4z"/>
		<path d="M201.3,370.8c-1.3,0-1.4-0.8-1.4-2.1c0-1.2,0.2-2.1,1.4-2.1c1.3,0,1.4,0.9,1.4,2.1C202.8,370,202.6,370.8,201.3,370.8z
			 M202.1,368.5c0-0.6,0-1.4-0.7-1.4c-0.8,0-0.8,0.9-0.8,1.5v0.6c0,0.5,0,1.3,0.8,1.3c0.7,0,0.8-0.7,0.8-1.2V368.5z"/>
		<path d="M205.7,370.7v-2.6c0-0.5,0-1.1-0.6-1.1c-0.6,0-0.8,0.7-0.8,1.2v2.4h-0.6v-3.2c0-0.3,0-0.6,0-0.9h0.6v0.6
			c0.2-0.3,0.5-0.6,1-0.6c0.8,0,1.1,0.5,1.1,1.3v2.9H205.7z"/>
	</g>
	<rect x="96.1" y="358.7" class="st8" width="115" height="16"/>
	<polyline class="st9" points="-68.7,172.3 3,172.3 5.2,174.6 9.5,174.6 13.2,172.2 100.4,172.2 102.5,174.6 107.5,172.2 
		140.1,172.2 146.9,174.8 152.4,172.4 182.9,172.4 192.7,174.4 195,172.4 207.3,172.4 	"/>
	<g>
		<path class="st10" d="M-68.7,171.1l1.4-0.4l3.6,0.5l3.1-0.2h51.5l2,0.2h9.9l2.4-0.3l1.1,1.3h2.3l1.1-0.5l1.2,0.5h2.6l0.7-1.1
			l1.2,0.2h11.4l3-0.5l1.4,0.8l3.1-0.6l2.6,0.3l2-0.2l2.9,0.2h2.5h1.5l1.3-0.3h1.2l1,0.5l0.9-0.3h3.2l0.8,0.3l1-0.5h3.7l0.8,0.5
			h15.7l2.2-0.5h18.3l3.4,1.4l1.2-0.6l2,1l4.7-1.1l2.6-16.4l3.3,1.7l4.2-0.6l7,1.9l2.3-0.2l3.4-1.1l1.4,12.4l2.4-10.5l1.1-2.7h1.8
			l1.5,1l1.2-0.6l8.5,2.5l4.8-2.5l1.4,14.9l2.1-14.9l1.2,0.6l2.1-0.5l1.1,0.2l1.1-0.3l1,3.7l3.9-3.7h2.4l1,0.6l1.8-0.8l2.4,1l1,2.9
			l2.5-3.7h5.3l1.1-0.8l1.2,2.2h8l2.3-1.4l1.1,0.5l3.5-1.1l3.3,1l1.3-0.3l1.3,3l1.9,0.3c0,0,1.1-3.5,1-3.8"/>
		<path class="st11" d="M-68.7,217.4l3.8,0.8l2.2-0.8l2.5,0.6l2.3-0.6l2.1,0.3l1-0.9l1.1,0.8h6.9l1.2-0.9l1,0.8l2.3,0.8l1.4-2.2
			l1,1.4l2.3,0.8l1.4-0.9l3.1,1.1l2.3-0.9l1.3,0.6l2.3-0.8l0.9,0.8l2.5,0.2l0.9-0.9l3.1,1.1h3.8l0.8,0.5l1.2-1.4l2.4,0.9h5.1
			l1.2-1.1l1.4,0.9h2.3l2.1-0.2l2.3,0.3l1.3-0.3l3.3,0.8l2.3-0.8l1.2,0.6l2.4-0.6l2-0.2l1.1,0.2l2.3,2.4l1.2,3.3l6.7,3.2l0.9,0.6
			l2.4,1.7l2.2,0.5l2.6,1.7l0.8-0.8l2.6,1.6H39l5.7,1.9L47,234l1,1.4l3.8,0.5l1.1-0.3l2.3,1.3l3.8,0.5l1.9-1.1c0,0,1.5,1.6,1.4,1.6
			s2-0.9,2-0.9h3.4l2.2,0.9l2.4-0.9l2.3,1.9l3.4,0.5l2.3-1.9l2.3,1.9l2.3-0.6l4.3,1.3l3.5-1.3l1,1.4l5.8,0.2l2.1,0.6
			c0,0,4.9,1.6,4.8,1.3c-0.1-0.3,3.9-0.3,3.6-0.6c-0.3-0.3,0.9,0,0.9,0l2.3,0.5l3.2-0.9l1.1,1.4l7.7,0.9l1.8-0.5l0.5-1.7l2.5-1.1
			l1.5,1.7l2.1-0.3l2.2,0.3l0.8-3l1.3,3.5c0,0,2.5,0.3,2.5,0s6.5-4.4,6.5-4.4l1.3,4.9l4.7-1.6l1-4.9l2.3-1.4l1.2,7.7l2.9,0.6
			l1.4-0.6l4.7-4.4l2.3,3l2.1-1.9l3-1.9l4.9,4.3l2.1-2l4.2-1.3l10.3-3.2l1,2l3.5-2.7l2.2,4.4l2.2-2.5l4.2,4.6"/>
	</g>
	<polyline class="st12" points="-68.7,272.6 -62.7,271.5 -61,270.7 -55.6,269.6 -52.6,269.1 -51.2,268.7 -45.8,267.3 -38.3,265.8 
		-33.1,264.6 -18.5,261.6 -8.4,259.1 -3.9,258.4 -0.9,257.4 7.7,255.5 16.6,253.6 20.3,251.8 24.8,251.8 125,208 180.5,183.5 
		182.7,182.5 209.7,170.7 	"/>
	<g>
		<path class="st13" d="M-68.3,277.1c0,0,0.9-8,1.1-9.1c0.2-1.1,0.9-0.8,0.9-0.8l1.6,0.2l2,1.9l1.6-2.5c0,0,1.2-0.5,1.7-0.5
			c0.5,0.1,2.5,0.6,2.5,0.6s0.8,0.6,0.9,0.6c0.1,0,0.8,0.9,0.8,0.9l0.9,0.2l2.1-1.3l1.7-0.3l1.3,0.1l1.9,0.6l1.6,0.4l3.8,0.1
			l1.6,0.4l3.3-0.7l5,0.2l1.5-0.7l3.7,0.5l2.1,0.6l0.6,0.3l2.2-0.9l3.9,0.2l9.1-0.6l3.1,0.2l1.9-0.5c0,0,1.7-0.1,2.2,0.4
			s1.4,1.6,1.4,1.6s0.7,0.3,1.7,0c1-0.3,3.8-1.6,3.8-1.6h1.5l1.4,0.6h1.7l2-0.8l1.8-0.5c0,0,1.4,0.2,1.6,0.4s1.5,0.8,1.5,0.8
			l1.2,0.6c0,0,0.9,0.2,1.1-2c0.2-2.2,0.5-5.7,0.5-5.7s-0.4-2.4,1.6-2.5s3.2,0.2,3.2,0.2l1.5-0.1c0,0,2.4,0.2,2.8,0.6
			c0.4,0.4,0.9,1.6,1.4,1.5c0.5-0.2,1.4-1.9,1.4-1.9s0.8-0.9,1.9-0.3c1.2,0.5,2.1,1.6,3.3,0.9c1.3-0.6,2.7-0.8,2.7-0.8l1.9-0.1
			l5.3-0.2l1.4,0.5l1.1,0.1l1.1-0.5c0,0,3.4,0.4,4.2,0.4s2.8,0.1,2.8,0.1l2.1-0.4c0,0,2.2-0.5,2.5-0.5c0.4,0,3.4,0.7,3.4,0.7
			l2.3,0.2l2.1,0.2h1.4l1.9-0.3l0.8-0.6l5.7,0.2l3.2-0.3h2.2c0,0,1,0.8,1.6,2.3s1.9,4.9,2,5c0.1,0.1,1,2.4,1.6-0.6
			c0.5-3.1,0.9-7.7,2.4-6.8s2,1,2,1s1.1-0.2,1.8,0.6s3.4,4.9,4,5.3c0.5,0.5,1.9,1.2,2.7-0.3s2.2-6.9,4.7-7.1c2.6-0.2,3,0.2,3,0.2
			l1.7,0.8l1,0.4l2.9-0.2l1.9-0.1l6.3,0.2l3.3,0.2l3.1-0.5h6.9c0,0,1,0.5,1.3,0.5s1.3-1.1,1.6-1.1s13.5,0.6,13.5,0.6s0.7,1.8,1,2.2
			s1.1,2.8,1.4,0.4c0.4-2.4,0.9-2.8,2-2.4c1,0.5,2.9-0.2,3.4-0.2s2.3,0.5,2.3,0.5s1.2,0.2,1.9-0.2c0.7-0.4,1.5-0.8,2.3-0.2
			c0.9,0.6,1.9,0.2,2.7,0.1s1.7-0.5,2-0.6s1.1,0.2,1.4,0.5c0.3,0.2,0.7,0.6,1.5,0.6s4.1-0.5,4.5-0.6s2.8-0.9,3.6,0.7
			c0.7,1.6,1.8,6,4.2,4.6c2.4-1.5,5.3-5.4,7-5.3s5.4,0,5.4,0s2,0.2,2.4,0.2s1.3,0.1,1.5,0c0.3-0.1,1.4,0,2,0.2
			c0.6,0.2,2.1,1.1,2.1,1.1"/>
	</g>
	<g class="st1">
		<path d="M-96.6,228.8v0.5h2.7v0.7h-5.9v-1.4c0-1.1,0.4-1.7,1.6-1.7C-96.8,227-96.6,227.7-96.6,228.8z M-99.3,228.8v0.6h2.1v-0.5
			c0-0.8-0.3-1.1-1.1-1.1C-99.1,227.7-99.3,228-99.3,228.8z"/>
		<path d="M-97.6,224.6c0,0.6,0.4,0.9,1,0.9h2.5v0.7h-3.4c-0.2,0-0.6,0-0.7,0v-0.6h0.5c-0.4-0.2-0.6-0.6-0.6-1v-0.1h0.6
			C-97.6,224.5-97.6,224.6-97.6,224.6z"/>
		<path d="M-96,223.4h0.3c0.7,0,1.3-0.1,1.3-0.7c0-0.6-0.4-0.7-0.9-0.7v-0.6c0.8,0,1.4,0.4,1.4,1.4c0,1.3-0.9,1.4-2,1.4
			c-1.1,0-2.3-0.1-2.3-1.5c0-1.3,1-1.4,2-1.4h0.2V223.4z M-96.9,221.9c-0.4,0-0.8,0.2-0.8,0.7c0,0.5,0.3,0.7,0.8,0.8
			c0.2,0,0.3,0,0.5,0v-1.5C-96.6,221.9-96.7,221.9-96.9,221.9z"/>
		<path d="M-93.9,219.4c0,0.8-0.3,1.2-1,1.2c-0.1,0-0.2,0-0.3,0V220c0.1,0,0.2,0,0.2,0c0.4,0,0.6-0.2,0.6-0.6c0-0.4-0.2-0.6-0.6-0.6
			c-0.5,0-0.6,0.3-0.9,0.7l-0.1,0.2c-0.3,0.5-0.5,0.8-1.1,0.8c-0.7,0-1.1-0.5-1.1-1.2c0-0.7,0.3-1.1,0.9-1.2c0.1,0,0.2,0,0.3,0v0.6
			c-0.1,0-0.2,0-0.3,0c-0.3,0-0.5,0.2-0.5,0.6c0,0.3,0.2,0.5,0.6,0.5c0.3,0,0.5-0.3,0.7-0.6l0.1-0.2c0.3-0.5,0.5-1,1.2-1
			C-94.3,218.1-93.9,218.6-93.9,219.4z"/>
		<path d="M-93.9,216.3c0,0.8-0.3,1.2-1,1.2c-0.1,0-0.2,0-0.3,0v-0.6c0.1,0,0.2,0,0.2,0c0.4,0,0.6-0.2,0.6-0.6
			c0-0.4-0.2-0.6-0.6-0.6c-0.5,0-0.6,0.3-0.9,0.7l-0.1,0.2c-0.3,0.5-0.5,0.8-1.1,0.8c-0.7,0-1.1-0.5-1.1-1.2c0-0.7,0.3-1.1,0.9-1.2
			c0.1,0,0.2,0,0.3,0v0.6c-0.1,0-0.2,0-0.3,0c-0.3,0-0.5,0.2-0.5,0.6c0,0.3,0.2,0.5,0.6,0.5c0.3,0,0.5-0.3,0.7-0.6l0.1-0.2
			c0.3-0.5,0.5-1,1.2-1C-94.3,215-93.9,215.5-93.9,216.3z"/>
		<path d="M-94,212l-0.5,0c0.4,0.2,0.6,0.6,0.6,1c0,0.8-0.5,1.1-1.3,1.1h-2.9v-0.6h2.6c0.5,0,1.1,0,1.1-0.7c0-0.7-0.6-0.8-1.2-0.8
			h-2.5v-0.7h3.2c0.3,0,0.6,0,0.9,0V212z"/>
		<path d="M-97.6,208.7c0,0.6,0.4,0.9,1,0.9h2.5v0.7h-3.4c-0.2,0-0.6,0-0.7,0v-0.6h0.5c-0.4-0.2-0.6-0.6-0.6-1v-0.1h0.6
			C-97.6,208.6-97.6,208.7-97.6,208.7z"/>
		<path d="M-96,207.5h0.3c0.7,0,1.3-0.1,1.3-0.7c0-0.6-0.4-0.7-0.9-0.7v-0.6c0.8,0,1.4,0.4,1.4,1.4c0,1.3-0.9,1.4-2,1.4
			c-1.1,0-2.3-0.1-2.3-1.5c0-1.3,1-1.4,2-1.4h0.2V207.5z M-96.9,206.1c-0.4,0-0.8,0.2-0.8,0.7c0,0.5,0.3,0.7,0.8,0.8
			c0.2,0,0.3,0,0.5,0V206C-96.6,206-96.7,206-96.9,206.1z"/>
		<path d="M-93.2,204.2v0.5l-1.6-0.3v-0.7L-93.2,204.2z"/>
		<path d="M-93.9,199.2c0,0.4-0.1,0.7-0.5,0.9h2v0.6h-4.7c-0.2,0-0.7,0-1,0v-0.6h0.5c-0.4-0.2-0.6-0.6-0.6-1c0-1.1,1.1-1.2,2.1-1.2
			C-95.1,198-93.9,198-93.9,199.2z M-97.7,199.4c0,0.7,0.8,0.8,1.7,0.8c0.7,0,1.6,0,1.6-0.8c0-0.8-1.1-0.7-1.7-0.7
			C-96.8,198.6-97.7,198.7-97.7,199.4z"/>
		<path d="M-93.9,196.1c0,0.8-0.3,1.2-1,1.2c-0.1,0-0.2,0-0.3,0v-0.6c0.1,0,0.2,0,0.2,0c0.4,0,0.6-0.2,0.6-0.6
			c0-0.4-0.2-0.6-0.6-0.6c-0.5,0-0.6,0.3-0.9,0.7l-0.1,0.2c-0.3,0.5-0.5,0.8-1.1,0.8c-0.7,0-1.1-0.5-1.1-1.2c0-0.7,0.3-1.1,0.9-1.2
			c0.1,0,0.2,0,0.3,0v0.6c-0.1,0-0.2,0-0.3,0c-0.3,0-0.5,0.2-0.5,0.6c0,0.3,0.2,0.5,0.6,0.5c0.3,0,0.5-0.3,0.7-0.6l0.1-0.2
			c0.3-0.5,0.5-1,1.2-1C-94.3,194.8-93.9,195.3-93.9,196.1z"/>
		<path d="M-99.1,194h-0.7v-0.7h0.7V194z M-94,193.9h-4.1v-0.6h4.1V193.9z"/>
	</g>
	<g class="st1">
		<path d="M249.1,240.2v0.5h2.9v0.8h-6.5V240c0-1.3,0.4-1.9,1.7-1.9C248.9,238.1,249.1,238.9,249.1,240.2z M246.2,240.1v0.6h2.3
			v-0.6c0-0.9-0.3-1.3-1.2-1.3C246.4,238.9,246.2,239.2,246.2,240.1z"/>
		<path d="M252,234.9l-0.6,0c0.4,0.3,0.7,0.6,0.7,1.1c0,0.9-0.6,1.2-1.4,1.2h-3.2v-0.7h2.9c0.5,0,1.2,0,1.2-0.7
			c0-0.8-0.7-0.9-1.3-0.9h-2.8v-0.7h3.5c0.3,0,0.7,0,1,0V234.9z"/>
		<path d="M252,228.7H249c-0.5,0-1,0-1,0.6c0,0.7,0.7,0.8,1.2,0.8h2.9v0.7H249c-0.4,0-1,0-1,0.6c0,0.6,0.6,0.8,1.3,0.8h2.8v0.7h-3.8
			c-0.3,0-0.5,0-0.8,0v-0.7h0.6c-0.4-0.2-0.7-0.6-0.7-1.1c0-0.7,0.4-0.9,0.7-1c-0.4-0.2-0.7-0.6-0.7-1.1c0-0.9,0.5-1.1,1.5-1.1h3.1
			V228.7z"/>
		<path d="M252.1,225c0,0.5-0.1,0.8-0.5,1h2.2v0.7h-5.2c-0.3,0-0.8,0-1.1,0v-0.7h0.5c-0.4-0.3-0.6-0.6-0.6-1.1
			c0-1.3,1.2-1.3,2.3-1.3C250.8,223.7,252.1,223.7,252.1,225z M248,225.2c0,0.8,0.9,0.9,1.9,0.9c0.8,0,1.8,0,1.8-0.9
			c0-0.8-1.2-0.8-1.9-0.8C248.9,224.4,248,224.4,248,225.2z"/>
		<path d="M249.9,222.1h0.3c0.7,0,1.4-0.1,1.4-0.8c0-0.7-0.5-0.8-1-0.8v-0.7c0.9,0,1.5,0.4,1.5,1.5c0,1.4-1,1.6-2.2,1.6
			c-1.2,0-2.5-0.1-2.5-1.6c0-1.5,1.2-1.5,2.3-1.5h0.2V222.1z M248.8,220.4c-0.5,0-0.9,0.2-0.9,0.8c0,0.6,0.4,0.8,0.9,0.8
			c0.2,0,0.4,0,0.6,0v-1.7C249.2,220.4,249,220.4,248.8,220.4z"/>
		<path d="M252,216.4l-0.5,0c0.4,0.3,0.6,0.6,0.6,1.1c0,1.3-1.3,1.4-2.4,1.4c-1.1,0-2.3-0.2-2.3-1.4c0-0.5,0.2-0.8,0.5-1h-2.4v-0.7
			h5.7c0.2,0,0.6,0,0.9,0V216.4z M247.9,217.3c0,0.8,1,0.8,1.8,0.8c1,0,1.9-0.1,1.9-0.8c0-0.9-0.9-0.9-1.8-0.9
			C248.8,216.4,247.9,216.5,247.9,217.3z"/>
	</g>
	<g class="st1">
		<path d="M252,210.7v0.8l-4.5,1.3V212l3.8-0.9l-3.8-1v-0.7L252,210.7z"/>
		<path d="M252.1,207.4c0,1.4-0.9,1.6-2.3,1.6c-1.3,0-2.4-0.2-2.4-1.6c0-1.4,1-1.5,2.3-1.5C251.2,205.8,252.1,206,252.1,207.4z
			 M249.5,206.6c-0.7,0-1.6,0-1.6,0.8c0,0.9,1,0.9,1.6,0.9h0.6c0.6,0,1.4,0,1.4-0.8c0-0.8-0.8-0.8-1.4-0.8H249.5z"/>
		<path d="M252,204.8h-6.5v-0.7h6.5V204.8z"/>
		<path d="M252,200.5l-0.6,0c0.4,0.3,0.7,0.6,0.7,1.1c0,0.9-0.6,1.2-1.4,1.2h-3.2v-0.7h2.9c0.5,0,1.2,0,1.2-0.7
			c0-0.8-0.7-0.9-1.3-0.9h-2.8v-0.7h3.5c0.3,0,0.7,0,1,0V200.5z"/>
		<path d="M252,194.3H249c-0.5,0-1,0-1,0.6c0,0.7,0.7,0.8,1.2,0.8h2.9v0.7H249c-0.4,0-1,0-1,0.6c0,0.6,0.6,0.8,1.3,0.8h2.8v0.7h-3.8
			c-0.3,0-0.5,0-0.8,0V198h0.6c-0.4-0.2-0.7-0.6-0.7-1.1c0-0.7,0.4-0.9,0.7-1c-0.4-0.2-0.7-0.6-0.7-1.1c0-0.9,0.5-1.1,1.5-1.1h3.1
			V194.3z"/>
		<path d="M249.9,191.9h0.3c0.7,0,1.4-0.1,1.4-0.8c0-0.7-0.5-0.8-1-0.8v-0.7c0.9,0,1.5,0.4,1.5,1.5c0,1.4-1,1.6-2.2,1.6
			c-1.2,0-2.5-0.1-2.5-1.6c0-1.5,1.2-1.5,2.3-1.5h0.2V191.9z M248.8,190.2c-0.5,0-0.9,0.2-0.9,0.8c0,0.6,0.4,0.8,0.9,0.8
			c0.2,0,0.4,0,0.6,0v-1.7C249.2,190.2,249,190.2,248.8,190.2z"/>
		<path d="M253,188.2v0.5l-1.8-0.3v-0.8L253,188.2z"/>
	</g>
	<g class="st1">
		<path d="M252,184h-6.5v-0.8h5.9v-2h0.6V184z"/>
	</g>
	<path d="M261.8,184.1v0.5l-6.9-3.4v-0.5L261.8,184.1z M258.9,184.7c0,0.7-0.4,1-1.1,1v-0.5c0.4,0,0.6-0.1,0.6-0.5
		c0-0.4-0.2-0.5-0.6-0.5c-0.5,0-0.7,0.2-0.7,0.6v0.2h-0.4v-0.2c0-0.4-0.1-0.6-0.6-0.6c-0.4,0-0.6,0.1-0.6,0.5c0,0.4,0.2,0.5,0.6,0.5
		v0.5H256c-0.6,0-0.9-0.3-0.9-0.9c0-0.7,0.3-1,1-1c0.4,0,0.7,0.1,0.9,0.4c0.2-0.4,0.5-0.5,0.9-0.5
		C258.5,183.7,258.9,184,258.9,184.7z M258.6,242.6v0.5h2.9v0.8H255v-1.5c0-1.3,0.4-1.9,1.7-1.9
		C258.5,240.6,258.6,241.4,258.6,242.6z M255.9,225.1h-0.8v-0.8h0.8V225.1z M255.7,242.5v0.6h2.3v-0.6c0-0.9-0.3-1.3-1.2-1.3
		C255.9,241.4,255.7,241.7,255.7,242.5z M261.6,204.7c0,0.9-0.3,1-1.1,1h-2.9v0.7H257v-0.7h-0.8l-0.3-0.7h1.2v-0.8h0.5v0.8h2.9
		c0.5,0,0.6-0.1,0.6-0.5c0-0.1,0-0.2,0-0.3h0.6C261.6,204.4,261.6,204.5,261.6,204.7z M261.7,180.3c0,0.8-0.4,1.3-1.2,1.4
		c-0.1,0-0.2,0-0.3,0V181c0.1,0,0.2,0,0.3,0c0.4,0,0.7-0.2,0.7-0.7s-0.3-0.7-0.7-0.7c-0.5,0-0.7,0.3-1,0.8l-0.1,0.2
		c-0.3,0.5-0.5,0.9-1.2,0.9c-0.8,0-1.2-0.6-1.2-1.4c0-0.8,0.3-1.2,1-1.3c0.1,0,0.2,0,0.4,0v0.7c-0.1,0-0.2,0-0.3,0
		c-0.3,0-0.6,0.2-0.6,0.6c0,0.4,0.3,0.6,0.6,0.6c0.4,0,0.6-0.3,0.8-0.7l0.1-0.2c0.3-0.6,0.6-1.1,1.4-1.1
		C261.2,178.8,261.7,179.4,261.7,180.3z M261.6,187.3h-3.1c-0.5,0-1,0-1,0.6c0,0.7,0.7,0.8,1.2,0.8h2.9v0.7h-3.1c-0.4,0-1,0-1,0.6
		c0,0.6,0.6,0.8,1.3,0.8h2.8v0.7h-3.8c-0.3,0-0.5,0-0.8,0v-0.7h0.6c-0.4-0.2-0.7-0.6-0.7-1.1c0-0.7,0.4-0.9,0.7-1
		c-0.4-0.2-0.7-0.6-0.7-1.1c0-0.9,0.5-1.1,1.5-1.1h3.1v0.8H261.6z M261.7,193.9c0,1.4-0.9,1.6-2.3,1.6c-1.2,0-2.4-0.1-2.4-1.6
		c0-1.1,0.5-1.4,1.5-1.4v0.6c-0.5,0-1,0.1-1,0.7c0,0.8,1,0.8,1.9,0.8c1.3,0,1.8-0.1,1.8-0.8c0-0.6-0.5-0.7-1-0.7v-0.7
		C261,192.4,261.7,192.7,261.7,193.9z M259.4,202.9h0.3c0.7,0,1.4-0.1,1.4-0.8c0-0.7-0.5-0.8-1-0.8v-0.7c0.9,0,1.5,0.4,1.5,1.5
		c0,1.4-1,1.6-2.2,1.6s-2.5-0.1-2.5-1.6s1.2-1.5,2.3-1.5h0.2L259.4,202.9L259.4,202.9z M261.6,207.8H261c0.5,0.3,0.7,0.6,0.7,1.2
		c0,0.8-0.6,1.2-1.3,1.2c-1.4,0-1.5-1.2-1.5-2.3h-0.2c-0.5,0-1.1,0-1.1,0.7c0,0.4,0.2,0.8,0.7,0.8l0,0v0.7l0,0
		c-0.9,0-1.2-0.7-1.2-1.5c0-1.1,0.5-1.4,1.5-1.4h1.7c0.5,0,1,0,1.4,0v0.6H261.6z M257.8,215.9h4c1.1,0,1.6,0.5,1.6,1.6
		c0,0.9-0.4,1.4-1.3,1.4v-0.8c0.5,0,0.8-0.2,0.8-0.7c0-0.8-0.5-0.9-1.3-0.9H261c0.4,0.3,0.5,0.6,0.5,1.1c0,1.3-1.2,1.4-2.2,1.4
		c-1.2,0-2.4-0.1-2.4-1.4c0-0.5,0.2-0.9,0.6-1.1H257v-0.7C257.3,215.9,257.5,215.9,257.8,215.9z M261.6,220.8h-2.9
		c-0.5,0-1.2,0-1.2,0.7s0.8,0.9,1.4,0.9h2.7v0.7H258c-0.3,0-0.7,0-1,0v-0.7h0.6c-0.4-0.2-0.7-0.6-0.7-1.2c0-0.9,0.6-1.2,1.4-1.2h3.2
		v0.8H261.6z M261.7,227.5c0,0.5-0.1,0.8-0.5,1h2.2v0.7h-5.2c-0.3,0-0.8,0-1.1,0v-0.7h0.5c-0.4-0.3-0.6-0.6-0.6-1.1
		c0-1.3,1.2-1.3,2.3-1.3C260.3,226.1,261.7,226.2,261.7,227.5z M261.6,231.2h-3.1c-0.5,0-1,0-1,0.6c0,0.7,0.7,0.8,1.2,0.8h2.9v0.7
		h-3.1c-0.4,0-1,0-1,0.6c0,0.6,0.6,0.8,1.3,0.8h2.8v0.7h-3.8c-0.3,0-0.5,0-0.8,0v-0.7h0.6c-0.4-0.2-0.7-0.6-0.7-1.1
		c0-0.7,0.4-0.9,0.7-1c-0.4-0.2-0.7-0.6-0.7-1.1c0-0.9,0.5-1.1,1.5-1.1h3.1v0.8H261.6z M257.6,210.8c0,0.7,0.5,1,1.2,1h2.8v0.7h-3.7
		c-0.2,0-0.6,0-0.8,0v-0.7h0.6c-0.5-0.2-0.7-0.6-0.7-1.2v-0.1h0.7C257.6,210.7,257.6,210.7,257.6,210.8z M261.6,225.1H257v-0.7h4.5
		v0.7H261.6z M261.6,237.3H261c0.4,0.3,0.7,0.6,0.7,1.1c0,0.9-0.6,1.2-1.4,1.2H257v-0.7h2.9c0.5,0,1.2,0,1.2-0.7
		c0-0.8-0.7-0.9-1.3-0.9H257v-0.7h3.5c0.3,0,0.7,0,1,0v0.7H261.6z M258.3,201.2c-0.5,0-0.9,0.2-0.9,0.8c0,0.6,0.4,0.8,0.9,0.8
		c0.2,0,0.4,0,0.6,0v-1.7C258.7,201.2,258.5,201.2,258.3,201.2z M257.5,217.5c0,0.8,1.1,0.8,1.9,0.8c0.7,0,1.7,0,1.7-0.8
		c0-0.9-1.2-0.9-1.9-0.9C258.4,216.7,257.5,216.7,257.5,217.5z M257.5,227.7c0,0.8,0.9,0.9,1.9,0.9c0.8,0,1.8,0,1.8-0.9
		c0-0.8-1.2-0.8-1.9-0.8C258.5,226.8,257.5,226.8,257.5,227.7z M259.3,207.8v0.2c0,0.7,0.1,1.4,1,1.4c0.4,0,0.9-0.2,0.9-0.7
		c0-0.7-0.7-0.9-1.3-0.9H259.3z M262.5,199.2v0.5l-1.8-0.3v-0.8L262.5,199.2z"/>
	<g>
		<g class="st1">
			<path d="M-86.9,149.1c-1,0-1.4-0.5-1.4-1.5h0.7c0,0.6,0.2,1,0.8,1c0.6,0,0.8-0.5,0.8-1.1c0-1-0.3-1.2-1.1-1.2v-0.5
				c0.8,0,1.1-0.2,1.1-1.1c0-0.5-0.1-1-0.7-1c-0.6,0-0.7,0.4-0.7,1h-0.6v-0.1c0-0.9,0.4-1.4,1.4-1.4s1.4,0.5,1.4,1.4
				c0,0.7-0.2,1.3-0.8,1.4c0.7,0.1,0.9,0.7,0.9,1.4C-85.4,148.4-85.8,149.1-86.9,149.1z"/>
			<path d="M-84.2,149.8h-0.5l0.3-1.6h0.7L-84.2,149.8z"/>
			<path d="M-81.4,149.1c-1,0-1.3-0.5-1.3-1.4h0.7c0,0.6,0.1,0.9,0.7,0.9c0.7,0,0.8-0.6,0.8-1.5c0-0.7-0.1-1.3-0.8-1.3
				c-0.4,0-0.7,0.2-0.7,0.6h-0.6l0.1-3.2h2.5v0.5H-82l-0.1,2c0.2-0.3,0.5-0.4,0.9-0.4c1.1,0,1.2,0.9,1.2,1.8
				C-80,148.2-80.1,149.1-81.4,149.1z"/>
			<path d="M-77.8,149.1c-1.3,0-1.4-1-1.4-2.5v-1.1c0-1.5,0.2-2.4,1.4-2.4s1.4,0.9,1.4,2.4v1.1C-76.4,148.1-76.5,149.1-77.8,149.1z
				 M-77,145.6c0-1.3-0.1-1.9-0.8-1.9c-0.7,0-0.8,0.7-0.8,1.9v1.2c0,1.2,0.1,1.9,0.8,1.9c0.7,0,0.8-0.7,0.8-1.9V145.6z"/>
			<path d="M-74.2,149.1c-1.3,0-1.4-1-1.4-2.5v-1.1c0-1.5,0.2-2.4,1.4-2.4s1.4,0.9,1.4,2.4v1.1C-72.7,148.1-72.9,149.1-74.2,149.1z
				 M-73.4,145.6c0-1.3-0.1-1.9-0.8-1.9c-0.7,0-0.8,0.7-0.8,1.9v1.2c0,1.2,0.1,1.9,0.8,1.9c0.7,0,0.8-0.7,0.8-1.9V145.6z"/>
		</g>
	</g>
	<g class="st1">
		<path d="M-86.9,167.9c-1,0-1.4-0.5-1.4-1.5h0.7c0,0.6,0.2,1,0.8,1c0.6,0,0.8-0.5,0.8-1.1c0-1-0.3-1.2-1.1-1.2v-0.5
			c0.8,0,1.1-0.2,1.1-1.1c0-0.5-0.1-1-0.7-1c-0.6,0-0.7,0.4-0.7,1h-0.6v-0.1c0-0.9,0.4-1.4,1.4-1.4s1.4,0.5,1.4,1.4
			c0,0.7-0.2,1.3-0.8,1.4c0.7,0.1,0.9,0.7,0.9,1.4C-85.4,167.2-85.8,167.9-86.9,167.9z"/>
		<path d="M-84.2,168.6h-0.5l0.3-1.6h0.7L-84.2,168.6z"/>
		<path d="M-81.4,167.9c-1.3,0-1.4-1-1.4-2.5v-1.1c0-1.5,0.2-2.4,1.4-2.4s1.4,0.9,1.4,2.4v1.1C-80,166.9-80.1,167.9-81.4,167.9z
			 M-80.6,164.4c0-1.3-0.1-1.9-0.8-1.9c-0.7,0-0.8,0.7-0.8,1.9v1.2c0,1.2,0.1,1.9,0.8,1.9c0.7,0,0.8-0.7,0.8-1.9V164.4z"/>
		<path d="M-77.8,167.9c-1.3,0-1.4-1-1.4-2.5v-1.1c0-1.5,0.2-2.4,1.4-2.4s1.4,0.9,1.4,2.4v1.1C-76.4,166.9-76.5,167.9-77.8,167.9z
			 M-77,164.4c0-1.3-0.1-1.9-0.8-1.9c-0.7,0-0.8,0.7-0.8,1.9v1.2c0,1.2,0.1,1.9,0.8,1.9c0.7,0,0.8-0.7,0.8-1.9V164.4z"/>
		<path d="M-74.2,167.9c-1.3,0-1.4-1-1.4-2.5v-1.1c0-1.5,0.2-2.4,1.4-2.4s1.4,0.9,1.4,2.4v1.1C-72.7,166.9-72.9,167.9-74.2,167.9z
			 M-73.4,164.4c0-1.3-0.1-1.9-0.8-1.9c-0.7,0-0.8,0.7-0.8,1.9v1.2c0,1.2,0.1,1.9,0.8,1.9c0.7,0,0.8-0.7,0.8-1.9V164.4z"/>
	</g>
	<g class="st1">
		<path d="M-88.3,186.6V186l1.8-3c0.2-0.3,0.3-0.7,0.3-1.1c0-0.4-0.2-0.7-0.7-0.7c-0.4,0-0.7,0.2-0.7,0.6c0,0.1,0,0.3,0,0.4h-0.7
			c0-0.1,0-0.2,0-0.3c0.1-0.8,0.6-1.2,1.4-1.2c0.9,0,1.4,0.4,1.4,1.3c0,0.6-0.3,1.2-0.6,1.6l-1.5,2.4h2.2v0.5H-88.3z"/>
		<path d="M-84.2,187.4h-0.5l0.3-1.6h0.7L-84.2,187.4z"/>
		<path d="M-81.4,186.7c-1,0-1.3-0.5-1.3-1.4h0.7c0,0.6,0.1,0.9,0.7,0.9c0.7,0,0.8-0.6,0.8-1.5c0-0.7-0.1-1.3-0.8-1.3
			c-0.4,0-0.7,0.2-0.7,0.6h-0.6l0.1-3.2h2.5v0.5H-82l-0.1,2c0.2-0.3,0.5-0.4,0.9-0.4c1.1,0,1.2,0.9,1.2,1.8
			C-80,185.8-80.1,186.7-81.4,186.7z"/>
		<path d="M-77.8,186.7c-1.3,0-1.4-1-1.4-2.5v-1.1c0-1.5,0.2-2.4,1.4-2.4s1.4,0.9,1.4,2.4v1.1C-76.4,185.7-76.5,186.7-77.8,186.7z
			 M-77,183.2c0-1.3-0.1-1.9-0.8-1.9c-0.7,0-0.8,0.7-0.8,1.9v1.2c0,1.2,0.1,1.9,0.8,1.9c0.7,0,0.8-0.7,0.8-1.9V183.2z"/>
		<path d="M-74.2,186.7c-1.3,0-1.4-1-1.4-2.5v-1.1c0-1.5,0.2-2.4,1.4-2.4s1.4,0.9,1.4,2.4v1.1C-72.7,185.7-72.9,186.7-74.2,186.7z
			 M-73.4,183.2c0-1.3-0.1-1.9-0.8-1.9c-0.7,0-0.8,0.7-0.8,1.9v1.2c0,1.2,0.1,1.9,0.8,1.9c0.7,0,0.8-0.7,0.8-1.9V183.2z"/>
	</g>
	<g class="st1">
		<path d="M-88.3,205.4v-0.6l1.8-3c0.2-0.3,0.3-0.7,0.3-1.1c0-0.4-0.2-0.7-0.7-0.7c-0.4,0-0.7,0.2-0.7,0.6c0,0.1,0,0.3,0,0.4h-0.7
			c0-0.1,0-0.2,0-0.3c0.1-0.8,0.6-1.2,1.4-1.2c0.9,0,1.4,0.4,1.4,1.3c0,0.6-0.3,1.2-0.6,1.6l-1.5,2.4h2.2v0.5H-88.3z"/>
		<path d="M-84.2,206.2h-0.5l0.3-1.6h0.7L-84.2,206.2z"/>
		<path d="M-81.4,205.5c-1.3,0-1.4-1-1.4-2.5v-1.1c0-1.5,0.2-2.4,1.4-2.4s1.4,0.9,1.4,2.4v1.1C-80,204.5-80.1,205.5-81.4,205.5z
			 M-80.6,202c0-1.3-0.1-1.9-0.8-1.9c-0.7,0-0.8,0.7-0.8,1.9v1.2c0,1.2,0.1,1.9,0.8,1.9c0.7,0,0.8-0.7,0.8-1.9V202z"/>
		<path d="M-77.8,205.5c-1.3,0-1.4-1-1.4-2.5v-1.1c0-1.5,0.2-2.4,1.4-2.4s1.4,0.9,1.4,2.4v1.1C-76.4,204.5-76.5,205.5-77.8,205.5z
			 M-77,202c0-1.3-0.1-1.9-0.8-1.9c-0.7,0-0.8,0.7-0.8,1.9v1.2c0,1.2,0.1,1.9,0.8,1.9c0.7,0,0.8-0.7,0.8-1.9V202z"/>
		<path d="M-74.2,205.5c-1.3,0-1.4-1-1.4-2.5v-1.1c0-1.5,0.2-2.4,1.4-2.4s1.4,0.9,1.4,2.4v1.1C-72.7,204.5-72.9,205.5-74.2,205.5z
			 M-73.4,202c0-1.3-0.1-1.9-0.8-1.9c-0.7,0-0.8,0.7-0.8,1.9v1.2c0,1.2,0.1,1.9,0.8,1.9c0.7,0,0.8-0.7,0.8-1.9V202z"/>
	</g>
	<g class="st1">
		<path d="M-86.9,224.2v-5c-0.3,0.3-0.6,0.5-0.9,0.7v-0.7c0.3-0.2,0.8-0.6,1-0.9h0.6v5.8H-86.9z"/>
		<path d="M-84.2,225h-0.5l0.3-1.6h0.7L-84.2,225z"/>
		<path d="M-81.4,224.3c-1,0-1.3-0.5-1.3-1.4h0.7c0,0.6,0.1,0.9,0.7,0.9c0.7,0,0.8-0.6,0.8-1.5c0-0.7-0.1-1.3-0.8-1.3
			c-0.4,0-0.7,0.2-0.7,0.6h-0.6l0.1-3.2h2.5v0.5H-82l-0.1,2c0.2-0.3,0.5-0.4,0.9-0.4c1.1,0,1.2,0.9,1.2,1.8
			C-80,223.4-80.1,224.3-81.4,224.3z"/>
		<path d="M-77.8,224.3c-1.3,0-1.4-1-1.4-2.5v-1.1c0-1.5,0.2-2.4,1.4-2.4s1.4,0.9,1.4,2.4v1.1C-76.4,223.3-76.5,224.3-77.8,224.3z
			 M-77,220.8c0-1.3-0.1-1.9-0.8-1.9c-0.7,0-0.8,0.7-0.8,1.9v1.2c0,1.2,0.1,1.9,0.8,1.9c0.7,0,0.8-0.7,0.8-1.9V220.8z"/>
		<path d="M-74.2,224.3c-1.3,0-1.4-1-1.4-2.5v-1.1c0-1.5,0.2-2.4,1.4-2.4s1.4,0.9,1.4,2.4v1.1C-72.7,223.3-72.9,224.3-74.2,224.3z
			 M-73.4,220.8c0-1.3-0.1-1.9-0.8-1.9c-0.7,0-0.8,0.7-0.8,1.9v1.2c0,1.2,0.1,1.9,0.8,1.9c0.7,0,0.8-0.7,0.8-1.9V220.8z"/>
	</g>
	<g class="st1">
		<path d="M-86.9,243v-5c-0.3,0.3-0.6,0.5-0.9,0.7v-0.7c0.3-0.2,0.8-0.6,1-0.9h0.6v5.8H-86.9z"/>
		<path d="M-84.2,243.8h-0.5l0.3-1.6h0.7L-84.2,243.8z"/>
		<path d="M-81.4,243.1c-1.3,0-1.4-1-1.4-2.5v-1.1c0-1.5,0.2-2.4,1.4-2.4s1.4,0.9,1.4,2.4v1.1C-80,242.1-80.1,243.1-81.4,243.1z
			 M-80.6,239.6c0-1.3-0.1-1.9-0.8-1.9c-0.7,0-0.8,0.7-0.8,1.9v1.2c0,1.2,0.1,1.9,0.8,1.9c0.7,0,0.8-0.7,0.8-1.9V239.6z"/>
		<path d="M-77.8,243.1c-1.3,0-1.4-1-1.4-2.5v-1.1c0-1.5,0.2-2.4,1.4-2.4s1.4,0.9,1.4,2.4v1.1C-76.4,242.1-76.5,243.1-77.8,243.1z
			 M-77,239.6c0-1.3-0.1-1.9-0.8-1.9c-0.7,0-0.8,0.7-0.8,1.9v1.2c0,1.2,0.1,1.9,0.8,1.9c0.7,0,0.8-0.7,0.8-1.9V239.6z"/>
		<path d="M-74.2,243.1c-1.3,0-1.4-1-1.4-2.5v-1.1c0-1.5,0.2-2.4,1.4-2.4s1.4,0.9,1.4,2.4v1.1C-72.7,242.1-72.9,243.1-74.2,243.1z
			 M-73.4,239.6c0-1.3-0.1-1.9-0.8-1.9c-0.7,0-0.8,0.7-0.8,1.9v1.2c0,1.2,0.1,1.9,0.8,1.9c0.7,0,0.8-0.7,0.8-1.9V239.6z"/>
	</g>
	<g class="st1">
		<path d="M-81.4,261.9c-1,0-1.3-0.5-1.3-1.4h0.7c0,0.6,0.1,0.9,0.7,0.9c0.7,0,0.8-0.6,0.8-1.5c0-0.7-0.1-1.3-0.8-1.3
			c-0.4,0-0.7,0.2-0.7,0.6h-0.6l0.1-3.2h2.5v0.5H-82l-0.1,2c0.2-0.3,0.5-0.4,0.9-0.4c1.1,0,1.2,0.9,1.2,1.8
			C-80,261-80.1,261.9-81.4,261.9z"/>
		<path d="M-77.8,261.9c-1.3,0-1.4-1-1.4-2.5v-1.1c0-1.5,0.2-2.4,1.4-2.4s1.4,0.9,1.4,2.4v1.1C-76.4,260.9-76.5,261.9-77.8,261.9z
			 M-77,258.4c0-1.3-0.1-1.9-0.8-1.9c-0.7,0-0.8,0.7-0.8,1.9v1.2c0,1.2,0.1,1.9,0.8,1.9c0.7,0,0.8-0.7,0.8-1.9V258.4z"/>
		<path d="M-74.2,261.9c-1.3,0-1.4-1-1.4-2.5v-1.1c0-1.5,0.2-2.4,1.4-2.4s1.4,0.9,1.4,2.4v1.1C-72.7,260.9-72.9,261.9-74.2,261.9z
			 M-73.4,258.4c0-1.3-0.1-1.9-0.8-1.9c-0.7,0-0.8,0.7-0.8,1.9v1.2c0,1.2,0.1,1.9,0.8,1.9c0.7,0,0.8-0.7,0.8-1.9V258.4z"/>
	</g>
	<g class="st1">
		<path d="M-74.2,280.7c-1.3,0-1.4-1-1.4-2.5v-1.1c0-1.5,0.2-2.4,1.4-2.4s1.4,0.9,1.4,2.4v1.1C-72.7,279.7-72.9,280.7-74.2,280.7z
			 M-73.4,277.2c0-1.3-0.1-1.9-0.8-1.9c-0.7,0-0.8,0.7-0.8,1.9v1.2c0,1.2,0.1,1.9,0.8,1.9c0.7,0,0.8-0.7,0.8-1.9V277.2z"/>
	</g>
	<g>
		<g class="st1">
			<path d="M231.9,149v-5c-0.3,0.3-0.6,0.5-0.9,0.7v-0.7c0.3-0.2,0.8-0.6,1-0.9h0.6v5.8H231.9z"/>
			<path d="M236.5,147.6v1.4h-0.6v-1.4H234V147l1.6-3.8h0.9v3.9h0.6v0.5H236.5z M235.9,143.8l-1.4,3.3h1.4V143.8z"/>
			<path d="M239.1,149.1c-1.3,0-1.4-1-1.4-2.5v-1.1c0-1.5,0.2-2.4,1.4-2.4c1.3,0,1.4,0.9,1.4,2.4v1.1
				C240.6,148.1,240.4,149.1,239.1,149.1z M239.9,145.6c0-1.3-0.1-1.9-0.8-1.9c-0.7,0-0.8,0.7-0.8,1.9v1.2c0,1.2,0.1,1.9,0.8,1.9
				c0.7,0,0.8-0.7,0.8-1.9V145.6z"/>
		</g>
	</g>
	<g class="st1">
		<path d="M231.9,167.8v-5c-0.3,0.3-0.6,0.5-0.9,0.7v-0.7c0.3-0.2,0.8-0.6,1-0.9h0.6v5.8H231.9z"/>
		<path d="M234,167.8v-0.6l1.8-3c0.2-0.3,0.3-0.7,0.3-1.1c0-0.4-0.2-0.7-0.7-0.7c-0.4,0-0.7,0.2-0.7,0.6c0,0.1,0,0.3,0,0.4h-0.7
			c0-0.1,0-0.2,0-0.3c0.1-0.8,0.6-1.2,1.4-1.2c0.9,0,1.4,0.4,1.4,1.3c0,0.6-0.3,1.2-0.6,1.6l-1.5,2.4h2.2v0.5H234z"/>
		<path d="M239.1,167.9c-1.3,0-1.4-1-1.4-2.5v-1.1c0-1.5,0.2-2.4,1.4-2.4c1.3,0,1.4,0.9,1.4,2.4v1.1
			C240.6,166.9,240.4,167.9,239.1,167.9z M239.9,164.4c0-1.3-0.1-1.9-0.8-1.9c-0.7,0-0.8,0.7-0.8,1.9v1.2c0,1.2,0.1,1.9,0.8,1.9
			c0.7,0,0.8-0.7,0.8-1.9V164.4z"/>
	</g>
	<g class="st1">
		<path d="M231.9,186.6v-5c-0.3,0.3-0.6,0.5-0.9,0.7v-0.7c0.3-0.2,0.8-0.6,1-0.9h0.6v5.8H231.9z"/>
		<path d="M235.5,186.7c-1.3,0-1.4-1-1.4-2.5v-1.1c0-1.5,0.2-2.4,1.4-2.4c1.3,0,1.4,0.9,1.4,2.4v1.1
			C236.9,185.7,236.8,186.7,235.5,186.7z M236.3,183.2c0-1.3-0.1-1.9-0.8-1.9c-0.7,0-0.8,0.7-0.8,1.9v1.2c0,1.2,0.1,1.9,0.8,1.9
			c0.7,0,0.8-0.7,0.8-1.9V183.2z"/>
		<path d="M239.1,186.7c-1.3,0-1.4-1-1.4-2.5v-1.1c0-1.5,0.2-2.4,1.4-2.4c1.3,0,1.4,0.9,1.4,2.4v1.1
			C240.6,185.7,240.4,186.7,239.1,186.7z M239.9,183.2c0-1.3-0.1-1.9-0.8-1.9c-0.7,0-0.8,0.7-0.8,1.9v1.2c0,1.2,0.1,1.9,0.8,1.9
			c0.7,0,0.8-0.7,0.8-1.9V183.2z"/>
	</g>
	<g class="st1">
		<path d="M231.9,205.5c-1,0-1.4-0.6-1.4-1.6c0-0.6,0.1-1.3,0.8-1.5c-0.6-0.2-0.7-0.7-0.7-1.3c0-1,0.4-1.6,1.4-1.6
			c1,0,1.4,0.5,1.4,1.5c0,0.6-0.1,1.2-0.8,1.4c0.7,0.1,0.8,0.8,0.8,1.4C233.4,204.9,233,205.5,231.9,205.5z M231.9,202.7
			c-0.7,0-0.8,0.6-0.8,1.2c0,0.6,0.1,1.2,0.8,1.2c0.7,0,0.8-0.6,0.8-1.2C232.7,203.2,232.6,202.7,231.9,202.7z M231.9,200
			c-0.6,0-0.8,0.5-0.8,1.1c0,0.5,0.2,1.1,0.7,1.1c0.6,0,0.7-0.5,0.7-1C232.6,200.6,232.6,200,231.9,200z"/>
		<path d="M235.5,205.5c-1.3,0-1.4-1-1.4-2.5v-1.1c0-1.5,0.2-2.4,1.4-2.4c1.3,0,1.4,0.9,1.4,2.4v1.1
			C236.9,204.5,236.8,205.5,235.5,205.5z M236.3,202c0-1.3-0.1-1.9-0.8-1.9c-0.7,0-0.8,0.7-0.8,1.9v1.2c0,1.2,0.1,1.9,0.8,1.9
			c0.7,0,0.8-0.7,0.8-1.9V202z"/>
	</g>
	<g class="st1">
		<path d="M231.9,224.3c-1.3,0-1.4-1.2-1.4-2.4v-1.1c0-1.1,0.1-2.4,1.5-2.4c0.9,0,1.3,0.4,1.3,1.3h-0.7c0-0.5-0.2-0.8-0.7-0.8
			c-0.8,0-0.8,1-0.8,2v0.3c0.2-0.4,0.5-0.5,1-0.5c1,0,1.2,0.8,1.2,1.8C233.4,223.4,233.2,224.3,231.9,224.3z M232,221.1
			c-0.7,0-0.8,0.7-0.8,1.4c0,0.7,0.1,1.4,0.8,1.4c0.7,0,0.8-0.8,0.8-1.4C232.7,221.7,232.6,221.1,232,221.1z"/>
		<path d="M235.5,224.3c-1.3,0-1.4-1-1.4-2.5v-1.1c0-1.5,0.2-2.4,1.4-2.4c1.3,0,1.4,0.9,1.4,2.4v1.1
			C236.9,223.3,236.8,224.3,235.5,224.3z M236.3,220.8c0-1.3-0.1-1.9-0.8-1.9c-0.7,0-0.8,0.7-0.8,1.9v1.2c0,1.2,0.1,1.9,0.8,1.9
			c0.7,0,0.8-0.7,0.8-1.9V220.8z"/>
	</g>
	<g class="st1">
		<path d="M232.9,241.6v1.4h-0.6v-1.4h-1.9V241l1.6-3.8h0.9v3.9h0.6v0.5H232.9z M232.2,237.8l-1.4,3.3h1.4V237.8z"/>
		<path d="M235.5,243.1c-1.3,0-1.4-1-1.4-2.5v-1.1c0-1.5,0.2-2.4,1.4-2.4c1.3,0,1.4,0.9,1.4,2.4v1.1
			C236.9,242.1,236.8,243.1,235.5,243.1z M236.3,239.6c0-1.3-0.1-1.9-0.8-1.9c-0.7,0-0.8,0.7-0.8,1.9v1.2c0,1.2,0.1,1.9,0.8,1.9
			c0.7,0,0.8-0.7,0.8-1.9V239.6z"/>
	</g>
	<g class="st1">
		<path d="M230.4,261.8v-0.6l1.8-3c0.2-0.3,0.3-0.7,0.3-1.1c0-0.4-0.2-0.7-0.7-0.7c-0.4,0-0.7,0.2-0.7,0.6c0,0.1,0,0.3,0,0.4h-0.7
			c0-0.1,0-0.2,0-0.3c0.1-0.8,0.6-1.2,1.4-1.2c0.9,0,1.4,0.4,1.4,1.3c0,0.6-0.3,1.2-0.6,1.6l-1.5,2.4h2.2v0.5H230.4z"/>
		<path d="M235.5,261.9c-1.3,0-1.4-1-1.4-2.5v-1.1c0-1.5,0.2-2.4,1.4-2.4c1.3,0,1.4,0.9,1.4,2.4v1.1
			C236.9,260.9,236.8,261.9,235.5,261.9z M236.3,258.4c0-1.3-0.1-1.9-0.8-1.9c-0.7,0-0.8,0.7-0.8,1.9v1.2c0,1.2,0.1,1.9,0.8,1.9
			c0.7,0,0.8-0.7,0.8-1.9V258.4z"/>
	</g>
	<g class="st1">
		<path d="M231.9,280.7c-1.3,0-1.4-1-1.4-2.5v-1.1c0-1.5,0.2-2.4,1.4-2.4c1.3,0,1.4,0.9,1.4,2.4v1.1
			C233.3,279.7,233.2,280.7,231.9,280.7z M232.7,277.2c0-1.3-0.1-1.9-0.8-1.9c-0.7,0-0.8,0.7-0.8,1.9v1.2c0,1.2,0.1,1.9,0.8,1.9
			c0.7,0,0.8-0.7,0.8-1.9V277.2z"/>
	</g>
	<g class="st1">
		<path d="M-68.7,288.6c-1.3,0-1.4-1-1.4-2.5V285c0-1.5,0.2-2.4,1.4-2.4s1.4,0.9,1.4,2.4v1.1C-67.2,287.6-67.4,288.6-68.7,288.6z
			 M-67.9,285c0-1.3-0.1-1.9-0.8-1.9c-0.7,0-0.8,0.7-0.8,1.9v1.2c0,1.2,0.1,1.9,0.8,1.9c0.7,0,0.8-0.7,0.8-1.9V285z"/>
	</g>
	<g class="st1">
		<path d="M-22.2,288.5v-0.6l1.8-3c0.2-0.3,0.3-0.7,0.3-1.1c0-0.4-0.2-0.7-0.7-0.7c-0.4,0-0.7,0.2-0.7,0.6c0,0.1,0,0.3,0,0.4h-0.7
			c0-0.1,0-0.2,0-0.3c0.1-0.8,0.6-1.2,1.4-1.2c0.9,0,1.4,0.4,1.4,1.3c0,0.6-0.3,1.2-0.6,1.6l-1.5,2.4h2.2v0.5H-22.2z"/>
		<path d="M-17.2,288.6c-1.3,0-1.4-1-1.4-2.5V285c0-1.5,0.2-2.4,1.4-2.4s1.4,0.9,1.4,2.4v1.1C-15.7,287.6-15.8,288.6-17.2,288.6z
			 M-16.4,285c0-1.3-0.1-1.9-0.8-1.9c-0.7,0-0.8,0.7-0.8,1.9v1.2c0,1.2,0.1,1.9,0.8,1.9c0.7,0,0.8-0.7,0.8-1.9V285z"/>
	</g>
	<g class="st1">
		<path d="M30.4,287.1v1.4h-0.6v-1.4h-1.9v-0.6l1.6-3.8h0.9v3.9H31v0.5H30.4z M29.8,283.3l-1.4,3.3h1.4V283.3z"/>
		<path d="M33.1,288.6c-1.3,0-1.4-1-1.4-2.5V285c0-1.5,0.2-2.4,1.4-2.4s1.4,0.9,1.4,2.4v1.1C34.5,287.6,34.4,288.6,33.1,288.6z
			 M33.8,285c0-1.3-0.1-1.9-0.8-1.9c-0.7,0-0.8,0.7-0.8,1.9v1.2c0,1.2,0.1,1.9,0.8,1.9c0.7,0,0.8-0.7,0.8-1.9V285z"/>
	</g>
	<g class="st1">
		<path d="M79.4,288.6c-1.3,0-1.4-1.2-1.4-2.4V285c0-1.1,0.1-2.4,1.5-2.4c0.9,0,1.3,0.4,1.3,1.3h-0.7c0-0.5-0.2-0.8-0.7-0.8
			c-0.8,0-0.8,1-0.8,2v0.3c0.2-0.4,0.5-0.5,1-0.5c1,0,1.2,0.8,1.2,1.8C80.9,287.7,80.6,288.6,79.4,288.6z M79.5,285.4
			c-0.7,0-0.8,0.7-0.8,1.4c0,0.7,0.1,1.4,0.8,1.4c0.7,0,0.8-0.8,0.8-1.4C80.2,286,80.1,285.4,79.5,285.4z"/>
		<path d="M83,288.6c-1.3,0-1.4-1-1.4-2.5V285c0-1.5,0.2-2.4,1.4-2.4c1.3,0,1.4,0.9,1.4,2.4v1.1C84.4,287.6,84.3,288.6,83,288.6z
			 M83.8,285c0-1.3-0.1-1.9-0.8-1.9c-0.7,0-0.8,0.7-0.8,1.9v1.2c0,1.2,0.1,1.9,0.8,1.9c0.7,0,0.8-0.7,0.8-1.9V285z"/>
	</g>
	<g class="st1">
		<path d="M128.9,288.6c-1,0-1.4-0.6-1.4-1.6c0-0.6,0.1-1.3,0.8-1.5c-0.6-0.2-0.7-0.7-0.7-1.3c0-1,0.4-1.6,1.4-1.6
			c1,0,1.4,0.5,1.4,1.5c0,0.6-0.1,1.2-0.8,1.4c0.7,0.1,0.8,0.8,0.8,1.4C130.3,287.9,130,288.6,128.9,288.6z M128.9,285.7
			c-0.7,0-0.8,0.6-0.8,1.2c0,0.6,0.1,1.2,0.8,1.2c0.7,0,0.8-0.6,0.8-1.2C129.6,286.3,129.6,285.7,128.9,285.7z M128.9,283.1
			c-0.6,0-0.8,0.5-0.8,1.1c0,0.5,0.2,1.1,0.7,1.1c0.6,0,0.7-0.5,0.7-1C129.6,283.6,129.5,283.1,128.9,283.1z"/>
		<path d="M132.5,288.6c-1.3,0-1.4-1-1.4-2.5V285c0-1.5,0.2-2.4,1.4-2.4c1.3,0,1.4,0.9,1.4,2.4v1.1
			C133.9,287.6,133.8,288.6,132.5,288.6z M133.3,285c0-1.3-0.1-1.9-0.8-1.9c-0.7,0-0.8,0.7-0.8,1.9v1.2c0,1.2,0.1,1.9,0.8,1.9
			c0.7,0,0.8-0.7,0.8-1.9V285z"/>
	</g>
	<g class="st1">
		<path d="M176.9,288.5v-5c-0.3,0.3-0.6,0.5-0.9,0.7v-0.7c0.3-0.2,0.8-0.6,1-0.9h0.6v5.8H176.9z"/>
		<path d="M180.6,288.6c-1.3,0-1.4-1-1.4-2.5V285c0-1.5,0.2-2.4,1.4-2.4c1.3,0,1.4,0.9,1.4,2.4v1.1
			C182,287.6,181.9,288.6,180.6,288.6z M181.4,285c0-1.3-0.1-1.9-0.8-1.9c-0.7,0-0.8,0.7-0.8,1.9v1.2c0,1.2,0.1,1.9,0.8,1.9
			c0.7,0,0.8-0.7,0.8-1.9V285z"/>
		<path d="M184.2,288.6c-1.3,0-1.4-1-1.4-2.5V285c0-1.5,0.2-2.4,1.4-2.4c1.3,0,1.4,0.9,1.4,2.4v1.1
			C185.6,287.6,185.5,288.6,184.2,288.6z M185,285c0-1.3-0.1-1.9-0.8-1.9c-0.7,0-0.8,0.7-0.8,1.9v1.2c0,1.2,0.1,1.9,0.8,1.9
			c0.7,0,0.8-0.7,0.8-1.9V285z"/>
	</g>
	<g class="st1">
		<path d="M61,295.1v5.9h-0.8v-5.9h-1.5v-0.6h3.8v0.6H61z"/>
		<path d="M62.9,295.3v-0.8h0.8v0.8H62.9z M62.9,301v-4.5h0.7v4.5H62.9z"/>
		<path d="M69.1,301v-3.1c0-0.5,0-1-0.6-1c-0.7,0-0.8,0.7-0.8,1.2v2.9H67v-3.1c0-0.4,0-1-0.6-1c-0.6,0-0.8,0.6-0.8,1.3v2.8h-0.7
			v-3.8c0-0.3,0-0.5,0-0.8h0.7v0.6c0.2-0.4,0.6-0.7,1.1-0.7c0.7,0,0.9,0.4,1,0.7c0.2-0.4,0.6-0.7,1.1-0.7c0.9,0,1.1,0.5,1.1,1.5v3.1
			H69.1z"/>
		<path d="M71.6,298.8v0.3c0,0.7,0.1,1.4,0.8,1.4c0.7,0,0.8-0.5,0.8-1h0.7c0,0.9-0.4,1.5-1.5,1.5c-1.4,0-1.6-1-1.6-2.2
			c0-1.2,0.1-2.5,1.6-2.5c1.5,0,1.5,1.2,1.5,2.3v0.2H71.6z M73.2,297.8c0-0.5-0.2-0.9-0.8-0.9c-0.6,0-0.8,0.4-0.8,0.9
			c0,0.2,0,0.4,0,0.6h1.7C73.2,298.1,73.2,298,73.2,297.8z"/>
		<path d="M75.3,301.9h-0.5l0.3-1.8h0.8L75.3,301.9z"/>
		<path d="M83.3,301v-3.1c0-0.5,0-1-0.6-1c-0.7,0-0.8,0.7-0.8,1.2v2.9h-0.7v-3.1c0-0.4,0-1-0.6-1c-0.6,0-0.8,0.6-0.8,1.3v2.8H79
			v-3.8c0-0.3,0-0.5,0-0.8h0.7v0.6c0.2-0.4,0.6-0.7,1.1-0.7c0.7,0,0.9,0.4,1,0.7c0.2-0.4,0.6-0.7,1.1-0.7c0.9,0,1.1,0.5,1.1,1.5v3.1
			H83.3z"/>
		<path d="M85.2,295.3v-0.8H86v0.8H85.2z M85.2,301v-4.5h0.7v4.5H85.2z"/>
		<path d="M89.5,301v-2.9c0-0.5,0-1.2-0.7-1.2c-0.7,0-0.9,0.8-0.9,1.4v2.7h-0.7v-3.5c0-0.3,0-0.7,0-1h0.7v0.6
			c0.2-0.4,0.6-0.7,1.2-0.7c0.9,0,1.2,0.6,1.2,1.4v3.2H89.5z"/>
	</g>
	<rect x="-67.9" y="307.1" class="st6" width="287.5" height="24.9"/>
	<line class="st10" x1="-41" y1="314.3" x2="-34.3" y2="314.3"/>
	<g class="st1">
		<path d="M-30.7,314.7h-0.5v2.6h-0.6v-5.8h1.3c1.1,0,1.6,0.4,1.6,1.5C-29,314.6-29.7,314.7-30.7,314.7z M-30.7,312.1h-0.5v2.1h0.5
			c0.8,0,1.1-0.2,1.1-1.1C-29.7,312.3-29.9,312.1-30.7,312.1z"/>
		<path d="M-26.2,317.3l0-0.5c-0.2,0.4-0.5,0.6-1,0.6c-0.8,0-1-0.5-1-1.2v-2.9h0.6v2.6c0,0.5,0,1,0.6,1c0.6,0,0.8-0.6,0.8-1.2v-2.4
			h0.6v3.1c0,0.3,0,0.6,0,0.9H-26.2z"/>
		<path d="M-21,317.3v-2.7c0-0.4,0-0.9-0.5-0.9c-0.6,0-0.7,0.6-0.7,1.1v2.5h-0.6v-2.7c0-0.4,0-0.9-0.5-0.9c-0.5,0-0.7,0.6-0.7,1.2
			v2.5h-0.6V314c0-0.2,0-0.5,0-0.7h0.6v0.5c0.2-0.3,0.5-0.6,0.9-0.6c0.6,0,0.8,0.3,0.9,0.6c0.2-0.3,0.5-0.6,1-0.6
			c0.7,0,0.9,0.5,0.9,1.4v2.7H-21z"/>
		<path d="M-17.9,317.4c-0.4,0-0.7-0.1-0.9-0.5v1.9h-0.6v-4.6c0-0.2,0-0.7,0-0.9h0.6v0.5c0.2-0.4,0.5-0.6,1-0.6c1.1,0,1.1,1.1,1.1,2
			C-16.7,316.2-16.8,317.4-17.9,317.4z M-18,313.7c-0.7,0-0.8,0.8-0.8,1.7c0,0.7,0,1.6,0.8,1.6c0.7,0,0.7-1.1,0.7-1.7
			C-17.4,314.6-17.4,313.7-18,313.7z"/>
	</g>
	<g class="st1">
		<path d="M-12.8,317.4c-1.2,0-1.3-0.8-1.3-2.1c0-1.2,0.1-2.1,1.4-2.1c1.2,0,1.3,0.9,1.3,2.1C-11.4,316.6-11.6,317.4-12.8,317.4z
			 M-12,315.1c0-0.6,0-1.4-0.7-1.4c-0.8,0-0.7,0.9-0.7,1.5v0.6c0,0.5,0,1.3,0.7,1.3c0.7,0,0.7-0.7,0.7-1.2V315.1z"/>
		<path d="M-8.5,317.3l0-0.5c-0.2,0.4-0.5,0.6-1,0.6c-0.8,0-1-0.5-1-1.2v-2.9h0.6v2.6c0,0.5,0,1,0.6,1c0.6,0,0.8-0.6,0.8-1.2v-2.4
			H-8v3.1c0,0.3,0,0.6,0,0.9H-8.5z"/>
		<path d="M-5.9,317.4c-0.7,0-0.9-0.3-0.9-1v-2.6h-0.6v-0.5h0.6v-0.7l0.6-0.3v1h0.7v0.5h-0.7v2.5c0,0.5,0.1,0.6,0.4,0.6
			c0.1,0,0.2,0,0.3,0v0.5C-5.6,317.4-5.8,317.4-5.9,317.4z"/>
		<path d="M-4.8,317.3v-5.8h0.6v5.8H-4.8z"/>
		<path d="M-2.7,315.4v0.3c0,0.7,0.1,1.3,0.7,1.3c0.6,0,0.7-0.4,0.7-0.9h0.6c0,0.8-0.4,1.4-1.3,1.4c-1.2,0-1.3-0.9-1.3-1.9
			c0-1.1,0.1-2.3,1.4-2.3c1.2,0,1.3,1,1.3,2v0.2H-2.7z M-1.3,314.5c0-0.4-0.2-0.8-0.6-0.8c-0.5,0-0.7,0.3-0.7,0.8c0,0.2,0,0.3,0,0.5
			h1.4C-1.3,314.8-1.3,314.6-1.3,314.5z"/>
		<path d="M1.2,317.4c-0.7,0-0.9-0.3-0.9-1v-2.6h-0.6v-0.5h0.6v-0.7l0.6-0.3v1h0.7v0.5H0.9v2.5c0,0.5,0.1,0.6,0.4,0.6
			c0.1,0,0.2,0,0.3,0v0.5C1.5,317.4,1.3,317.4,1.2,317.4z"/>
	</g>
	<g class="st1">
		<path d="M5.6,317.4c-0.4,0-0.7-0.1-0.9-0.5v1.9H4.2v-4.6c0-0.2,0-0.7,0-0.9h0.6v0.5c0.2-0.4,0.5-0.6,1-0.6c1.1,0,1.1,1.1,1.1,2
			C6.8,316.2,6.8,317.4,5.6,317.4z M5.5,313.7c-0.7,0-0.8,0.8-0.8,1.7c0,0.7,0,1.6,0.8,1.6c0.7,0,0.7-1.1,0.7-1.7
			C6.2,314.6,6.2,313.7,5.5,313.7z"/>
		<path d="M9.2,313.8c-0.6,0-0.9,0.4-0.9,1v2.5H7.7V314c0-0.2,0-0.6,0-0.7h0.6v0.5c0.2-0.4,0.5-0.6,1-0.6h0.1v0.6
			C9.2,313.8,9.2,313.8,9.2,313.8z"/>
		<path d="M10.3,315.4v0.3c0,0.7,0.1,1.3,0.7,1.3c0.6,0,0.7-0.4,0.7-0.9h0.6c0,0.8-0.4,1.4-1.3,1.4c-1.2,0-1.3-0.9-1.3-1.9
			c0-1.1,0.1-2.3,1.4-2.3c1.2,0,1.3,1,1.3,2v0.2H10.3z M11.7,314.5c0-0.4-0.2-0.8-0.6-0.8c-0.5,0-0.7,0.3-0.7,0.8c0,0.2,0,0.3,0,0.5
			h1.4C11.7,314.8,11.7,314.6,11.7,314.5z"/>
		<path d="M14,317.4c-0.7,0-1.1-0.3-1.2-1c0-0.1,0-0.2,0-0.3h0.6c0,0.1,0,0.2,0,0.2c0,0.4,0.2,0.6,0.6,0.6c0.4,0,0.6-0.2,0.6-0.6
			c0-0.5-0.3-0.6-0.7-0.9l-0.2-0.1c-0.4-0.2-0.8-0.5-0.8-1.1c0-0.7,0.5-1,1.1-1c0.7,0,1,0.3,1.1,0.9c0,0.1,0,0.2,0,0.3h-0.6
			c0-0.1,0-0.2,0-0.3c0-0.3-0.2-0.5-0.5-0.5c-0.3,0-0.5,0.2-0.5,0.6c0,0.3,0.2,0.5,0.6,0.7l0.2,0.1c0.5,0.3,0.9,0.5,0.9,1.2
			C15.3,317,14.8,317.4,14,317.4z"/>
		<path d="M17,317.4c-0.7,0-1.1-0.3-1.2-1c0-0.1,0-0.2,0-0.3h0.6c0,0.1,0,0.2,0,0.2c0,0.4,0.2,0.6,0.6,0.6c0.4,0,0.6-0.2,0.6-0.6
			c0-0.5-0.3-0.6-0.7-0.9l-0.2-0.1c-0.4-0.2-0.8-0.5-0.8-1.1c0-0.7,0.5-1,1.1-1c0.7,0,1,0.3,1.1,0.9c0,0.1,0,0.2,0,0.3h-0.6
			c0-0.1,0-0.2,0-0.3c0-0.3-0.2-0.5-0.5-0.5c-0.3,0-0.5,0.2-0.5,0.6c0,0.3,0.2,0.5,0.6,0.7l0.2,0.1c0.5,0.3,0.9,0.5,0.9,1.2
			C18.2,317,17.7,317.4,17,317.4z"/>
		<path d="M21,317.3l0-0.5c-0.2,0.4-0.5,0.6-1,0.6c-0.8,0-1-0.5-1-1.2v-2.9h0.6v2.6c0,0.5,0,1,0.6,1c0.6,0,0.8-0.6,0.8-1.2v-2.4h0.6
			v3.1c0,0.3,0,0.6,0,0.9H21z"/>
		<path d="M24,313.8c-0.6,0-0.9,0.4-0.9,1v2.5h-0.6V314c0-0.2,0-0.6,0-0.7h0.6v0.5c0.2-0.4,0.5-0.6,1-0.6h0.1v0.6
			C24.1,313.8,24.1,313.8,24,313.8z"/>
		<path d="M25.1,315.4v0.3c0,0.7,0.1,1.3,0.7,1.3c0.6,0,0.7-0.4,0.7-0.9h0.6c0,0.8-0.4,1.4-1.3,1.4c-1.2,0-1.3-0.9-1.3-1.9
			c0-1.1,0.1-2.3,1.4-2.3c1.2,0,1.3,1,1.3,2v0.2H25.1z M26.5,314.5c0-0.4-0.2-0.8-0.6-0.8c-0.5,0-0.7,0.3-0.7,0.8c0,0.2,0,0.3,0,0.5
			h1.4C26.6,314.8,26.6,314.6,26.5,314.5z"/>
		<path d="M28.3,318.2h-0.5l0.3-1.6h0.7L28.3,318.2z"/>
	</g>
	<g class="st1">
		<path d="M33.2,317.4c-0.4,0-0.7-0.1-0.9-0.5v1.9h-0.6v-4.6c0-0.2,0-0.7,0-0.9h0.6v0.5c0.2-0.4,0.5-0.6,1-0.6c1.1,0,1.1,1.1,1.1,2
			C34.4,316.2,34.4,317.4,33.2,317.4z M33.1,313.7c-0.7,0-0.8,0.8-0.8,1.7c0,0.7,0,1.6,0.8,1.6c0.7,0,0.7-1.1,0.7-1.7
			C33.8,314.6,33.8,313.7,33.1,313.7z"/>
		<path d="M36.2,317.4c-0.7,0-1.1-0.3-1.2-1c0-0.1,0-0.2,0-0.3h0.6c0,0.1,0,0.2,0,0.2c0,0.4,0.2,0.6,0.6,0.6c0.4,0,0.6-0.2,0.6-0.6
			c0-0.5-0.3-0.6-0.7-0.9l-0.2-0.1c-0.4-0.2-0.8-0.5-0.8-1.1c0-0.7,0.5-1,1.1-1c0.7,0,1,0.3,1.1,0.9c0,0.1,0,0.2,0,0.3h-0.6
			c0-0.1,0-0.2,0-0.3c0-0.3-0.2-0.5-0.5-0.5c-0.3,0-0.5,0.2-0.5,0.6c0,0.3,0.2,0.5,0.6,0.7l0.2,0.1c0.5,0.3,0.9,0.5,0.9,1.2
			C37.4,317,36.9,317.4,36.2,317.4z"/>
		<path d="M38.2,312.3v-0.7h0.7v0.7H38.2z M38.2,317.3v-4h0.6v4H38.2z"/>
	</g>
	<line class="st11" x1="50.7" y1="314.3" x2="57.3" y2="314.3"/>
	<g class="st1">
		<path d="M60.9,314.7h-0.5v2.6h-0.6v-5.8h1.3c1.1,0,1.6,0.4,1.6,1.5C62.7,314.6,62,314.7,60.9,314.7z M61,312.1h-0.5v2.1H61
			c0.8,0,1.1-0.2,1.1-1.1C62,312.3,61.7,312.1,61,312.1z"/>
		<path d="M64.9,313.8c-0.6,0-0.9,0.4-0.9,1v2.5h-0.6V314c0-0.2,0-0.6,0-0.7H64v0.5c0.2-0.4,0.5-0.6,1-0.6H65v0.6
			C65,313.8,65,313.8,64.9,313.8z"/>
		<path d="M66.7,317.4c-1.2,0-1.3-0.8-1.3-2.1c0-1.2,0.1-2.1,1.4-2.1c1.2,0,1.3,0.9,1.3,2.1C68.1,316.6,67.9,317.4,66.7,317.4z
			 M67.5,315.1c0-0.6,0-1.4-0.7-1.4c-0.8,0-0.7,0.9-0.7,1.5v0.6c0,0.5,0,1.3,0.7,1.3c0.7,0,0.7-0.7,0.7-1.2V315.1z"/>
		<path d="M71.2,317.1c-0.2,0.2-0.4,0.3-0.8,0.3c-0.4,0-0.7-0.2-0.9-0.5l0,0.5h-0.6c0-0.2,0-0.6,0-0.8v-5h0.6v2.2
			c0.3-0.4,0.5-0.5,0.9-0.5c0.4,0,0.6,0.1,0.8,0.3c0.3,0.4,0.4,1.1,0.4,1.7C71.6,315.9,71.6,316.7,71.2,317.1z M70.8,314
			c-0.1-0.2-0.3-0.3-0.5-0.3c-0.2,0-0.4,0.1-0.5,0.3c-0.2,0.3-0.2,0.9-0.2,1.4c0,0.4,0,0.9,0.2,1.2c0.1,0.2,0.3,0.4,0.6,0.4
			c0.2,0,0.4-0.1,0.5-0.3c0.2-0.3,0.2-0.7,0.2-1.4C71,314.8,71,314.3,70.8,314z"/>
		<path d="M72.9,315.4v0.3c0,0.7,0.1,1.3,0.7,1.3c0.6,0,0.7-0.4,0.7-0.9h0.6c0,0.8-0.4,1.4-1.3,1.4c-1.2,0-1.3-0.9-1.3-1.9
			c0-1.1,0.1-2.3,1.4-2.3c1.2,0,1.3,1,1.3,2v0.2H72.9z M74.3,314.5c0-0.4-0.2-0.8-0.6-0.8c-0.5,0-0.7,0.3-0.7,0.8c0,0.2,0,0.3,0,0.5
			h1.4C74.3,314.8,74.3,314.6,74.3,314.5z"/>
	</g>
	<g class="st1">
		<path d="M79.2,317.4c-0.4,0-0.7-0.1-0.9-0.5v1.9h-0.6v-4.6c0-0.2,0-0.7,0-0.9h0.6v0.5c0.2-0.4,0.5-0.6,1-0.6c1.1,0,1.1,1.1,1.1,2
			C80.4,316.2,80.3,317.4,79.2,317.4z M79.1,313.7c-0.7,0-0.8,0.8-0.8,1.7c0,0.7,0,1.6,0.8,1.6c0.7,0,0.7-1.1,0.7-1.7
			C79.8,314.6,79.8,313.7,79.1,313.7z"/>
		<path d="M82.7,313.8c-0.6,0-0.9,0.4-0.9,1v2.5h-0.6V314c0-0.2,0-0.6,0-0.7h0.6v0.5c0.2-0.4,0.5-0.6,1-0.6h0.1v0.6
			C82.8,313.8,82.8,313.8,82.7,313.8z"/>
		<path d="M83.8,315.4v0.3c0,0.7,0.1,1.3,0.7,1.3c0.6,0,0.7-0.4,0.7-0.9h0.6c0,0.8-0.4,1.4-1.3,1.4c-1.2,0-1.3-0.9-1.3-1.9
			c0-1.1,0.1-2.3,1.4-2.3c1.2,0,1.3,1,1.3,2v0.2H83.8z M85.2,314.5c0-0.4-0.2-0.8-0.6-0.8c-0.5,0-0.7,0.3-0.7,0.8c0,0.2,0,0.3,0,0.5
			h1.4C85.2,314.8,85.2,314.6,85.2,314.5z"/>
		<path d="M87.6,317.4c-0.7,0-1.1-0.3-1.2-1c0-0.1,0-0.2,0-0.3h0.6c0,0.1,0,0.2,0,0.2c0,0.4,0.2,0.6,0.6,0.6c0.4,0,0.6-0.2,0.6-0.6
			c0-0.5-0.3-0.6-0.7-0.9l-0.2-0.1c-0.4-0.2-0.8-0.5-0.8-1.1c0-0.7,0.5-1,1.1-1c0.7,0,1,0.3,1.1,0.9c0,0.1,0,0.2,0,0.3h-0.6
			c0-0.1,0-0.2,0-0.3c0-0.3-0.2-0.5-0.5-0.5c-0.3,0-0.5,0.2-0.5,0.6c0,0.3,0.2,0.5,0.6,0.7l0.2,0.1c0.5,0.3,0.9,0.5,0.9,1.2
			C88.8,317,88.4,317.4,87.6,317.4z"/>
		<path d="M90.5,317.4c-0.7,0-1.1-0.3-1.2-1c0-0.1,0-0.2,0-0.3H90c0,0.1,0,0.2,0,0.2c0,0.4,0.2,0.6,0.6,0.6c0.4,0,0.6-0.2,0.6-0.6
			c0-0.5-0.3-0.6-0.7-0.9l-0.2-0.1c-0.4-0.2-0.8-0.5-0.8-1.1c0-0.7,0.5-1,1.1-1c0.7,0,1,0.3,1.1,0.9c0,0.1,0,0.2,0,0.3h-0.6
			c0-0.1,0-0.2,0-0.3c0-0.3-0.2-0.5-0.5-0.5c-0.3,0-0.5,0.2-0.5,0.6c0,0.3,0.2,0.5,0.6,0.7l0.2,0.1c0.5,0.3,0.9,0.5,0.9,1.2
			C91.8,317,91.3,317.4,90.5,317.4z"/>
		<path d="M94.5,317.3l0-0.5c-0.2,0.4-0.5,0.6-1,0.6c-0.8,0-1-0.5-1-1.2v-2.9h0.6v2.6c0,0.5,0,1,0.6,1c0.6,0,0.8-0.6,0.8-1.2v-2.4
			h0.6v3.1c0,0.3,0,0.6,0,0.9H94.5z"/>
		<path d="M97.6,313.8c-0.6,0-0.9,0.4-0.9,1v2.5h-0.6V314c0-0.2,0-0.6,0-0.7h0.6v0.5c0.2-0.4,0.5-0.6,1-0.6h0.1v0.6
			C97.7,313.8,97.7,313.8,97.6,313.8z"/>
		<path d="M98.7,315.4v0.3c0,0.7,0.1,1.3,0.7,1.3c0.6,0,0.7-0.4,0.7-0.9h0.6c0,0.8-0.4,1.4-1.3,1.4c-1.2,0-1.3-0.9-1.3-1.9
			c0-1.1,0.1-2.3,1.4-2.3c1.2,0,1.3,1,1.3,2v0.2H98.7z M100.1,314.5c0-0.4-0.2-0.8-0.6-0.8c-0.5,0-0.7,0.3-0.7,0.8
			c0,0.2,0,0.3,0,0.5h1.4C100.1,314.8,100.1,314.6,100.1,314.5z"/>
		<path d="M101.9,318.2h-0.5l0.3-1.6h0.7L101.9,318.2z"/>
	</g>
	<g class="st1">
		<path d="M106.9,317.4c-0.4,0-0.7-0.1-0.9-0.5v1.9h-0.6v-4.6c0-0.2,0-0.7,0-0.9h0.6v0.5c0.2-0.4,0.5-0.6,1-0.6c1.1,0,1.1,1.1,1.1,2
			C108.1,316.2,108,317.4,106.9,317.4z M106.8,313.7c-0.7,0-0.8,0.8-0.8,1.7c0,0.7,0,1.6,0.8,1.6c0.7,0,0.7-1.1,0.7-1.7
			C107.5,314.6,107.5,313.7,106.8,313.7z"/>
		<path d="M109.9,317.4c-0.7,0-1.1-0.3-1.2-1c0-0.1,0-0.2,0-0.3h0.6c0,0.1,0,0.2,0,0.2c0,0.4,0.2,0.6,0.6,0.6c0.4,0,0.6-0.2,0.6-0.6
			c0-0.5-0.3-0.6-0.7-0.9l-0.2-0.1c-0.4-0.2-0.8-0.5-0.8-1.1c0-0.7,0.5-1,1.1-1c0.7,0,1,0.3,1.1,0.9c0,0.1,0,0.2,0,0.3h-0.6
			c0-0.1,0-0.2,0-0.3c0-0.3-0.2-0.5-0.5-0.5c-0.3,0-0.5,0.2-0.5,0.6c0,0.3,0.2,0.5,0.6,0.7l0.2,0.1c0.5,0.3,0.9,0.5,0.9,1.2
			C111.1,317,110.6,317.4,109.9,317.4z"/>
		<path d="M111.8,312.3v-0.7h0.7v0.7H111.8z M111.9,317.3v-4h0.6v4H111.9z"/>
	</g>
	<line class="st9" x1="124.4" y1="314.3" x2="131" y2="314.3"/>
	<g class="st1">
		<path d="M136.3,317.3l-0.4-1.5H134l-0.4,1.5H133l1.6-5.8h0.8l1.6,5.8H136.3z M135,312.2l-0.8,3.1h1.6L135,312.2z"/>
		<path d="M139.6,317.3v-2.6c0-0.5,0-1.1-0.6-1.1c-0.6,0-0.8,0.7-0.8,1.2v2.4h-0.6v-3.2c0-0.3,0-0.6,0-0.9h0.6v0.6
			c0.2-0.3,0.5-0.6,1-0.6c0.8,0,1,0.5,1,1.3v2.9H139.6z"/>
		<path d="M143.2,317.3v-2.6c0-0.5,0-1.1-0.6-1.1c-0.6,0-0.8,0.7-0.8,1.2v2.4h-0.6v-3.2c0-0.3,0-0.6,0-0.9h0.6v0.6
			c0.2-0.3,0.5-0.6,1-0.6c0.8,0,1,0.5,1,1.3v2.9H143.2z"/>
		<path d="M146.8,317.3l0-0.5c-0.2,0.4-0.5,0.6-1,0.6c-0.8,0-1-0.5-1-1.2v-2.9h0.6v2.6c0,0.5,0,1,0.6,1c0.6,0,0.8-0.6,0.8-1.2v-2.4
			h0.6v3.1c0,0.3,0,0.6,0,0.9H146.8z"/>
		<path d="M148.4,317.3v-5.8h0.6v5.8H148.4z"/>
		<path d="M151.8,317.3l0-0.5c-0.3,0.4-0.5,0.6-1,0.6c-0.7,0-1-0.5-1-1.2c0-1.3,1-1.4,2-1.4v-0.2c0-0.5,0-1-0.6-1
			c-0.4,0-0.6,0.2-0.6,0.6v0h-0.6v0c0-0.8,0.6-1.1,1.3-1.1c0.9,0,1.2,0.4,1.2,1.3v1.5c0,0.4,0,0.9,0,1.3H151.8z M151.7,315.3h-0.2
			c-0.6,0-1.2,0.1-1.2,0.9c0,0.4,0.1,0.8,0.6,0.8c0.6,0,0.8-0.6,0.8-1.2V315.3z"/>
		<path d="M154.8,313.8c-0.6,0-0.9,0.4-0.9,1v2.5h-0.6V314c0-0.2,0-0.6,0-0.7h0.6v0.5c0.2-0.4,0.5-0.6,1-0.6h0.1v0.6
			C154.9,313.8,154.9,313.8,154.8,313.8z"/>
	</g>
	<g class="st1">
		<path d="M158.9,317.4c-0.4,0-0.7-0.1-0.9-0.5v1.9h-0.6v-4.6c0-0.2,0-0.7,0-0.9h0.6v0.5c0.2-0.4,0.5-0.6,1-0.6c1.1,0,1.1,1.1,1.1,2
			C160.1,316.2,160,317.4,158.9,317.4z M158.7,313.7c-0.7,0-0.8,0.8-0.8,1.7c0,0.7,0,1.6,0.8,1.6c0.7,0,0.7-1.1,0.7-1.7
			C159.4,314.6,159.4,313.7,158.7,313.7z"/>
		<path d="M162.4,313.8c-0.6,0-0.9,0.4-0.9,1v2.5h-0.6V314c0-0.2,0-0.6,0-0.7h0.6v0.5c0.2-0.4,0.5-0.6,1-0.6h0.1v0.6
			C162.5,313.8,162.4,313.8,162.4,313.8z"/>
		<path d="M163.5,315.4v0.3c0,0.7,0.1,1.3,0.7,1.3c0.6,0,0.7-0.4,0.7-0.9h0.6c0,0.8-0.4,1.4-1.3,1.4c-1.2,0-1.3-0.9-1.3-1.9
			c0-1.1,0.1-2.3,1.4-2.3c1.2,0,1.3,1,1.3,2v0.2H163.5z M164.9,314.5c0-0.4-0.2-0.8-0.6-0.8c-0.5,0-0.7,0.3-0.7,0.8
			c0,0.2,0,0.3,0,0.5h1.4C164.9,314.8,164.9,314.6,164.9,314.5z"/>
		<path d="M167.3,317.4c-0.7,0-1.1-0.3-1.2-1c0-0.1,0-0.2,0-0.3h0.6c0,0.1,0,0.2,0,0.2c0,0.4,0.2,0.6,0.6,0.6c0.4,0,0.6-0.2,0.6-0.6
			c0-0.5-0.3-0.6-0.7-0.9l-0.2-0.1c-0.4-0.2-0.8-0.5-0.8-1.1c0-0.7,0.5-1,1.1-1c0.7,0,1,0.3,1.1,0.9c0,0.1,0,0.2,0,0.3h-0.6
			c0-0.1,0-0.2,0-0.3c0-0.3-0.2-0.5-0.5-0.5c-0.3,0-0.5,0.2-0.5,0.6c0,0.3,0.2,0.5,0.6,0.7l0.2,0.1c0.5,0.3,0.9,0.5,0.9,1.2
			C168.5,317,168,317.4,167.3,317.4z"/>
		<path d="M170.2,317.4c-0.7,0-1.1-0.3-1.2-1c0-0.1,0-0.2,0-0.3h0.6c0,0.1,0,0.2,0,0.2c0,0.4,0.2,0.6,0.6,0.6c0.4,0,0.6-0.2,0.6-0.6
			c0-0.5-0.3-0.6-0.7-0.9l-0.2-0.1c-0.4-0.2-0.8-0.5-0.8-1.1c0-0.7,0.5-1,1.1-1c0.7,0,1,0.3,1.1,0.9c0,0.1,0,0.2,0,0.3h-0.6
			c0-0.1,0-0.2,0-0.3c0-0.3-0.2-0.5-0.5-0.5c-0.3,0-0.5,0.2-0.5,0.6c0,0.3,0.2,0.5,0.6,0.7l0.2,0.1c0.5,0.3,0.9,0.5,0.9,1.2
			C171.4,317,171,317.4,170.2,317.4z"/>
		<path d="M174.2,317.3l0-0.5c-0.2,0.4-0.5,0.6-1,0.6c-0.8,0-1-0.5-1-1.2v-2.9h0.6v2.6c0,0.5,0,1,0.6,1c0.6,0,0.8-0.6,0.8-1.2v-2.4
			h0.6v3.1c0,0.3,0,0.6,0,0.9H174.2z"/>
		<path d="M177.3,313.8c-0.6,0-0.9,0.4-0.9,1v2.5h-0.6V314c0-0.2,0-0.6,0-0.7h0.6v0.5c0.2-0.4,0.5-0.6,1-0.6h0.1v0.6
			C177.4,313.8,177.3,313.8,177.3,313.8z"/>
		<path d="M178.4,315.4v0.3c0,0.7,0.1,1.3,0.7,1.3c0.6,0,0.7-0.4,0.7-0.9h0.6c0,0.8-0.4,1.4-1.3,1.4c-1.2,0-1.3-0.9-1.3-1.9
			c0-1.1,0.1-2.3,1.4-2.3c1.2,0,1.3,1,1.3,2v0.2H178.4z M179.8,314.5c0-0.4-0.2-0.8-0.6-0.8c-0.5,0-0.7,0.3-0.7,0.8
			c0,0.2,0,0.3,0,0.5h1.4C179.8,314.8,179.8,314.6,179.8,314.5z"/>
		<path d="M181.5,318.2h-0.5l0.3-1.6h0.7L181.5,318.2z"/>
	</g>
	<g class="st1">
		<path d="M186.6,317.4c-0.4,0-0.7-0.1-0.9-0.5v1.9h-0.6v-4.6c0-0.2,0-0.7,0-0.9h0.6v0.5c0.2-0.4,0.5-0.6,1-0.6c1.1,0,1.1,1.1,1.1,2
			C187.8,316.2,187.7,317.4,186.6,317.4z M186.4,313.7c-0.7,0-0.8,0.8-0.8,1.7c0,0.7,0,1.6,0.8,1.6c0.7,0,0.7-1.1,0.7-1.7
			C187.1,314.6,187.1,313.7,186.4,313.7z"/>
		<path d="M189.5,317.4c-0.7,0-1.1-0.3-1.2-1c0-0.1,0-0.2,0-0.3h0.6c0,0.1,0,0.2,0,0.2c0,0.4,0.2,0.6,0.6,0.6c0.4,0,0.6-0.2,0.6-0.6
			c0-0.5-0.3-0.6-0.7-0.9l-0.2-0.1c-0.4-0.2-0.8-0.5-0.8-1.1c0-0.7,0.5-1,1.1-1c0.7,0,1,0.3,1.1,0.9c0,0.1,0,0.2,0,0.3h-0.6
			c0-0.1,0-0.2,0-0.3c0-0.3-0.2-0.5-0.5-0.5c-0.3,0-0.5,0.2-0.5,0.6c0,0.3,0.2,0.5,0.6,0.7l0.2,0.1c0.5,0.3,0.9,0.5,0.9,1.2
			C190.8,317,190.3,317.4,189.5,317.4z"/>
		<path d="M191.5,312.3v-0.7h0.7v0.7H191.5z M191.5,317.3v-4h0.6v4H191.5z"/>
	</g>
	<line class="st12" x1="7.5" y1="324.3" x2="14.2" y2="324.3"/>
	<g class="st1">
		<path d="M17.8,324.7h-0.5v2.6h-0.6v-5.8H18c1.1,0,1.6,0.4,1.6,1.5C19.5,324.6,18.8,324.7,17.8,324.7z M17.9,322.1h-0.5v2.1h0.5
			c0.8,0,1.1-0.2,1.1-1.1C18.9,322.3,18.6,322.1,17.9,322.1z"/>
		<path d="M22.3,327.3l0-0.5c-0.2,0.4-0.5,0.6-1,0.6c-0.8,0-1-0.5-1-1.2v-2.9h0.6v2.6c0,0.5,0,1,0.6,1c0.6,0,0.8-0.6,0.8-1.2v-2.4
			h0.6v3.1c0,0.3,0,0.6,0,0.9H22.3z"/>
		<path d="M27.5,327.3v-2.7c0-0.4,0-0.9-0.5-0.9c-0.6,0-0.7,0.6-0.7,1.1v2.5h-0.6v-2.7c0-0.4,0-0.9-0.5-0.9c-0.5,0-0.7,0.6-0.7,1.2
			v2.5h-0.6V324c0-0.2,0-0.5,0-0.7h0.6v0.5c0.2-0.3,0.5-0.6,0.9-0.6c0.6,0,0.8,0.3,0.9,0.6c0.2-0.3,0.5-0.6,1-0.6
			c0.7,0,0.9,0.5,0.9,1.4v2.7H27.5z"/>
		<path d="M30.6,327.4c-0.4,0-0.7-0.1-0.9-0.5v1.9h-0.6v-4.6c0-0.2,0-0.7,0-0.9h0.6v0.5c0.2-0.4,0.5-0.6,1-0.6c1.1,0,1.1,1.1,1.1,2
			C31.8,326.2,31.7,327.4,30.6,327.4z M30.5,323.7c-0.7,0-0.8,0.8-0.8,1.7c0,0.7,0,1.6,0.8,1.6c0.7,0,0.7-1.1,0.7-1.7
			C31.2,324.6,31.2,323.7,30.5,323.7z"/>
		<path d="M33.1,325.4v0.3c0,0.7,0.1,1.3,0.7,1.3c0.6,0,0.7-0.4,0.7-0.9h0.6c0,0.8-0.4,1.4-1.3,1.4c-1.2,0-1.3-0.9-1.3-1.9
			c0-1.1,0.1-2.3,1.4-2.3c1.2,0,1.3,1,1.3,2v0.2H33.1z M34.5,324.5c0-0.4-0.2-0.8-0.6-0.8c-0.5,0-0.7,0.3-0.7,0.8c0,0.2,0,0.3,0,0.5
			h1.4C34.5,324.8,34.5,324.6,34.5,324.5z"/>
		<path d="M37.9,327.3l0-0.5c-0.2,0.4-0.5,0.5-0.9,0.5c-1.1,0-1.2-1.2-1.2-2.1c0-1,0.2-2,1.2-2c0.4,0,0.7,0.2,0.9,0.5v-2.1h0.6v5
			c0,0.2,0,0.6,0,0.8H37.9z M37.2,323.7c-0.7,0-0.7,0.9-0.7,1.6c0,0.9,0.1,1.7,0.7,1.7c0.7,0,0.8-0.8,0.8-1.6
			C37.9,324.5,37.8,323.7,37.2,323.7z"/>
	</g>
	<g class="st1">
		<path d="M42.7,327.3h-0.7l-1.1-4h0.6l0.8,3.4l0.8-3.4h0.6L42.7,327.3z"/>
		<path d="M45.5,327.4c-1.2,0-1.3-0.8-1.3-2.1c0-1.2,0.1-2.1,1.4-2.1c1.2,0,1.3,0.9,1.3,2.1C46.9,326.6,46.7,327.4,45.5,327.4z
			 M46.3,325.1c0-0.6,0-1.4-0.7-1.4c-0.8,0-0.7,0.9-0.7,1.5v0.6c0,0.5,0,1.3,0.7,1.3c0.7,0,0.7-0.7,0.7-1.2V325.1z"/>
		<path d="M47.7,327.3v-5.8h0.6v5.8H47.7z"/>
		<path d="M51.4,327.3l0-0.5c-0.2,0.4-0.5,0.6-1,0.6c-0.8,0-1-0.5-1-1.2v-2.9H50v2.6c0,0.5,0,1,0.6,1c0.6,0,0.8-0.6,0.8-1.2v-2.4
			h0.6v3.1c0,0.3,0,0.6,0,0.9H51.4z"/>
		<path d="M56.6,327.3v-2.7c0-0.4,0-0.9-0.5-0.9c-0.6,0-0.7,0.6-0.7,1.1v2.5h-0.6v-2.7c0-0.4,0-0.9-0.5-0.9c-0.5,0-0.7,0.6-0.7,1.2
			v2.5H53V324c0-0.2,0-0.5,0-0.7h0.6v0.5c0.2-0.3,0.5-0.6,0.9-0.6c0.6,0,0.8,0.3,0.9,0.6c0.2-0.3,0.5-0.6,1-0.6
			c0.7,0,0.9,0.5,0.9,1.4v2.7H56.6z"/>
		<path d="M58.7,325.4v0.3c0,0.7,0.1,1.3,0.7,1.3c0.6,0,0.7-0.4,0.7-0.9h0.6c0,0.8-0.4,1.4-1.3,1.4c-1.2,0-1.3-0.9-1.3-1.9
			c0-1.1,0.1-2.3,1.4-2.3c1.2,0,1.3,1,1.3,2v0.2H58.7z M60.1,324.5c0-0.4-0.2-0.8-0.6-0.8c-0.5,0-0.7,0.3-0.7,0.8c0,0.2,0,0.3,0,0.5
			h1.4C60.1,324.8,60.1,324.6,60.1,324.5z"/>
		<path d="M61.8,328.2h-0.5l0.3-1.6h0.7L61.8,328.2z"/>
	</g>
	<g class="st1">
		<path d="M65.4,327.3v-5.8H66v5.2h1.7v0.6H65.4z"/>
	</g>
	<line class="st13" x1="79.3" y1="324.3" x2="85.9" y2="324.3"/>
	<path d="M89.5,324.7H89v2.6h-0.6v-5.8h1.3c1.1,0,1.6,0.4,1.6,1.5C91.3,324.5,90.6,324.7,89.5,324.7z M89.6,322.1h-0.5v2.1h0.5
		c0.8,0,1.1-0.2,1.1-1.1C90.6,322.3,90.3,322.1,89.6,322.1z M94,327.3v-0.5c-0.2,0.4-0.5,0.6-1,0.6c-0.8,0-1-0.5-1-1.2v-2.9h0.6v2.6
		c0,0.5,0,1,0.6,1s0.8-0.6,0.8-1.2v-2.4h0.6v3.1c0,0.3,0,0.6,0,0.9L94,327.3L94,327.3z M99.2,327.3v-2.7c0-0.4,0-0.9-0.5-0.9
		c-0.6,0-0.7,0.6-0.7,1.1v2.5h-0.6v-2.7c0-0.4,0-0.9-0.5-0.9s-0.7,0.6-0.7,1.2v2.5h-0.6v-3.3c0-0.2,0-0.5,0-0.7h0.6v0.5
		c0.2-0.3,0.5-0.6,0.9-0.6c0.6,0,0.8,0.3,0.9,0.6c0.2-0.3,0.5-0.6,1-0.6c0.7,0,0.9,0.5,0.9,1.4v2.7h-0.7V327.3z M102.3,327.4
		c-0.4,0-0.7-0.1-0.9-0.5v1.9h-0.6v-4.6c0-0.2,0-0.7,0-0.9h0.6v0.5c0.2-0.4,0.5-0.6,1-0.6c1.1,0,1.1,1.1,1.1,2
		C103.5,326.2,103.5,327.4,102.3,327.4z M102.2,323.7c-0.7,0-0.8,0.8-0.8,1.7c0,0.7,0,1.6,0.8,1.6c0.7,0,0.7-1.1,0.7-1.7
		C102.9,324.6,102.9,323.7,102.2,323.7z M104.4,322.3v-0.7h0.7v0.7H104.4z M104.4,327.3v-4h0.6v4H104.4z M108,327.3v-2.6
		c0-0.5,0-1.1-0.6-1.1s-0.8,0.7-0.8,1.2v2.4H106V324c0-0.3,0-0.6,0-0.9h0.6v0.6c0.2-0.3,0.5-0.6,1-0.6c0.8,0,1,0.5,1,1.3v2.9
		L108,327.3L108,327.3z M112.1,324v3.5c0,1-0.4,1.4-1.4,1.4c-0.8,0-1.2-0.4-1.2-1.2h0.6c0,0.4,0.1,0.7,0.6,0.7
		c0.6,0,0.7-0.5,0.7-1.1v-0.6c-0.2,0.3-0.5,0.5-0.9,0.5c-1.1,0-1.2-1-1.2-1.9c0-1,0.1-2.1,1.2-2.1c0.5,0,0.7,0.2,0.9,0.6v-0.5h0.6
		C112.1,323.5,112.1,323.7,112.1,324z M110.8,323.7c-0.7,0-0.7,0.9-0.7,1.7c0,0.7,0,1.5,0.7,1.5c0.8,0,0.8-1,0.8-1.7
		C111.5,324.5,111.5,323.7,110.8,323.7z M116.5,323.8c-0.6,0-0.9,0.4-0.9,1v2.5H115V324c0-0.2,0-0.6,0-0.7h0.6v0.5
		c0.2-0.4,0.5-0.6,1-0.6h0.1v0.6C116.6,323.8,116.6,323.8,116.5,323.8z M119,327.3v-0.5c-0.3,0.4-0.5,0.6-1,0.6c-0.7,0-1-0.5-1-1.2
		c0-1.3,1-1.4,2-1.4v-0.2c0-0.5,0-1-0.6-1c-0.4,0-0.6,0.2-0.6,0.6l0,0h-0.6l0,0c0-0.8,0.6-1.1,1.3-1.1c0.9,0,1.2,0.4,1.2,1.3v1.5
		c0,0.4,0,0.9,0,1.3L119,327.3L119,327.3z M119,325.3h-0.2c-0.6,0-1.2,0.1-1.2,0.9c0,0.4,0.1,0.8,0.6,0.8c0.6,0,0.8-0.6,0.8-1.2
		L119,325.3L119,325.3z M121.6,327.4c-0.7,0-0.9-0.3-0.9-1v-2.6h-0.6v-0.5h0.6v-0.7l0.6-0.3v1h0.7v0.5h-0.7v2.5
		c0,0.5,0.1,0.6,0.4,0.6c0.1,0,0.2,0,0.3,0v0.5C121.9,327.3,121.8,327.4,121.6,327.4z M123.2,325.4v0.3c0,0.7,0.1,1.3,0.7,1.3
		c0.6,0,0.7-0.4,0.7-0.9h0.6c0,0.8-0.4,1.4-1.3,1.4c-1.2,0-1.3-0.9-1.3-1.9c0-1.1,0.1-2.3,1.4-2.3c1.2,0,1.3,1,1.3,2v0.2h-2.1V325.4
		z M124.6,324.4c0-0.4-0.2-0.8-0.6-0.8c-0.5,0-0.7,0.3-0.7,0.8c0,0.2,0,0.3,0,0.5h1.4C124.6,324.8,124.6,324.6,124.6,324.4z
		 M126.3,328.1h-0.5l0.3-1.6h0.7L126.3,328.1z M130.8,327.4c-1.2,0-1.3-0.8-1.3-2c0-1.1,0.1-2.2,1.3-2.2c0.9,0,1.2,0.4,1.2,1.3h-0.6
		c0-0.5-0.1-0.8-0.6-0.8c-0.7,0-0.7,0.9-0.7,1.6c0,1.2,0.1,1.6,0.7,1.6c0.5,0,0.6-0.4,0.6-0.9h0.6
		C132,326.8,131.8,327.4,130.8,327.4z M136.4,327.3v-2.7c0-0.4,0-0.9-0.5-0.9c-0.6,0-0.7,0.6-0.7,1.1v2.5h-0.6v-2.7
		c0-0.4,0-0.9-0.5-0.9s-0.7,0.6-0.7,1.2v2.5h-0.6v-3.3c0-0.2,0-0.5,0-0.7h0.6v0.5c0.2-0.3,0.5-0.6,0.9-0.6c0.6,0,0.8,0.3,0.9,0.6
		c0.2-0.3,0.5-0.6,1-0.6c0.7,0,0.9,0.5,0.9,1.4v2.7h-0.7V327.3z M138.6,324.9c-0.6,0-0.8-0.3-0.9-1h0.5c0,0.3,0.1,0.6,0.4,0.6
		c0.3,0,0.4-0.2,0.4-0.6c0-0.5-0.1-0.6-0.5-0.6h-0.2v-0.4h0.2c0.3,0,0.5-0.1,0.5-0.6c0-0.3-0.1-0.5-0.4-0.5c-0.3,0-0.4,0.2-0.4,0.5
		h-0.4v-0.1c0-0.5,0.3-0.8,0.8-0.8c0.6,0,0.8,0.3,0.8,0.9c0,0.4-0.1,0.6-0.4,0.8c0.3,0.2,0.4,0.4,0.4,0.8
		C139.5,324.6,139.2,324.9,138.6,324.9z M139.1,327.6h-0.4l2.9-6.2h0.4L139.1,327.6z M142.7,327.4c-0.7,0-1.1-0.3-1.2-1
		c0-0.1,0-0.2,0-0.3h0.6c0,0.1,0,0.2,0,0.2c0,0.4,0.2,0.6,0.6,0.6c0.4,0,0.6-0.2,0.6-0.6c0-0.5-0.3-0.6-0.7-0.9l-0.2-0.1
		c-0.4-0.2-0.8-0.5-0.8-1.1c0-0.7,0.5-1,1.1-1c0.7,0,1,0.3,1.1,0.9c0,0.1,0,0.2,0,0.3h-0.6c0-0.1,0-0.2,0-0.3c0-0.3-0.2-0.5-0.5-0.5
		s-0.5,0.2-0.5,0.6c0,0.3,0.2,0.5,0.6,0.7l0.2,0.1c0.5,0.3,0.9,0.5,0.9,1.2C143.9,327,143.4,327.4,142.7,327.4z"/>
	<rect x="-67.9" y="307.1" class="st14" width="287.5" height="24.9"/>
	<rect x="133.8" y="272.8" class="st15" width="9.4" height="9"/>
	<g class="st1">
		<path class="st6" d="M138.5,280.4v-5c-0.3,0.3-0.6,0.5-0.9,0.7v-0.7c0.3-0.2,0.8-0.6,1-0.9h0.6v5.8H138.5z"/>
	</g>
	<rect x="133.8" y="396.2" class="st15" width="9.4" height="9"/>
	<g class="st1">
		<path class="st6" d="M138.5,403.8v-5c-0.3,0.3-0.6,0.5-0.9,0.7v-0.7c0.3-0.2,0.8-0.6,1-0.9h0.6v5.8H138.5z"/>
	</g>
	<rect x="164.8" y="272.8" class="st15" width="9.8" height="9"/>
	<g class="st1">
		<path class="st6" d="M169.7,280.4c-1,0-1.4-0.5-1.4-1.5h0.7c0,0.6,0.2,1,0.8,1c0.6,0,0.8-0.5,0.8-1.1c0-1-0.3-1.2-1.1-1.2v-0.5
			c0.8,0,1.1-0.2,1.1-1.1c0-0.5-0.1-1-0.7-1c-0.6,0-0.7,0.4-0.7,1h-0.6v-0.1c0-0.9,0.4-1.4,1.4-1.4c1,0,1.4,0.5,1.4,1.4
			c0,0.7-0.2,1.3-0.8,1.4c0.7,0.1,0.9,0.7,0.9,1.4C171.1,279.8,170.7,280.4,169.7,280.4z"/>
	</g>
	<rect x="164.8" y="396.2" class="st15" width="9.8" height="9"/>
	<g class="st1">
		<path class="st6" d="M169.7,403.8c-1,0-1.4-0.5-1.4-1.5h0.7c0,0.6,0.2,1,0.8,1c0.6,0,0.8-0.5,0.8-1.1c0-1-0.3-1.2-1.1-1.2v-0.5
			c0.8,0,1.1-0.2,1.1-1.1c0-0.5-0.1-1-0.7-1c-0.6,0-0.7,0.4-0.7,1h-0.6v-0.1c0-0.9,0.4-1.4,1.4-1.4c1,0,1.4,0.5,1.4,1.4
			c0,0.7-0.2,1.3-0.8,1.4c0.7,0.1,0.9,0.7,0.9,1.4C171.1,403.1,170.7,403.8,169.7,403.8z"/>
	</g>
	<rect x="149.2" y="272.8" class="st15" width="9.8" height="9"/>
	<g class="st1">
		<path class="st6" d="M152.7,280.4v-0.6l1.8-3c0.2-0.3,0.3-0.7,0.3-1.1c0-0.4-0.2-0.7-0.7-0.7c-0.4,0-0.7,0.2-0.7,0.6
			c0,0.1,0,0.3,0,0.4h-0.7c0-0.1,0-0.2,0-0.3c0.1-0.8,0.6-1.2,1.4-1.2c0.9,0,1.4,0.4,1.4,1.3c0,0.6-0.3,1.2-0.6,1.6l-1.5,2.4h2.2
			v0.5H152.7z"/>
	</g>
	<rect x="149.2" y="396.2" class="st15" width="9.8" height="9"/>
	<g class="st1">
		<path class="st6" d="M152.7,403.8v-0.6l1.8-3c0.2-0.3,0.3-0.7,0.3-1.1c0-0.4-0.2-0.7-0.7-0.7c-0.4,0-0.7,0.2-0.7,0.6
			c0,0.1,0,0.3,0,0.4h-0.7c0-0.1,0-0.2,0-0.3c0.1-0.8,0.6-1.2,1.4-1.2c0.9,0,1.4,0.4,1.4,1.3c0,0.6-0.3,1.2-0.6,1.6l-1.5,2.4h2.2
			v0.5H152.7z"/>
	</g>
	<rect x="192.8" y="272.8" class="st15" width="10.6" height="9"/>
	<g class="st1">
		<path class="st6" d="M199,278.9v1.4h-0.6v-1.4h-1.9v-0.6l1.6-3.8h0.9v3.9h0.6v0.5H199z M198.4,275.1l-1.4,3.3h1.4V275.1z"/>
	</g>
	<rect x="192.8" y="396.2" class="st15" width="10.6" height="9"/>
	<g class="st1">
		<path class="st6" d="M199,402.3v1.4h-0.6v-1.4h-1.9v-0.6l1.6-3.8h0.9v3.9h0.6v0.5H199z M198.4,398.5l-1.4,3.3h1.4V398.5z"/>
	</g>
</g>
</svg>
