<?xml version="1.0" encoding="utf-8"?>
<!-- Generator: Adobe Illustrator 19.1.0, SVG Export Plug-In . SVG Version: 6.00 Build 0)  -->
<svg version="1.1" id="Layer_1" xmlns="http://www.w3.org/2000/svg" xmlns:xlink="http://www.w3.org/1999/xlink" x="0px" y="0px"
	 viewBox="0 0 256 256" style="enable-background:new 0 0 256 256;" xml:space="preserve">
<g>
	<path d="M128,18c29.4,0,57,11.4,77.8,32.2C226.6,71,238,98.6,238,128s-11.4,57-32.2,77.8C185,226.6,157.4,238,128,238
		s-57-11.4-77.8-32.2C29.4,185,18,157.4,18,128s11.4-57,32.2-77.8C71,29.4,98.6,18,128,18 M128,0C57.3,0,0,57.3,0,128
		s57.3,128,128,128s128-57.3,128-128S198.7,0,128,0L128,0z"/>
	<path d="M128,186.1c-5,0-9-4-9-9V78.9c0-5,4-9,9-9s9,4,9,9v98.2C137,182.1,133,186.1,128,186.1z"/>
	<path d="M177.1,137H78.9c-5,0-9-4-9-9s4-9,9-9h98.2c5,0,9,4,9,9S182.1,137,177.1,137z"/>
</g>
</svg>
