<?xml version="1.0" encoding="utf-8"?>
<!-- Generator: Adobe Illustrator 19.1.0, SVG Export Plug-In . SVG Version: 6.00 Build 0)  -->
<svg version="1.1" id="Layer_1" xmlns="http://www.w3.org/2000/svg" xmlns:xlink="http://www.w3.org/1999/xlink" x="0px" y="0px"
	 viewBox="-56 181.5 460.9 58.4" style="enable-background:new -56 181.5 460.9 58.4;" xml:space="preserve">
<style type="text/css">
	.st0{fill:#FFFFFF;}
	.st1{fill:#FFFFFF;stroke:#FFFFFF;stroke-miterlimit:10;}
</style>
<g>
	<g>
		<rect x="11.5" y="181.5" class="st0" width="8.1" height="47.9"/>
		<g>
			<path class="st0" d="M-13,205.7v-6.2c0-5.6-4.3-8.6-9.5-8.6c-5.1,0-9.5,2.9-9.5,8.6v21.9c0,5.7,4.3,8.6,9.5,8.6
				c5.4,0,9.5-2.9,9.5-8.6v-7h-8.1v7.8c0,0.8-0.5,1.5-1.4,1.5s-1.4-0.7-1.4-1.5v-23.7c0-0.8,0.6-1.4,1.4-1.4c0.8,0,1.4,0.6,1.4,1.4
				v7.2H-13z"/>
			<path class="st0" d="M109.6,206h-2.8v-7.4c0-0.9,0.6-1.5,1.4-1.5c0.8,0,1.4,0.6,1.4,1.5L109.6,206L109.6,206z M117.7,199.4
				c0-5.7-4.3-8.6-9.5-8.6c-5.1,0-9.5,2.9-9.5,8.6v21.9c0,5.8,4.3,8.6,9.5,8.6c5.1,0,9.5-2.8,9.5-8.6v-7h-8.1v7.8
				c0,1-0.7,1.5-1.4,1.5c-0.8,0-1.4-0.6-1.4-1.5v-10.3h10.9V199.4z"/>
			<path class="st0" d="M174.9,206h-2.8v-7.4c0-0.9,0.6-1.5,1.4-1.5c0.8,0,1.4,0.6,1.4,1.5L174.9,206L174.9,206z M183,199.4
				c0-5.7-4.3-8.6-9.5-8.6c-5.1,0-9.5,2.9-9.5,8.6v21.9c0,5.8,4.3,8.6,9.5,8.6c5.1,0,9.5-2.9,9.5-8.6v-7h-8.1v7.8
				c0,1-0.7,1.5-1.4,1.5c-0.8,0-1.4-0.6-1.4-1.5v-10.3H183V199.4z"/>
			<path class="st0" d="M33.3,191.3v30.2c0,0.9-0.5,1.5-1.4,1.5c-0.8,0-1.4-0.5-1.4-1.5v-30.2h-8.1v31.8c0,4.2,2.6,6.8,5.7,6.8
				c3.2,0,4.6-2.3,5.1-3.1h0.2l0.2,2.7h7.8v-38.2H33.3z"/>
			<path class="st0" d="M133.9,190.8c-2.7,0-4.4,2-5.1,3.1h-0.2l-0.2-2.7h-7.9v38.3h8.1v-30.2c0-0.9,0.5-1.5,1.4-1.5
				c0.8,0,1.4,0.6,1.4,1.5v12.5h8.1v-14.4C139.5,193.4,137.1,190.8,133.9,190.8"/>
			<path class="st0" d="M199.2,190.8c-2.7,0-4.4,2-5.1,3.1h-0.2l-0.2-2.7h-7.9v38.3h8.1v-30.2c0-0.9,0.5-1.5,1.4-1.5
				c0.8,0,1.4,0.6,1.4,1.5v12.5h8.1v-14.4C204.8,193.4,202.3,190.8,199.2,190.8"/>
			<path class="st0" d="M153.2,219c0,1-0.6,1.6-1.4,1.6c-0.8,0-1.4-0.6-1.4-1.6v-19.8c0-1,0.7-1.5,1.4-1.5c0.8,0,1.4,0.6,1.4,1.5
				V219z M153.3,191.3l-0.1,2.7H153c-0.4-0.9-2-3.1-5-3.1c-2.9,0-5.6,2.3-5.6,6.4v22.8c0,4.4,2.5,6.9,5.7,6.9c3,0,4.5-2,5-2.8h0.2
				v8.3c0,0.9-0.6,1.5-1.4,1.5c-0.7,0-1.4-0.5-1.4-1.5v-3.4h-8.1v2.1c0,6,3.8,8.6,9.5,8.6c5.6,0,9.5-2.7,9.5-8.6v-40h-8.1V191.3z"/>
			<path class="st0" d="M3.1,190.8c-2.9,0-4.6,2.1-5.1,3.1h-0.1v-12.4h-8.1v48h8.1v-29.9c0-0.8,0.5-1.5,1.4-1.5s1.4,0.7,1.4,1.5
				v29.9h8.1v-31.7C8.7,192.6,5.6,190.8,3.1,190.8"/>
			<path class="st0" d="M62.7,194.5c-0.4-1.4-2.1-3.7-5.1-3.7c-2.9,0-4.6,1.9-5.2,3.1h-0.2l-0.1-2.7h-8v38.3h8.1v-30.2
				c0-0.9,0.6-1.5,1.4-1.5s1.4,0.6,1.4,1.5v30.2h8.1v-30.2c0-1,0.7-1.5,1.4-1.5c0.8,0,1.4,0.6,1.4,1.5v30.2H74v-31.4
				c0-5.2-2.7-7.3-5.8-7.3C65.1,190.8,63.3,193.1,62.7,194.5L62.7,194.5z"/>
			<path class="st0" d="M87.9,221.5c0,0.9-0.5,1.5-1.4,1.5c-0.7,0-1.4-0.5-1.4-1.5v-22.2c0-1.1,0.7-1.6,1.4-1.6
				c0.8,0,1.4,0.5,1.4,1.6V221.5z M90.1,190.8c-2.7,0-4.3,2.3-4.8,3.1h-0.2v-12.4H77v48h8l0.1-2.7h0.2c0.4,1,1.8,3.1,4.8,3.1
				c3.4,0,5.9-3,5.9-7.4v-24.7C96,193.5,93.4,190.8,90.1,190.8"/>
			<path class="st0" d="M-38.7,205.3c-1.7-1.7-4-3.9-5-4.8c-2.5-2.4-3.2-3.7-3.2-6.7V190c0-0.9,0.6-1.4,1.5-1.4
				c0.9,0,1.4,0.6,1.4,1.4v7.5h9v-7.4c0-6.2-5-8.6-10.4-8.6c-5.6,0-10.6,2.4-10.6,8.7v5.7c0,4.6,2,7.1,3.9,8.9
				c1.5,1.4,2.6,2.5,4.9,4.6c2.7,2.5,3.2,3.8,3.2,7.4v4.5c0,1.3-0.6,1.8-1.4,1.8c-0.9,0-1.5-0.6-1.5-1.8v-9H-56v9.2
				c0,6.3,5,8.7,10.6,8.7c5.5,0,10.6-2.3,10.6-9v-6.4C-34.8,211-35.6,208.3-38.7,205.3"/>
		</g>
	</g>
	<line class="st1" x1="243" y1="181.5" x2="243" y2="239.9"/>
</g>
<g>
	<path class="st0" d="M289,231h-7.5v-49.3h7.5c6.1,0,9.2,3.1,9.2,9.3v30.7C298.2,227.9,295.1,231,289,231z M293.3,190.9
		c0-2.8-1.1-5-4.2-5h-2.6v40.7h2.6c3.1,0,4.2-2.2,4.2-5V190.9z"/>
	<path class="st0" d="M314.1,208.1v-9.4c0-1.8-0.9-3.3-2.8-3.3c-2,0-2.9,1.5-2.9,3.3V231h-4.6v-39.3h4.5l0.1,2h0.1
		c0.9-1.6,2.8-2.4,4.6-2.4c3.3,0,5.8,2.3,5.8,5.7v11.2H314.1z"/>
	<path class="st0" d="M323.8,186.9v-5.2h4.9v5.2H323.8z M324,231v-39.3h4.6V231H324z"/>
	<path class="st0" d="M334.9,231v-49.3h4.6V231H334.9z"/>
	<path class="st0" d="M346,231v-49.3h4.6V231H346z"/>
	<path class="st0" d="M357.1,186.9v-5.2h4.9v5.2H357.1z M357.3,231v-39.3h4.6V231H357.3z"/>
	<path class="st0" d="M378.8,231v-32.2c0-1.9-0.9-3.4-3-3.4c-2,0-2.9,1.5-2.9,3.4V231h-4.6v-39.3h4.5l0.1,2h0.1
		c0.9-1.6,2.7-2.4,4.5-2.4c4,0,6,2.9,6,6.7V231H378.8z"/>
	<path class="st0" d="M397.3,239.8c-4.5,0-7.6-2.5-7.6-7.1v-2.6h4.6c0,2.4-0.3,5.8,3,5.8c2,0,2.9-1.5,2.9-3.4v-5.6h-0.1
		c-1.3,1.3-2.6,1.8-4.5,1.8c-3.7,0-5.9-2.8-5.9-6.4v-24.3c0-3.8,2-6.7,6-6.7c1.8,0,3.6,0.9,4.5,2.5h0.1l0.1-2h4.5v40.9
		C404.9,237.3,401.8,239.8,397.3,239.8z M400.3,198.8c0-1.9-0.9-3.4-2.9-3.4c-2,0-3,1.5-3,3.4v22.4c0,1.9,0.9,3.5,3,3.5
		c2.1,0,2.9-1.6,2.9-3.5V198.8z"/>
</g>
</svg>
