<?xml version="1.0" encoding="utf-8"?>
<!-- Generator: Adobe Illustrator 17.1.0, SVG Export Plug-In . SVG Version: 6.00 Build 0)  -->
<!DOCTYPE svg PUBLIC "-//W3C//DTD SVG 1.1//EN" "http://www.w3.org/Graphics/SVG/1.1/DTD/svg11.dtd">
<svg version="1.1" id="Layer_1" xmlns="http://www.w3.org/2000/svg" xmlns:xlink="http://www.w3.org/1999/xlink" x="0px" y="0px"
	 viewBox="0 0 7120.2 4213.7" enable-background="new 0 0 7120.2 4213.7" xml:space="preserve">
<path fill="#FFFFFF" d="M3561,4213.2c-139.5,0-279-13.7-414.6-40.8c-135.4-27-268.7-67.7-396.2-120.8
	c-125.1-52.2-245.8-116.9-358.8-192.4c-111.9-74.8-217.1-160.7-312.9-255.5c-95.8-94.8-182.8-199.2-258.7-310.2
	c-76.6-112.2-142.6-232.2-196.1-356.8c-54.5-126.9-96.5-259.7-124.9-394.9c-29.1-138.6-44.3-281.3-45.1-424.1c0,0,0-0.1,0-0.1
	c-0.7-142.8,13.1-285.6,40.8-424.5c27-135.4,67.7-268.7,120.8-396.2c52.2-125.1,116.9-245.8,192.4-358.8
	c74.8-111.9,160.7-217.1,255.5-312.9c94.8-95.7,199.2-182.8,310.2-258.7c112.2-76.6,232.2-142.6,356.8-196.1
	C2857.1,116,2990,74,3125.2,45.6c138.6-29.1,281.3-44.3,424.1-45.1c0.3,0,0.6,0,0.8,0h20.1c0.3,0,0.6,0,0.8,0
	c141.8,0.8,283.5,15.8,421.2,44.5c134.3,28.1,266.4,69.5,392.6,123.3c123.9,52.8,243.5,117.9,355.3,193.7
	c110.7,75,214.9,161,309.6,255.7c94.7,94.7,180.8,198.8,255.7,309.5c75.7,111.8,140.9,231.3,193.7,355.2
	c53.7,126.2,95.2,258.3,123.2,392.6c28.7,137.7,43.6,279.4,44.2,421.2c0.7,142.8-13.1,285.7-40.8,424.6
	c-27,135.5-67.7,268.8-120.8,396.2c-52.2,125.1-116.9,245.9-192.4,358.9c-74.8,111.9-160.7,217.2-255.5,313
	c-94.8,95.8-199.2,182.8-310.3,258.8c-112.2,76.7-232.3,142.6-356.8,196.1c-126.9,54.4-259.8,96.4-394.9,124.8
	c-138.6,29.1-281.3,44.1-424.2,44.8C3567.6,4213.2,3564.2,4213.2,3561,4213.2z M3710.1,2979.9v852.7
	c85.2-80.2,164.2-166.4,236.1-257.5c95.7-121.3,179.6-252.7,249.4-390.4c18.5-36.5,36.1-73.6,52.7-111.2
	C4072.3,3022.2,3891.7,2991,3710.1,2979.9z M2871.8,3073.6c25.8,58,53.9,115,84.3,170.6c76,139.2,166.9,271.8,270.2,394.2
	c0.1,0.1,0.1,0.2,0.2,0.2c55.8,66.3,117.3,131.2,183.7,193.7v-852.4C3228.5,2991,3047.9,3022.2,2871.8,3073.6z M4531.3,3175.3
	c-21.3,49.1-44,97.5-68.1,145.1c-78.8,155.4-173.5,303.6-281.4,440.5c-15.9,20.1-32.1,40.1-48.6,59.8
	c46.9-15.7,93.1-33.3,138.5-52.7c106.7-45.8,209.6-102.3,305.8-168.1c95.3-65.1,184.9-139.8,266.2-222.1
	c8.3-8.3,16.4-16.8,24.5-25.3C4759.6,3284.2,4647,3225.1,4531.3,3175.3z M2252.2,3352.4c12.3,12.9,24.7,25.6,37.4,38.1
	c82.2,81.3,172.5,155.1,268.5,219.3c96.9,64.7,200.4,120.2,307.6,165c39.9,16.7,80.6,31.9,121.7,45.6
	c-112.3-134.5-211.4-279.9-294.6-432.5c-37.7-69.2-72.4-140.2-103.9-212.6C2473.3,3225.1,2360.7,3284.1,2252.2,3352.4z
	 M4634.9,2893.3c145.5,61.6,287,136.3,422.5,224.1c1.9-2.7,3.7-5.5,5.5-8.2c64.7-96.9,120.2-200.4,165-307.7
	c45.5-109.2,80.4-223.4,103.5-339.5c13.5-67.5,23.1-136.1,28.8-205.1h-613.4c-1.5,27.8-3.4,55.6-5.7,83.3
	c-14.3,169.4-44.9,338.2-91.1,501.6C4645.2,2859,4640.2,2876.2,4634.9,2893.3z M1760,2256.8c6.2,75.2,17.1,149.9,32.5,223.2
	c24.3,115.8,60.3,229.6,107,338.3c44.7,104.2,99.7,204.8,163.4,299c135.5-87.7,276.7-162.3,422.1-223.9
	c-48.6-159.3-82.2-324.1-100.1-490c-5.2-48.7-9.1-97.6-11.7-146.6H1760z M2673.7,2256.8c2.2,38.3,5.4,76.4,9.5,114.5
	c15.3,142.2,43.7,283.4,84.4,420.2c209.9-62.9,425.7-100.3,642.5-112.1v-422.6H2673.7z M3710.1,2679.4
	c216.7,11.8,432.4,49.1,642.2,112c3.1-10.4,6.1-20.8,9.1-31.2c41-145,68.2-294.9,80.9-445.3c1.6-19.3,3-38.7,4.2-58.1h-736.3V2679.4
	z M4745.9,1956.8h614.5c-6.1-74.4-16.7-148.2-31.8-220.7c-24-115-59.5-228.1-105.5-336.2c-45.1-105.9-100.8-208.1-165.5-303.7
	c-137.2,88.9-280.4,164.3-427.8,226.4c0.5,1.5,1,3.1,1.4,4.6c50.7,163.3,85.8,332.6,104.1,503.1
	C4739.9,1872.4,4743.4,1914.6,4745.9,1956.8z M3710.1,1956.8h735.2c-2.1-31.6-4.9-63-8.2-94.4c-16-148.6-46.3-296.1-90-438.6
	c-208.1,61.9-422.1,98.8-637,110.5V1956.8z M2675.1,1956.8h735v-422.6c-214.8-11.7-428.6-48.5-636.6-110.4
	c-5.1,16.5-9.9,33-14.6,49.6c-41,145-68.2,294.9-80.9,445.3C2676.9,1931.5,2675.9,1944.2,2675.1,1956.8z M1760,1956.8h614.5
	c1.3-21.1,2.8-42.2,4.6-63.3c14.3-169.4,44.9-338.2,91.1-501.6c6.5-23.2,13.4-46.3,20.6-69.2c-147.4-62-290.7-137.5-427.9-226.4
	c-1.9,2.8-3.8,5.6-5.7,8.4c-64.7,96.9-120.2,200.4-165,307.6c-45.5,109.2-80.4,223.4-103.5,339.4
	C1775.3,1819.2,1765.7,1887.8,1760,1956.8z M3710.1,401.2v832.6c178.8-10.9,356.7-41.4,530.3-91.4c-23.6-51.9-49-102.9-76.3-152.9
	c-75.9-139.1-166.7-271.6-270-393.9C3835.2,526.3,3773.5,461.2,3710.1,401.2z M2879.8,1142.4c173.6,50,351.5,80.4,530.3,91.3V401.1
	c-85.2,80.2-164.2,166.4-236.1,257.5c-95.7,121.3-179.6,252.7-249.4,390.4C2909,1079.8,2894.1,1111,2879.8,1142.4z M2252.2,861.3
	c110.8,69.8,226,129.9,344.1,180.3c19.1-43.3,39.4-86.1,60.8-128.2c78.8-155.4,173.5-303.6,281.4-440.4c23.2-29.5,47.1-58.5,71.7-87
	c-54.8,17.5-108.8,37.7-161.6,60.3c-106.8,45.8-209.7,102.4-305.9,168.1c-95.3,65.1-184.9,139.8-266.3,222
	C2268.3,844.5,2260.2,852.9,2252.2,861.3z M4109.3,385.7c4.5,5.2,9,10.5,13.5,15.8c0.1,0.1,0.2,0.3,0.3,0.4
	c116.3,137.7,218.7,287.1,304.3,444c34.8,63.8,67,129.1,96.5,195.7c118.2-50.4,233.3-110.6,344.2-180.4
	c-10.1-10.6-20.3-21-30.6-31.4c-81.3-81.2-170.7-155.1-265.7-219.4c-95.9-64.9-198.4-120.8-304.6-166.1
	C4215.6,422.4,4162.9,402.8,4109.3,385.7z"/>
</svg>
