<?xml version="1.0" encoding="utf-8"?>
<!-- Generator: Adobe Illustrator 18.1.1, SVG Export Plug-In . SVG Version: 6.00 Build 0)  -->
<svg version="1.1" id="Layer_1" xmlns="http://www.w3.org/2000/svg" xmlns:xlink="http://www.w3.org/1999/xlink" x="0px" y="0px"
	 viewBox="194 374.5 612 612" enable-background="new 194 374.5 612 612" xml:space="preserve">
<g>
	<circle fill="#60C4D9" cx="500" cy="680.5" r="306"/>
	<path fill="#157D95" d="M383.3,604.8l14.8,14.8l1.4-5.5c21.3-5.2,88.2-24.6,100.3-19.1c9.8,4.4,21,10.9,32.5,16.7
		c6.6,3.3,10.7,3.3,13.9,7.1l16.4,16.4c-0.5-6.6-1.1-13.7-3.6-19.1l-10.4-10.4l53,9l25.1,25.1l-9.3-35l51.6-12.3l134.1,134.1
		c-19.1,126.8-116.1,227.9-240.4,253.5L299.2,716.6l33.3-124L383.3,604.8z"/>
	<path fill="#FFFFFF" d="M563.1,800.2c-1.9-7.1-9-17.2-16.4-21.9c-5.5-3.3-11.2-3-14.8,1.9c-4.4,6.3,10.4,31.1,17.8,32.8
		C556.6,814.1,565.6,808.6,563.1,800.2L563.1,800.2z M298.4,716.6l33.3-124l51.6,12.3l-33.3,124L298.4,716.6L298.4,716.6z
		 M701.6,716.6l-33.3-124l-51.6,12.3l33.3,124L701.6,716.6L701.6,716.6z M512.3,825c7.9-0.3,4.4-10.1,3.3-14.5
		c-1.1-5.5,0.8-15,7.9-10.4c5.7,3.6,12,16.1,11.5,22.7C535,833,518.6,829.4,512.3,825L512.3,825z M437.4,803.7
		c10.7-2.7,43.4-29,49.7-37.7c7.4-10.1,4.1-14.5-6-6.6c-10.4,7.9-27.9,27.9-42.6,34.2c-15,6.3-32.5,6-32.5-14.2l7.1-3.6
		c16.7-9.8,44.8-32.2,54.4-53.3c5.7-13.1-1.4-16.1-8.5-3c-7.9,14.2-24,27.6-35,36.9c-5.7,4.9-15.8,13.7-22.9,16.7
		c-10.9-1.1-19.7-6-19.1-18c0-0.8,48.4-47,53-51.4c26.5,0.3,54.6-25.4,59.3-50.8l15,2.5c4.4,18.6,21.9,39.1,41.3,41
		c32.2,0.3,14.8-35,12.8-52.5c-1.1-9.8-0.5-24.3-7.1-32.2c-1.9-2.2-4.6-4.1-7.6-6l53,9l30.6,114.5l-8.5,6.3c-9.6-9.6-21-15.8-33.1-6
		c-6.6,5.2-9.8,11.7-9.3,19.9c-12.8-2.7-27.3,2.5-31.4,16.1c-17.5-7.9-32.2,4.9-29.8,23.5c-14.5,2.2-16.7,19.1-14.2,26.2
		c-6.6,1.6-25.7,12-32.2,6.3c7.1-2.7,15.3-10.9,23.5-18.3c6.8-6,1.9-9.6-4.1-4.4s-12.8,10.1-19.4,12.8
		C460.4,816.3,446.5,815.5,437.4,803.7L437.4,803.7z M558.2,678c0.5-4.1-1.1-9.3-1.9-12.6c-3-9.6-4.4-17.8-4.9-27.6
		c-0.3-4.6-1.1-9.3-2.2-13.4c-3.8-10.1-8.2-8.5-16.9-12.8c-11.2-5.7-22.7-12.3-32.5-16.7c-12-5.5-79,13.9-100.3,19.1l-30.6,114.5
		c3.3,3.6,6,6.6,11.7,8.7c5.7-4.1,29.2-26.5,37.7-35.5l-11.5-4.4c-6.6-2.5-3-8.2,0.5-7.9c20.5,2.2,34.7,4.9,52.5-7.6
		c13.9-9.8,23.5-23.5,24.3-41.3l0.3-3.6c12.6,3,21.9,6.3,34.4,4.4c0.5,14.2,14.8,40.4,30.1,42.1C552.5,683.8,557.4,682.7,558.2,678
		L558.2,678z M609.3,740.6c-7.4-4.6-14.8,0.5-17.2,8.5c-1.9,6.6,10.7,19.9,16.9,20.5c3.6,0.3,7.6-3.3,9.8-7.1
		C624.6,753.4,617.5,745.5,609.3,740.6L609.3,740.6z M564.2,777.8c-7.9-22.7,21-17.8,30.6-3.3c8.7,13.7-10.4,28.1-21,18.3
		C569.7,789.5,566.1,783.5,564.2,777.8L564.2,777.8z M331.2,682.7c-6,0-10.9,4.9-10.9,10.9c0,6,4.9,10.9,10.9,10.9
		c6,0,10.9-4.9,10.9-10.9C342.1,687.6,337.2,682.7,331.2,682.7L331.2,682.7z M668.3,682.7c6,0,10.9,4.9,10.9,10.9
		c0,6-4.9,10.9-10.9,10.9s-10.9-4.9-10.9-10.9C657.4,687.6,662.3,682.7,668.3,682.7z"/>
</g>
</svg>
