<?xml version="1.0" encoding="utf-8"?>
<!-- Generator: Adobe Illustrator 18.1.1, SVG Export Plug-In . SVG Version: 6.00 Build 0)  -->
<svg version="1.1" id="Layer_1" xmlns="http://www.w3.org/2000/svg" xmlns:xlink="http://www.w3.org/1999/xlink" x="0px" y="0px"
	 viewBox="193.5 284.5 224 224" enable-background="new 193.5 284.5 224 224" xml:space="preserve">
<g>
	<circle fill="#00B7C2" cx="305.5" cy="396.5" r="112"/>
	<path fill="#00676F" d="M305.5,351.8l98.3,98.3c-12,21.9-31.1,39.4-54.3,49.3l-67-67c-6.2-5.9-9-13.8-9-22.3
		c0-9.9,5.5-19,12.3-28.4C292.7,372.3,300.7,362.6,305.5,351.8z"/>
	<path fill="#FFFFFF" d="M273.6,410.1c0-9.9,5.5-19,12.3-28.4s14.8-19.1,19.7-29.9c5,11.1,13.3,20.9,20.1,30.6
		c6.5,9.1,11.8,18.1,11.8,27.7C337.5,451.4,273.6,451.4,273.6,410.1L273.6,410.1z M320.2,384c5.8,14.5,9.8,31.6,2.6,46.4
		c14.6-11.9,9.7-28.8,1.3-40.8C322.8,387.7,321.5,385.8,320.2,384z"/>
</g>
</svg>
