<?xml version="1.0" encoding="utf-8"?>
<!-- Generator: Adobe Illustrator 18.1.1, SVG Export Plug-In . SVG Version: 6.00 Build 0)  -->
<svg version="1.1" id="Layer_1" xmlns="http://www.w3.org/2000/svg" xmlns:xlink="http://www.w3.org/1999/xlink" x="0px" y="0px"
	 viewBox="194 284 224 224" enable-background="new 194 284 224 224" xml:space="preserve">
<g>
	<circle fill="#134E67" cx="306" cy="396" r="112"/>
	<path fill="#002236" d="M264.7,366.3l-15.2-15.4c-1-0.3-1.9-0.6-2.9-0.8c-4.7,23.7,1,43.7,17.4,61.4l24.1,24.4H280v4.6h-8.7v4.6
		l59.6,60.3c47.3-10.7,83.2-51.3,86.9-100.9l-63.9-64.7L264.7,366.3z"/>
	<path fill="#FFFFFF" d="M301.7,368.9l-10.8,66.9h-11v4.6h-8.7v4.6h74.4v-4.6h-8.7v-4.6h-11.6l-10.8-66.9h-3.3v-5.8l35-10.6l2.5,1.5
		v8.5h0.8V445c1.2,0,2.3,0,3.5,0v-82.4h0.7v-8.9l2.7-4.2l-2.6-9.8l-90.1,26.9L249,352.2c0.1-0.4,0.3-0.9,0.4-1.3
		c-1-0.3-1.9-0.6-2.9-0.8c-4.7,23.7,1,43.7,17.4,61.4l1.9-1.9l-0.8-1l0.9-31.8L305,365v3.9H301.7L301.7,368.9z M294.3,435.8
		l2.9-18.1l23.3,9.9l1.3,8.2H294.3L294.3,435.8z M263.7,387.2c-0.2,4.9-0.4,9.9-0.7,14.8c-0.9,0.3-1.9,0.6-2.8,0.9
		c-3.6-4.7-6.5-9.9-8.4-15.7c0.9-1.3,1.8-2.6,2.8-3.9c1-0.3,2.1-0.7,3.1-1C259.7,383.9,261.7,385.6,263.7,387.2L263.7,387.2z
		 M254.6,370.5l2.2,8.8l-3.8,1.3l-3.9-1.8l-0.7-4.2l3.4-3.5L254.6,370.5L254.6,370.5z M248,358.8l4.3-1.2l4.9,4.9l-3.4,4.9l-2.9,0.8
		l-3.3-2.3L248,358.8L248,358.8z M297.5,415.7l0.1-0.8h20.8l1.7,10.3L297.5,415.7L297.5,415.7z M298.6,409.2l1.7-10.4h15.6l0.1,0.6
		L298.6,409.2L298.6,409.2z M315.2,394.7l0.3,2h-15l1.7-10.3L315.2,394.7L315.2,394.7z M302.6,384.3l0.2-1.5h10.5l1.5,9.3
		L302.6,384.3L302.6,384.3z M316.3,401.5l1.8,11.4H298l0.2-1.2L316.3,401.5L316.3,401.5z M303.2,380.7l1-6.5h7.7l1,6.5H303.2z"/>
</g>
</svg>
