<?xml version="1.0" encoding="utf-8"?>
<!-- Generator: Adobe Illustrator 18.1.1, SVG Export Plug-In . SVG Version: 6.00 Build 0)  -->
<svg version="1.1" id="Layer_1" xmlns="http://www.w3.org/2000/svg" xmlns:xlink="http://www.w3.org/1999/xlink" x="0px" y="0px"
	 viewBox="193.5 284.5 224 224" enable-background="new 193.5 284.5 224 224" xml:space="preserve">
<g>
	<circle fill="#00B7C2" cx="305.5" cy="396.5" r="112"/>
	<path fill="#00676F" d="M297.2,366.1l8.7,8.6l5.8-4.8l8.2,8.1l6.9-15.1l17.5-9.7l9.6-17.7h3.7l59.7,59.4c0,0.6,0,1.2,0,1.7
		c0,59.2-45.9,107.6-104,111.7l-60.7-60.4v-19.7h3.1l-3.1-3v-4.7h9.1l-15-14.9v-3.5l15-6.6l5-12.3h9.7l6.6-22.4L297.2,366.1z"/>
	<path fill="#FFFFFF" d="M330.7,382.1h23.7v4.7h-23.7V382.1L330.7,382.1z M291.7,411h23.7v36.9h-23.7V411L291.7,411z M291.7,403
		h23.7v4.7h-23.7V403L291.7,403z M252.7,428.1h23.7v19.7h-23.7V428.1L252.7,428.1z M252.7,420.3h23.7v4.7h-23.7V420.3L252.7,420.3z
		 M246.9,401.9v3.5l17.5-7.7l4.6-11.5h9.9l6.3-21.3l9.8,3.8l8,12.5l7.6-6.3l7.5,14.7l11.2-24.4l17.4-9.7l10.9-20.1H354l-9.6,17.7
		l-17.5,9.7l-8.8,19.3l-6.3-12.3l-7.9,6.5l-6.6-10.3l-14.1-5.5l-6.6,22.4h-9.7l-5,12.3L246.9,401.9L246.9,401.9z M330.7,389.9h23.7
		v58h-23.7V389.9L330.7,389.9z M300.3,419v21.8h6.7V419H300.3L300.3,419z M339.3,396.9h6.7v43.8h-6.7V396.9L339.3,396.9z
		 M261.2,434.6v6.2h6.7v-6.2H261.2z"/>
</g>
</svg>
