<?xml version="1.0" encoding="utf-8"?>
<!-- Generator: Adobe Illustrator 18.1.1, SVG Export Plug-In . SVG Version: 6.00 Build 0)  -->
<svg version="1.1" id="Layer_1" xmlns="http://www.w3.org/2000/svg" xmlns:xlink="http://www.w3.org/1999/xlink" x="0px" y="0px"
	 viewBox="0 90 612 612" enable-background="new 0 90 612 612" xml:space="preserve">
<g>
	<circle fill="#FDB913" cx="306" cy="396" r="306"/>
	<path fill="#A16E0E" d="M209.3,286.7l5.7,6c6.3-7.9,12.8-14.5,21-20.8c28.1-21,71-33.3,102.2-15.3l7.9,8.5
		c25.7-1.9,47.3,8.2,63.4,24.9l188.5,196.4C561.5,603.9,456,691.3,328.9,700.6L142.1,505.8c-18-17.2-21.3-44.3-3.8-63.7l9.3,0.3
		C144.5,382.3,160.7,325.5,209.3,286.7z"/>
	<path fill="#FFFFFF" d="M138.5,442.4h9c-3.3-60.1,12.8-116.9,61.7-155.5c-33.1,42.9-36.9,84.1-39.6,137.4c1.6,1.6,0.8,0.8,2.7,2.2
		c3.6-45.9,13.9-101.1,48.4-140.2c25.1-28.4,80.1-51.4,117.8-29.2c-88,11.2-135.5,99.2-150.8,179.2c3.6,1.6,4.9,3.6,7.1,4.4
		c14.5-70.5,62.8-147.5,126-169.7c92.3-32.2,141.8,77.3,118.8,156.6c14.8-16.9,26-61.7,14.5-72.9c32.5,36.3,18.3,86.3-18.6,113.9
		c-67.8,50.5-229,47.5-271.6-7.1c-10.7-11.2-12.3-8.7-8.7,1.1c16.9,38.8,83.1,57.1,180,51.6c-27,16.9-142.6,32-188.8-4.6
		C124.6,492.7,119.7,463.5,138.5,442.4L138.5,442.4z M267.8,354.2c26.8-29.8,85.8-65.8,128.4-50c-9.8-27.3-37.2-24-59.8-15
		C308.2,300.4,279,325.5,267.8,354.2z"/>
</g>
</svg>
