<?xml version="1.0" encoding="utf-8"?>
<!-- Generator: Adobe Illustrator 18.1.1, SVG Export Plug-In . SVG Version: 6.00 Build 0)  -->
<svg version="1.1" id="Layer_1" xmlns="http://www.w3.org/2000/svg" xmlns:xlink="http://www.w3.org/1999/xlink" x="0px" y="0px"
	 viewBox="0 0 482.1 58.4" enable-background="new 0 0 482.1 58.4" xml:space="preserve">
<g>
	<g>
		<rect x="67.5" y="0" fill="#004483" width="8.1" height="47.9"/>
		<g>
			<defs>
				<rect id="SVGID_1_" x="0" y="0" width="260.8" height="58.4"/>
			</defs>
			<clipPath id="SVGID_2_">
				<use xlink:href="#SVGID_1_"  overflow="visible"/>
			</clipPath>
			<path clip-path="url(#SVGID_2_)" fill="#004483" d="M42.9,24.2v-6.2c0-5.6-4.3-8.6-9.5-8.6c-5.1,0-9.5,2.9-9.5,8.6v21.9
				c0,5.7,4.3,8.6,9.5,8.6c5.4,0,9.5-2.9,9.5-8.6v-7h-8.1v7.8c0,0.8-0.5,1.5-1.4,1.5c-0.9,0-1.4-0.7-1.4-1.5V17
				c0-0.8,0.6-1.4,1.4-1.4c0.8,0,1.4,0.6,1.4,1.4v7.2H42.9z"/>
			<path clip-path="url(#SVGID_2_)" fill="#004483" d="M165.6,24.5h-2.8v-7.4c0-0.9,0.6-1.5,1.4-1.5c0.8,0,1.4,0.6,1.4,1.5V24.5z
				 M173.7,17.9c0-5.7-4.3-8.6-9.5-8.6c-5.1,0-9.5,2.9-9.5,8.6v21.9c0,5.8,4.3,8.6,9.5,8.6c5.1,0,9.5-2.8,9.5-8.6v-7h-8.1v7.8
				c0,1-0.7,1.5-1.4,1.5c-0.8,0-1.4-0.6-1.4-1.5V30.3h10.9V17.9z"/>
			<path clip-path="url(#SVGID_2_)" fill="#004483" d="M230.9,24.5h-2.8v-7.4c0-0.9,0.6-1.5,1.4-1.5c0.8,0,1.4,0.6,1.4,1.5V24.5z
				 M239,17.9c0-5.7-4.3-8.6-9.5-8.6c-5.1,0-9.5,2.9-9.5,8.6v21.9c0,5.8,4.3,8.6,9.5,8.6c5.1,0,9.5-2.9,9.5-8.6v-7h-8.1v7.8
				c0,1-0.7,1.5-1.4,1.5c-0.8,0-1.4-0.6-1.4-1.5V30.3H239V17.9z"/>
			<path clip-path="url(#SVGID_2_)" fill="#004483" d="M89.3,9.8V40c0,0.9-0.5,1.5-1.4,1.5c-0.8,0-1.4-0.5-1.4-1.5V9.8h-8.1v31.8
				c0,4.2,2.6,6.8,5.7,6.8c3.2,0,4.6-2.3,5.1-3.1h0.2l0.2,2.7h7.8V9.8H89.3z"/>
			<path clip-path="url(#SVGID_2_)" fill="#004483" d="M189.9,9.3c-2.7,0-4.4,2-5.1,3.1h-0.2l-0.2-2.7h-7.9V48h8.1V17.8
				c0-0.9,0.5-1.5,1.4-1.5c0.8,0,1.4,0.6,1.4,1.5v12.5h8.1V15.9C195.5,11.9,193.1,9.3,189.9,9.3"/>
			<path clip-path="url(#SVGID_2_)" fill="#004483" d="M255.2,9.3c-2.7,0-4.4,2-5.1,3.1h-0.2l-0.2-2.7h-7.9V48h8.1V17.8
				c0-0.9,0.5-1.5,1.4-1.5c0.8,0,1.4,0.6,1.4,1.5v12.5h8.1V15.9C260.8,11.9,258.3,9.3,255.2,9.3"/>
			<path clip-path="url(#SVGID_2_)" fill="#004483" d="M209.2,37.5c0,1-0.6,1.6-1.4,1.6c-0.8,0-1.4-0.6-1.4-1.6V17.7
				c0-1,0.7-1.5,1.4-1.5c0.8,0,1.4,0.6,1.4,1.5V37.5z M209.3,9.8l-0.1,2.7H209c-0.4-0.9-2-3.1-5-3.1c-2.9,0-5.6,2.3-5.6,6.4v22.8
				c0,4.4,2.5,6.9,5.7,6.9c3,0,4.5-2,5-2.8h0.2V51c0,0.9-0.6,1.5-1.4,1.5c-0.7,0-1.4-0.5-1.4-1.5v-3.4h-8.1v2.1c0,6,3.8,8.6,9.5,8.6
				c5.6,0,9.5-2.7,9.5-8.6v-40H209.3z"/>
			<path clip-path="url(#SVGID_2_)" fill="#004483" d="M59.1,9.3c-2.9,0-4.6,2.1-5.1,3.1h-0.1V0h-8.1V48h8.1V18.1
				c0-0.8,0.5-1.5,1.4-1.5c0.9,0,1.4,0.7,1.4,1.5V48h8.1V16.3C64.7,11.1,61.6,9.3,59.1,9.3"/>
			<path clip-path="url(#SVGID_2_)" fill="#004483" d="M118.7,13c-0.4-1.4-2.1-3.7-5.1-3.7c-2.9,0-4.6,1.9-5.2,3.1h-0.2l-0.1-2.7h-8
				V48h8.1V17.8c0-0.9,0.6-1.5,1.4-1.5c0.8,0,1.4,0.6,1.4,1.5V48h8.1V17.8c0-1,0.7-1.5,1.4-1.5c0.8,0,1.4,0.6,1.4,1.5V48h8.1V16.6
				c0-5.2-2.7-7.3-5.8-7.3c-3.1,0-4.9,2.3-5.5,3.7H118.7z"/>
			<path clip-path="url(#SVGID_2_)" fill="#004483" d="M143.9,40c0,0.9-0.5,1.5-1.4,1.5c-0.7,0-1.4-0.5-1.4-1.5V17.8
				c0-1.1,0.7-1.6,1.4-1.6c0.8,0,1.4,0.5,1.4,1.6V40z M146.1,9.3c-2.7,0-4.3,2.3-4.8,3.1h-0.2V0H133V48h8l0.1-2.7h0.2
				c0.4,1,1.8,3.1,4.8,3.1c3.4,0,5.9-3,5.9-7.4V16.3C152,12,149.4,9.3,146.1,9.3"/>
			<path clip-path="url(#SVGID_2_)" fill="#004483" d="M17.3,23.8c-1.7-1.7-4-3.9-5-4.8c-2.5-2.4-3.2-3.7-3.2-6.7V8.5
				c0-0.9,0.6-1.4,1.5-1.4c0.9,0,1.4,0.6,1.4,1.4V16h9V8.6C21,2.4,16,0,10.6,0C5,0,0,2.4,0,8.7v5.7C0,19,2,21.5,3.9,23.3
				c1.5,1.4,2.6,2.5,4.9,4.6c2.7,2.5,3.2,3.8,3.2,7.4v4.5c0,1.3-0.6,1.8-1.4,1.8c-0.9,0-1.5-0.6-1.5-1.8v-9H0V40
				c0,6.3,5,8.7,10.6,8.7c5.5,0,10.6-2.3,10.6-9v-6.4C21.2,29.5,20.4,26.8,17.3,23.8"/>
		</g>
	</g>
	<line fill="none" stroke="#939598" stroke-miterlimit="10" x1="299" y1="0" x2="299" y2="58.4"/>
	<g>
		<path fill="#939598" d="M346.2,48.8c-5.1,0-8.2-3.3-8.2-8.4V31h4.7v9.3c0,2.1,1.2,4,3.5,4c2.3,0,3.5-1.8,3.5-4v-6.1
			c0-9.6-11.7-9.9-11.7-22V8.8c0-5.1,3.1-8.4,8.2-8.4c5.1,0,8.2,3.4,8.2,8.4v9.3h-4.7V8.7c0-2.2-1.1-4-3.5-4c-4,0-3.5,4.5-3.5,7.3
			c0,3.1,0.9,5,3,7.1c1.7,1.6,3.3,3.1,4.9,4.8c3.4,3.5,3.8,6.4,3.8,11.1v5.3C354.4,45.3,351.2,48.8,346.2,48.8z"/>
		<path fill="#939598" d="M365.3,48.7c-4.2,0-7.3-2.3-7.3-6.7V16.7c0-4.4,3.1-6.7,7.3-6.7c4.1,0,7.3,2.3,7.3,6.7V42
			C372.6,46.4,369.5,48.7,365.3,48.7z M368.1,17.1c0-1.8-0.8-3.4-2.8-3.4c-2.1,0-2.9,1.5-2.9,3.4v24.4c0,1.9,0.8,3.4,2.9,3.4
			c2,0,2.8-1.5,2.8-3.4V17.1z"/>
		<path fill="#939598" d="M384.2,3.8c-4.3,0-3.6,3.5-3.6,6.6h5.2v3.5h-5.2v34.4h-4.5V13.9H374v-3.5h2.1V6.6c0-4.1,2.6-6.3,6.6-6.3
			c1.3,0,2.5,0.1,3.7,0.5v3.3C385.7,4,384.9,3.8,384.2,3.8z"/>
		<path fill="#939598" d="M397,48.7c-4.1,0-6.8-1.9-6.8-6.1V13.9H388v-3.5h2.1v-5l4.5-2.1v7.1h5.2v3.5h-5.2v27.9
			c0,2.3,1.1,3.5,3.4,3.5c0.8,0,1.6-0.1,2.4-0.2v3.3C399.3,48.6,398.1,48.7,397,48.7z"/>
		<path fill="#939598" d="M423.3,48.3h-6.6l-2.1-33h-0.7l-2,33h-6.7l-3.8-37.8h3.9l2.8,32.6h0.7l1.9-32.6h7.1l1.9,32.6h0.6l2.8-32.6
			h4L423.3,48.3z"/>
		<path fill="#939598" d="M440.2,48.3V47h-0.1c-1.2,1.3-2.6,1.7-4.3,1.7c-3.7,0-5.7-2.8-5.7-6.3v-9.9c0-5.9,5.1-7.6,10.2-7.6V17
			c0-1.8-0.9-3.3-2.9-3.3c-2,0-2.9,1.5-2.9,3.3v6.9h-4.5v-7c0-4.5,3.1-6.9,7.3-6.9c4.3,0,7.3,2.3,7.3,6.9v31.4H440.2z M440.3,28.7
			c-3.4,0-5.7,1.1-5.7,4.8v8.2c0,1.8,0.9,3.3,2.9,3.3s2.9-1.5,2.9-3.3V28.7z"/>
		<path fill="#939598" d="M459.4,26.3v-9c0-1.7-0.9-3.2-2.7-3.2c-1.9,0-2.8,1.5-2.8,3.2v31h-4.5V10.4h4.3l0.1,1.9h0.1
			c0.9-1.5,2.7-2.3,4.4-2.3c3.2,0,5.5,2.2,5.5,5.5v10.7H459.4z"/>
		<path fill="#939598" d="M474.8,48.8c-4.2,0-7.3-2.3-7.3-6.7V16.7c0-4.4,3.1-6.7,7.3-6.7c4.1,0,7.3,2.3,7.3,6.7v13.7h-10.1v11.1
			c0,1.9,0.8,3.4,2.9,3.4c2,0,2.8-1.5,2.8-3.4v-7.1h4.5V42C482.1,46.4,478.9,48.8,474.8,48.8z M477.6,17.1c0-1.8-0.8-3.3-2.8-3.3
			c-2.1,0-2.9,1.5-2.9,3.3v9.1h5.7V17.1z"/>
	</g>
</g>
</svg>
