<?xml version="1.0" encoding="utf-8"?>
<!-- Generator: Adobe Illustrator 17.1.0, SVG Export Plug-In . SVG Version: 6.00 Build 0)  -->
<!DOCTYPE svg PUBLIC "-//W3C//DTD SVG 1.1//EN" "http://www.w3.org/Graphics/SVG/1.1/DTD/svg11.dtd">
<svg version="1.1" id="Layer_1" xmlns="http://www.w3.org/2000/svg" xmlns:xlink="http://www.w3.org/1999/xlink" x="0px" y="0px"
	 viewBox="3422.1 2076.6 274.4 61.6" enable-background="new 3422.1 2076.6 274.4 61.6" xml:space="preserve">
<g>
	<polygon fill="#FFFFFF" points="3492.5,2127.7 3501.5,2127.7 3501.5,2076.7 3492.5,2076.7 	"/>
	<path fill="#FFFFFF" d="M3467,2102.2c0-6,0-6,0-6c0-6-4.5-9-9.8-9c-6,0-10.5,3-10.5,9c0,22.5,0,22.5,0,22.5c0,6,4.5,9,10.5,9
		c5.2,0,9.8-3,9.8-9c0-6.8,0-6.8,0-6.8c-8.2,0-8.2,0-8.2,0c0,8.2,0,8.2,0,8.2c0,0.8-0.8,1.5-1.5,1.5c-1.5,0-1.5-0.8-1.5-1.5
		c0-25.5,0-25.5,0-25.5c0-0.8,0.8-1.5,1.5-1.5s1.5,0.8,1.5,1.5c0,7.5,0,7.5,0,7.5h8.2V2102.2z"/>
	<path fill="#FFFFFF" d="M3596,2102.9c-3,0-3,0-3,0c0-8.2,0-8.2,0-8.2c0-0.8,0.8-1.5,1.5-1.5c1.5,0,1.5,0.8,1.5,1.5V2102.9z
		 M3605,2096.2c0-6-4.5-9-10.5-9c-5.2,0-9.8,3-9.8,9c0,22.5,0,22.5,0,22.5c0,6,4.5,9,9.8,9c6,0,10.5-3,10.5-9c0-6.8,0-6.8,0-6.8
		c-9,0-9,0-9,0c0,8.2,0,8.2,0,8.2c0,0.8-0.8,1.5-1.5,1.5s-1.5-0.8-1.5-1.5c0-11.2,0-11.2,0-11.2c12,0,12,0,12,0V2096.2z"/>
	<path fill="#FFFFFF" d="M3665,2102.9c-3,0-3,0-3,0c0-8.2,0-8.2,0-8.2c0-0.8,0.8-1.5,1.5-1.5s1.5,0.8,1.5,1.5V2102.9z M3674,2096.2
		c0-6-4.5-9-10.5-9c-5.2,0-9.8,3-9.8,9c0,22.5,0,22.5,0,22.5c0,6,4.5,9,9.8,9s10.5-3,10.5-9c0-6.8,0-6.8,0-6.8c-9,0-9,0-9,0
		c0,8.2,0,8.2,0,8.2c0,0.8-0.8,1.5-1.5,1.5s-1.5-0.8-1.5-1.5c0-11.2,0-11.2,0-11.2c12,0,12,0,12,0V2096.2z"/>
	<path fill="#FFFFFF" d="M3515.8,2087.2c0,32.2,0,32.2,0,32.2c0,0.8-0.8,1.5-1.5,1.5s-1.5-0.8-1.5-1.5c0-32.2,0-32.2,0-32.2
		c-8.2,0-8.2,0-8.2,0c0,33.8,0,33.8,0,33.8c0,4.5,2.2,6.8,6,6.8c3,0,4.5-2.2,5.2-3l0,0c0,3,0,3,0,3c8.2,0,8.2,0,8.2,0
		c0-40.5,0-40.5,0-40.5h-8.2V2087.2z"/>
	<path fill="#FFFFFF" d="M3622.2,2087.2c-3,0-5.2,1.5-6,3l0,0c0-3,0-3,0-3c-8.2,0-8.2,0-8.2,0c0,40.5,0,40.5,0,40.5
		c8.2,0,8.2,0,8.2,0c0-32.2,0-32.2,0-32.2c0-0.8,0.8-1.5,1.5-1.5s1.5,0.8,1.5,1.5c0,13.5,0,13.5,0,13.5c8.2,0,8.2,0,8.2,0
		c0-15,0-15,0-15C3627.5,2089.4,3625.2,2087.2,3622.2,2087.2"/>
	<path fill="#FFFFFF" d="M3690.5,2087.2c-3,0-4.5,1.5-5.2,3l0,0c0-3,0-3,0-3c-9,0-9,0-9,0c0,40.5,0,40.5,0,40.5c9,0,9,0,9,0
		c0-32.2,0-32.2,0-32.2c0-0.8,0.8-1.5,1.5-1.5s1.5,0.8,1.5,1.5c0,13.5,0,13.5,0,13.5c8.2,0,8.2,0,8.2,0c0-15,0-15,0-15
		C3696.5,2089.4,3694.2,2087.2,3690.5,2087.2"/>
	<path fill="#FFFFFF" d="M3642.5,2116.4c0,1.5-0.8,1.5-1.5,1.5s-1.5,0-1.5-1.5c0-21,0-21,0-21c0-0.8,0.8-1.5,1.5-1.5
		s1.5,0.8,1.5,1.5V2116.4z M3642.5,2087.2c0,3,0,3,0,3c-0.8,0-0.8,0-0.8,0c0-0.8-2.2-3-5.2-3s-6,2.2-6,6c0,24.8,0,24.8,0,24.8
		c0,4.5,3,6.8,6,6.8c3.8,0,5.2-2.2,5.2-3c0.8,0,0.8,0,0.8,0c0,9,0,9,0,9c0,0.8-0.8,1.5-1.5,1.5s-1.5,0-1.5-1.5c0-3.8,0-3.8,0-3.8
		c-9,0-9,0-9,0c0,2.2,0,2.2,0,2.2c0,6.8,4.5,9,10.5,9c5.2,0,9.8-2.2,9.8-9c0-42,0-42,0-42H3642.5z"/>
	<path fill="#FFFFFF" d="M3484.2,2087.2c-3,0-5.2,1.5-6,3l0,0c0-13.5,0-13.5,0-13.5c-8.2,0-8.2,0-8.2,0c0,51,0,51,0,51
		c8.2,0,8.2,0,8.2,0c0-31.5,0-31.5,0-31.5c0-0.8,0.8-1.5,1.5-1.5s1.5,0.8,1.5,1.5c0,31.5,0,31.5,0,31.5c9,0,9,0,9,0
		c0-33.8,0-33.8,0-33.8C3490.2,2088.7,3486.5,2087.2,3484.2,2087.2"/>
	<path fill="#FFFFFF" d="M3546.5,2090.9c0-1.5-2.2-3.8-5.2-3.8s-4.5,1.5-5.2,3l0,0c0-3,0-3,0-3c-9,0-9,0-9,0c0,40.5,0,40.5,0,40.5
		c9,0,9,0,9,0c0-32.2,0-32.2,0-32.2c0-0.8,0.8-1.5,1.5-1.5s1.5,0.8,1.5,1.5c0,32.2,0,32.2,0,32.2c8.2,0,8.2,0,8.2,0
		c0-32.2,0-32.2,0-32.2c0-0.8,0.8-1.5,1.5-1.5s1.5,0.8,1.5,1.5c0,32.2,0,32.2,0,32.2c9,0,9,0,9,0c0-33,0-33,0-33c0-6-3-7.5-6.8-7.5
		c-3,0-5.2,2.2-5.2,3.8H3546.5z"/>
	<path fill="#FFFFFF" d="M3573.5,2119.4c0,0.8-0.8,1.5-1.5,1.5s-1.5-0.8-1.5-1.5c0-24,0-24,0-24c0-0.8,0.8-1.5,1.5-1.5
		s1.5,0.8,1.5,1.5V2119.4z M3575.8,2087.2c-3,0-4.5,2.2-5.2,3l0,0c0-13.5,0-13.5,0-13.5c-8.2,0-8.2,0-8.2,0c0,51,0,51,0,51
		c8.2,0,8.2,0,8.2,0c0-3,0-3,0-3l0,0c0.8,1.5,2.2,3,5.2,3c3.8,0,6-3,6-7.5c0-26.2,0-26.2,0-26.2
		C3581.8,2089.4,3579.5,2087.2,3575.8,2087.2"/>
	<path fill="#FFFFFF" d="M3440,2102.2c-2.2-2.2-4.5-4.5-5.2-5.2c-3-2.2-3.8-3.8-3.8-6.8c0-4.5,0-4.5,0-4.5c0-0.8,0.8-1.5,1.5-1.5
		c1.5,0,1.5,0.8,1.5,1.5c0,8.2,0,8.2,0,8.2c9.8,0,9.8,0,9.8,0c0-7.5,0-7.5,0-7.5c0-6.8-5.2-9.8-11.2-9.8c-5.2,0-10.5,3-10.5,9.8
		c0,6,0,6,0,6c0,4.5,1.5,7.5,3.8,9c1.5,1.5,3,3,5.2,5.2c3,2.2,3,3.8,3,7.5c0,4.5,0,4.5,0,4.5c0,1.5,0,2.2-1.5,2.2
		c-0.8,0-1.5-0.8-1.5-2.2c0-9,0-9,0-9c-9,0-9,0-9,0c0,9.8,0,9.8,0,9.8c0,6.8,5.2,9,10.5,9c6,0,11.2-2.2,11.2-9.8c0-6.8,0-6.8,0-6.8
		C3443.8,2108.2,3443,2105.2,3440,2102.2"/>
</g>
</svg>
