<svg id="Layer_1" data-name="Layer 1" xmlns="http://www.w3.org/2000/svg" viewBox="0 0 100 100"><defs><style>.cls-1{fill:#005a9b;}</style></defs><title>phone</title><path class="cls-1" d="M0,18.66A11.58,11.58,0,0,1,6.28,8.36C13.34,4.72,26.95,0,50,0S86.66,4.72,93.72,8.36A11.58,11.58,0,0,1,100,18.66V32.33a5.17,5.17,0,0,1-5.17,5.17H80.17A5.17,5.17,0,0,1,75,32.33V25s-2-4-25-4-25,4-25,4v7.33a5.17,5.17,0,0,1-5.17,5.17H5.17A5.17,5.17,0,0,1,0,32.33Z"/><path class="cls-1" d="M91.46,100H8.54a6.67,6.67,0,0,1-6.47-8.29l9.17-37.5a6.67,6.67,0,0,1,6.47-5.05H82.29a6.67,6.67,0,0,1,6.47,5.05l9.17,37.5A6.67,6.67,0,0,1,91.46,100Z"/><path class="cls-1" d="M68.74,41.71a6.24,6.24,0,0,0-6.24-6h-25a6.24,6.24,0,0,0-6.24,6h0v12.5h37.5V41.71Z"/></svg>